<?xml version="1.0" encoding="UTF-8"?>
<svg xmlns="http://www.w3.org/2000/svg" xmlns:xlink="http://www.w3.org/1999/xlink" width="24px" height="24px" viewBox="0 0 24 24" version="1.1">
<g id="surface1">
<path d="M 21.78125 6.046875 C 20.828125 5.105469 19.570312 4.574219 18.238281 4.558594 L 17.785156 4.550781 L 17.6875 4.113281 C 17.417969 2.949219 16.753906 1.898438 15.8125 1.148438 C 14.84375 0.382812 13.679688 -0.015625 12.445312 0 C 11.191406 0.0195312 10.03125 0.453125 9.078125 1.261719 C 8.152344 2.050781 7.519531 3.140625 7.300781 4.328125 L 7.195312 4.875 L 6.644531 4.789062 C 6.324219 4.738281 6.039062 4.714844 5.761719 4.71875 C 4.398438 4.738281 3.121094 5.285156 2.167969 6.265625 C 1.214844 7.242188 0.703125 8.535156 0.71875 9.898438 C 0.738281 11.261719 1.289062 12.535156 2.265625 13.492188 C 3.246094 14.441406 4.535156 14.957031 5.898438 14.9375 L 18.238281 14.773438 C 19.601562 14.753906 20.875 14.207031 21.832031 13.226562 C 22.78125 12.246094 23.296875 10.957031 23.28125 9.59375 C 23.261719 8.257812 22.726562 6.996094 21.78125 6.046875 Z M 21.78125 6.046875 "/>
<path d="M 7.011719 16.550781 C 7.011719 16.550781 6.023438 17.472656 5.789062 17.757812 C 5.703125 17.867188 5.636719 17.996094 5.597656 18.140625 C 5.464844 18.667969 5.785156 19.199219 6.3125 19.332031 C 6.835938 19.464844 7.371094 19.144531 7.503906 18.621094 C 7.539062 18.476562 7.539062 18.332031 7.515625 18.195312 C 7.445312 17.832031 7.011719 16.550781 7.011719 16.550781 Z M 7.011719 16.550781 "/>
<path d="M 5.84375 21.1875 C 5.84375 21.1875 4.855469 22.113281 4.621094 22.398438 C 4.535156 22.507812 4.464844 22.632812 4.429688 22.777344 C 4.296875 23.304688 4.617188 23.835938 5.140625 23.96875 C 5.667969 24.101562 6.199219 23.785156 6.332031 23.257812 C 6.371094 23.113281 6.371094 22.96875 6.34375 22.832031 C 6.273438 22.46875 5.84375 21.1875 5.84375 21.1875 Z M 5.84375 21.1875 "/>
<path d="M 12.882812 16.472656 C 12.882812 16.472656 11.894531 17.394531 11.660156 17.679688 C 11.570312 17.789062 11.503906 17.917969 11.46875 18.0625 C 11.335938 18.589844 11.65625 19.121094 12.179688 19.253906 C 12.707031 19.386719 13.238281 19.066406 13.371094 18.542969 C 13.410156 18.398438 13.410156 18.253906 13.382812 18.113281 C 13.3125 17.753906 12.882812 16.472656 12.882812 16.472656 Z M 12.882812 16.472656 "/>
<path d="M 11.710938 21.109375 C 11.710938 21.109375 10.726562 22.03125 10.492188 22.316406 C 10.402344 22.425781 10.335938 22.554688 10.300781 22.699219 C 10.167969 23.226562 10.488281 23.757812 11.011719 23.890625 C 11.539062 24.023438 12.070312 23.703125 12.203125 23.179688 C 12.242188 23.035156 12.242188 22.890625 12.214844 22.753906 C 12.144531 22.390625 11.710938 21.109375 11.710938 21.109375 Z M 11.710938 21.109375 "/>
<path d="M 18.753906 16.394531 C 18.753906 16.394531 17.765625 17.316406 17.53125 17.601562 C 17.441406 17.710938 17.375 17.839844 17.339844 17.984375 C 17.207031 18.507812 17.523438 19.042969 18.050781 19.175781 C 18.578125 19.308594 19.109375 18.988281 19.242188 18.464844 C 19.277344 18.320312 19.28125 18.171875 19.253906 18.035156 C 19.183594 17.675781 18.753906 16.394531 18.753906 16.394531 Z M 18.753906 16.394531 "/>
<path d="M 17.585938 21.03125 C 17.585938 21.03125 16.597656 21.953125 16.363281 22.238281 C 16.273438 22.347656 16.207031 22.476562 16.171875 22.621094 C 16.039062 23.144531 16.355469 23.679688 16.882812 23.8125 C 17.40625 23.945312 17.941406 23.625 18.074219 23.101562 C 18.109375 22.957031 18.113281 22.8125 18.085938 22.675781 C 18.015625 22.3125 17.585938 21.03125 17.585938 21.03125 Z M 17.585938 21.03125 "/>
</g>
</svg>
