<?xml version="1.0" encoding="UTF-8"?>
<svg xmlns="http://www.w3.org/2000/svg" xmlns:xlink="http://www.w3.org/1999/xlink" width="24px" height="24px" viewBox="0 0 24 24" version="1.1">
<g id="surface1">
<path d="M 20.390625 13.632812 C 21.398438 12.894531 22.054688 11.703125 22.054688 10.355469 C 22.054688 8.117188 20.234375 6.296875 17.996094 6.296875 L 14.875 6.296875 C 15.421875 5.605469 15.746094 4.730469 15.746094 3.785156 L 15.746094 2.417969 C 15.746094 1.085938 14.664062 0 13.332031 0 C 12 0 10.914062 1.085938 10.914062 2.417969 L 10.914062 3.011719 L 5.980469 3.011719 C 3.742188 3.011719 1.921875 4.832031 1.921875 7.070312 C 1.921875 8.507812 2.671875 9.769531 3.800781 10.492188 C 2.882812 11.238281 2.296875 12.375 2.296875 13.644531 C 2.296875 15.882812 4.117188 17.703125 6.359375 17.703125 L 10.191406 17.703125 C 9.648438 18.394531 9.320312 19.265625 9.320312 20.214844 L 9.320312 21.582031 C 9.320312 22.914062 10.402344 24 11.738281 24 C 13.070312 24 14.152344 22.914062 14.152344 21.582031 L 14.152344 20.988281 L 18.019531 20.988281 C 20.257812 20.988281 22.078125 19.167969 22.078125 16.929688 C 22.078125 15.574219 21.414062 14.371094 20.390625 13.632812 Z M 18.019531 19.378906 L 13.378906 19.378906 C 12.917969 19.378906 12.542969 19.753906 12.542969 20.214844 L 12.542969 21.582031 C 12.542969 22.027344 12.179688 22.390625 11.738281 22.390625 C 11.292969 22.390625 10.929688 22.027344 10.929688 21.582031 L 10.929688 20.214844 C 10.929688 18.867188 12.03125 17.765625 13.378906 17.765625 L 18.019531 17.765625 C 18.480469 17.765625 18.855469 17.390625 18.855469 16.929688 C 18.855469 16.46875 18.480469 16.089844 18.019531 16.089844 L 6.355469 16.089844 C 5.007812 16.089844 3.910156 14.992188 3.910156 13.644531 C 3.910156 12.292969 5.007812 11.195312 6.355469 11.195312 L 17.996094 11.195312 C 18.457031 11.195312 18.832031 10.820312 18.832031 10.355469 C 18.832031 9.894531 18.457031 9.519531 17.996094 9.519531 L 5.980469 9.519531 C 4.628906 9.519531 3.53125 8.421875 3.53125 7.070312 C 3.53125 5.71875 4.628906 4.621094 5.980469 4.621094 L 11.6875 4.621094 C 12.148438 4.621094 12.527344 4.246094 12.527344 3.785156 L 12.527344 2.417969 C 12.527344 1.972656 12.886719 1.609375 13.332031 1.609375 C 13.777344 1.609375 14.136719 1.972656 14.136719 2.417969 L 14.136719 3.785156 C 14.136719 5.132812 13.039062 6.234375 11.6875 6.234375 L 5.980469 6.234375 C 5.519531 6.234375 5.144531 6.609375 5.144531 7.070312 C 5.144531 7.53125 5.519531 7.90625 5.980469 7.90625 L 17.996094 7.90625 C 19.347656 7.90625 20.445312 9.007812 20.445312 10.355469 C 20.445312 11.707031 19.347656 12.804688 17.996094 12.804688 L 6.355469 12.804688 C 5.894531 12.804688 5.519531 13.179688 5.519531 13.644531 C 5.519531 14.105469 5.894531 14.480469 6.355469 14.480469 L 18.019531 14.480469 C 19.371094 14.480469 20.46875 15.578125 20.46875 16.929688 C 20.46875 18.28125 19.371094 19.378906 18.019531 19.378906 Z M 18.019531 19.378906 "/>
</g>
</svg>
