<?xml version="1.0" encoding="UTF-8"?>
<svg xmlns="http://www.w3.org/2000/svg" xmlns:xlink="http://www.w3.org/1999/xlink" width="24px" height="24px" viewBox="0 0 24 24" version="1.1">
<g id="surface1">
<path fill="currentColor" d="M 11.503906 15.820312 L 11.503906 15.800781 C 11.097656 15.777344 10.679688 15.628906 10.238281 15.410156 C 9.660156 16.449219 9.082031 16.449219 7.898438 16.453125 L 7.828125 16.453125 C 7.769531 16.550781 7.703125 16.644531 7.625 16.730469 C 7.476562 16.890625 7.300781 17.027344 7.082031 17.140625 C 6.882812 17.246094 6.621094 17.195312 6.496094 17.023438 C 6.375 16.851562 6.4375 16.628906 6.636719 16.523438 C 6.765625 16.457031 6.871094 16.375 6.953125 16.289062 C 7 16.230469 7.042969 16.171875 7.082031 16.105469 C 7.023438 16.039062 6.953125 15.980469 6.875 15.933594 C 6.734375 15.847656 6.566406 15.789062 6.371094 15.753906 C 6.140625 15.710938 5.996094 15.519531 6.050781 15.320312 C 6.097656 15.128906 6.324219 15.003906 6.554688 15.046875 C 6.859375 15.105469 7.132812 15.203125 7.367188 15.34375 C 7.542969 15.449219 7.6875 15.578125 7.8125 15.730469 L 7.890625 15.730469 C 8.714844 15.730469 9.113281 15.726562 9.511719 15.023438 L 9.3125 14.914062 C 9.117188 14.804688 8.917969 14.695312 8.683594 14.566406 C 7.304688 13.828125 6.78125 13.898438 5.445312 14.085938 C 5.371094 14.09375 5.292969 14.105469 5.140625 14.125 C 5.097656 14.179688 5.058594 14.234375 5.027344 14.292969 C 4.96875 14.386719 4.929688 14.488281 4.917969 14.578125 C 4.882812 14.777344 4.667969 14.910156 4.4375 14.882812 C 4.203125 14.855469 4.042969 14.671875 4.078125 14.472656 C 4.105469 14.316406 4.171875 14.140625 4.273438 13.96875 L 4.285156 13.941406 L 4.257812 13.929688 C 4.082031 13.84375 3.929688 13.738281 3.800781 13.621094 C 3.644531 13.472656 3.652344 13.246094 3.824219 13.109375 C 3.992188 12.972656 4.261719 12.980469 4.421875 13.125 C 4.492188 13.191406 4.578125 13.25 4.683594 13.300781 C 4.769531 13.34375 4.871094 13.382812 4.988281 13.414062 L 5.308594 13.371094 C 6.871094 13.152344 7.480469 13.066406 9.136719 13.953125 C 9.335938 14.058594 9.558594 14.1875 9.777344 14.308594 C 10.449219 14.6875 11.046875 15.023438 11.488281 15.070312 C 11.484375 15.011719 11.484375 14.949219 11.480469 14.890625 C 11.09375 14.761719 10.667969 14.46875 10.28125 14.125 C 9.71875 13.621094 9.203125 12.980469 9.039062 12.601562 C 8.914062 12.308594 8.855469 12.039062 8.789062 11.75 C 8.734375 11.5 8.675781 11.234375 8.5625 10.925781 C 8.492188 10.949219 8.421875 10.964844 8.351562 10.980469 C 7.507812 11.152344 7.148438 10.898438 6.703125 10.582031 C 6.578125 10.492188 6.449219 10.398438 6.300781 10.320312 C 5.859375 10.082031 5.828125 10.082031 5.550781 10.066406 C 5.476562 10.0625 5.390625 10.054688 5.234375 10.042969 C 5 10.023438 4.828125 9.847656 4.851562 9.648438 C 4.875 9.449219 5.078125 9.304688 5.3125 9.320312 C 5.402344 9.328125 5.515625 9.335938 5.605469 9.339844 C 6.070312 9.367188 6.121094 9.371094 6.75 9.707031 C 6.949219 9.8125 7.101562 9.921875 7.246094 10.023438 C 7.507812 10.210938 7.722656 10.363281 8.160156 10.273438 C 8.1875 10.269531 8.214844 10.261719 8.242188 10.253906 C 8.214844 10.210938 8.1875 10.167969 8.160156 10.125 C 8.011719 9.882812 7.867188 9.648438 7.761719 9.351562 C 7.707031 9.191406 7.671875 9.054688 7.664062 8.941406 C 7.605469 8.726562 7.527344 8.570312 7.433594 8.464844 C 7.359375 8.382812 7.273438 8.335938 7.175781 8.320312 C 6.945312 8.28125 6.800781 8.085938 6.847656 7.890625 C 6.898438 7.695312 7.121094 7.570312 7.351562 7.609375 C 7.644531 7.664062 7.898438 7.796875 8.105469 8.027344 C 8.121094 8.046875 8.144531 8.070312 8.160156 8.09375 C 8.296875 7.957031 8.441406 7.773438 8.527344 7.421875 C 8.574219 7.226562 8.800781 7.101562 9.03125 7.144531 C 9.261719 7.183594 9.40625 7.375 9.359375 7.574219 C 9.203125 8.207031 8.910156 8.472656 8.683594 8.679688 C 8.558594 8.789062 8.476562 8.863281 8.574219 9.144531 C 8.652344 9.371094 8.78125 9.578125 8.910156 9.785156 C 9.019531 9.960938 9.128906 10.140625 9.222656 10.347656 C 9.453125 10.859375 9.542969 11.253906 9.621094 11.613281 C 9.679688 11.875 9.730469 12.109375 9.832031 12.351562 C 9.964844 12.652344 10.402344 13.183594 10.890625 13.621094 C 11.074219 13.789062 11.261719 13.933594 11.433594 14.042969 C 11.417969 13.851562 11.402344 13.667969 11.386719 13.484375 C 11.300781 12.636719 11.171875 11.820312 10.992188 10.6875 C 10.917969 10.238281 10.859375 9.554688 10.820312 8.820312 C 10.773438 7.964844 10.75 7.03125 10.75 6.34375 C 10.722656 5.746094 10.503906 5.363281 10.105469 5.183594 C 9.664062 4.984375 8.992188 4.984375 8.105469 5.164062 C 7.457031 5.386719 6.851562 5.65625 6.304688 5.976562 C 5.75 6.296875 5.25 6.667969 4.8125 7.101562 C 3.664062 8.226562 2.761719 10.050781 2.113281 12.050781 C 1.292969 14.570312 0.871094 17.347656 0.847656 19.359375 L 0.847656 19.367188 C 0.804688 20.65625 1.042969 21.558594 1.5 22.15625 C 1.933594 22.71875 2.578125 23.015625 3.382812 23.117188 L 3.390625 23.121094 C 4.195312 23.183594 5.046875 23.246094 5.867188 23.214844 C 6.660156 23.183594 7.421875 23.066406 8.054688 22.769531 C 8.226562 22.6875 8.390625 22.605469 8.542969 22.515625 C 8.699219 22.425781 8.851562 22.328125 8.996094 22.226562 C 9.515625 21.859375 9.914062 21.417969 10.222656 20.929688 C 10.539062 20.433594 10.769531 19.882812 10.953125 19.3125 C 11.105469 18.839844 11.222656 18.355469 11.308594 17.855469 C 11.386719 17.4375 11.4375 17.015625 11.480469 16.589844 C 10.625 16.867188 9.972656 17.40625 9.28125 17.976562 C 9.171875 18.066406 9.0625 18.15625 8.953125 18.242188 C 8.792969 18.375 8.632812 18.5 8.460938 18.621094 C 8.257812 19.101562 8.214844 19.574219 8.179688 19.996094 C 8.109375 20.789062 8.050781 21.421875 7.171875 21.839844 C 6.96875 21.9375 6.710938 21.875 6.597656 21.703125 C 6.480469 21.527344 6.554688 21.304688 6.761719 21.210938 C 7.238281 20.980469 7.277344 20.519531 7.332031 19.941406 C 7.351562 19.707031 7.375 19.457031 7.421875 19.191406 C 7.277344 19.25 7.125 19.296875 6.960938 19.339844 C 6.53125 19.453125 6.09375 19.492188 5.648438 19.453125 C 5.21875 19.421875 4.773438 19.304688 4.328125 19.101562 C 4.054688 19.289062 3.828125 19.429688 3.324219 19.46875 C 3.089844 19.484375 2.882812 19.335938 2.867188 19.136719 C 2.847656 18.9375 3.023438 18.761719 3.253906 18.746094 C 3.523438 18.726562 3.65625 18.636719 3.824219 18.519531 L 3.878906 18.484375 C 3.84375 18.453125 3.804688 18.417969 3.761719 18.382812 C 3.589844 18.246094 3.582031 18.019531 3.742188 17.871094 C 3.902344 17.726562 4.171875 17.71875 4.34375 17.855469 C 4.488281 17.972656 4.605469 18.089844 4.703125 18.230469 C 4.769531 18.324219 4.820312 18.417969 4.867188 18.523438 C 5.164062 18.644531 5.453125 18.714844 5.738281 18.742188 C 6.070312 18.769531 6.398438 18.738281 6.722656 18.652344 C 7.058594 18.566406 7.34375 18.4375 7.601562 18.28125 C 7.871094 18.121094 8.121094 17.925781 8.371094 17.722656 C 8.484375 17.632812 8.589844 17.546875 8.691406 17.460938 C 9.539062 16.765625 10.324219 16.117188 11.503906 15.820312 Z M 12 11.628906 C 12.050781 11.3125 12.101562 10.96875 12.164062 10.59375 C 12.230469 10.164062 12.285156 9.503906 12.324219 8.792969 C 12.375 7.929688 12.394531 7.003906 12.394531 6.332031 C 12.394531 6.328125 12.394531 6.324219 12.394531 6.320312 C 12.421875 5.742188 12.59375 5.292969 12.898438 4.964844 L 12.898438 1.050781 C 12.898438 0.976562 12.863281 0.90625 12.804688 0.859375 C 12.746094 0.808594 12.667969 0.777344 12.582031 0.777344 L 11.625 0.777344 C 11.539062 0.777344 11.457031 0.808594 11.402344 0.859375 L 11.398438 0.859375 C 11.339844 0.90625 11.304688 0.976562 11.304688 1.050781 L 11.304688 5.234375 C 11.484375 5.527344 11.582031 5.886719 11.605469 6.320312 C 11.605469 6.324219 11.605469 6.332031 11.605469 6.335938 C 11.601562 7.007812 11.625 7.933594 11.675781 8.796875 C 11.714844 9.507812 11.769531 10.167969 11.835938 10.597656 C 11.894531 10.96875 11.949219 11.3125 12 11.628906 Z M 13.75 4.449219 C 14.359375 4.257812 15.152344 4.269531 16.113281 4.472656 C 16.140625 4.476562 16.164062 4.484375 16.191406 4.492188 C 16.902344 4.734375 17.5625 5.03125 18.164062 5.378906 C 18.78125 5.734375 19.332031 6.148438 19.820312 6.628906 C 21.0625 7.839844 22.019531 9.765625 22.703125 11.863281 C 23.539062 14.4375 23.96875 17.28125 23.996094 19.351562 C 24.042969 20.800781 23.757812 21.839844 23.203125 22.558594 C 22.628906 23.308594 21.78125 23.703125 20.738281 23.839844 C 20.71875 23.84375 20.699219 23.84375 20.679688 23.84375 C 19.847656 23.910156 18.957031 23.972656 18.09375 23.941406 C 17.179688 23.910156 16.296875 23.765625 15.53125 23.410156 C 15.347656 23.320312 15.164062 23.226562 14.980469 23.121094 C 14.800781 23.019531 14.625 22.910156 14.460938 22.792969 C 13.84375 22.359375 13.386719 21.847656 13.023438 21.28125 C 12.671875 20.730469 12.421875 20.128906 12.222656 19.511719 C 12.136719 19.246094 12.0625 18.980469 11.996094 18.71875 C 11.933594 18.980469 11.859375 19.25 11.773438 19.511719 C 11.574219 20.128906 11.324219 20.730469 10.96875 21.28125 C 10.613281 21.847656 10.148438 22.359375 9.535156 22.792969 C 9.367188 22.910156 9.191406 23.023438 9.011719 23.121094 C 8.832031 23.226562 8.644531 23.324219 8.460938 23.410156 C 7.699219 23.765625 6.816406 23.910156 5.902344 23.941406 C 5.035156 23.972656 4.148438 23.910156 3.316406 23.84375 C 3.292969 23.84375 3.273438 23.84375 3.253906 23.839844 C 2.210938 23.707031 1.363281 23.3125 0.789062 22.558594 C 0.238281 21.839844 -0.046875 20.796875 -0.00390625 19.351562 C 0.0234375 17.28125 0.453125 14.4375 1.292969 11.863281 C 1.972656 9.769531 2.929688 7.84375 4.171875 6.628906 C 4.660156 6.152344 5.210938 5.738281 5.828125 5.378906 C 6.433594 5.03125 7.09375 4.734375 7.804688 4.492188 C 7.824219 4.484375 7.851562 4.476562 7.878906 4.472656 C 8.953125 4.246094 9.816406 4.257812 10.449219 4.523438 L 10.449219 1.050781 C 10.449219 0.777344 10.582031 0.527344 10.792969 0.347656 C 11.011719 0.164062 11.304688 0.0507812 11.625 0.0507812 L 12.578125 0.0507812 C 12.898438 0.0507812 13.195312 0.164062 13.40625 0.34375 C 13.617188 0.523438 13.75 0.777344 13.75 1.050781 Z M 12.609375 13.488281 C 12.589844 13.699219 12.570312 13.910156 12.554688 14.132812 C 12.761719 14.019531 13.003906 13.839844 13.238281 13.625 C 13.730469 13.1875 14.167969 12.65625 14.296875 12.355469 C 14.398438 12.113281 14.453125 11.875 14.507812 11.617188 C 14.589844 11.257812 14.675781 10.863281 14.90625 10.351562 C 15 10.144531 15.113281 9.96875 15.222656 9.789062 C 15.347656 9.582031 15.476562 9.375 15.554688 9.148438 C 15.65625 8.871094 15.570312 8.792969 15.445312 8.683594 C 15.21875 8.472656 14.925781 8.210938 14.769531 7.578125 C 14.722656 7.378906 14.867188 7.1875 15.097656 7.148438 C 15.328125 7.105469 15.554688 7.230469 15.601562 7.425781 C 15.6875 7.777344 15.835938 7.960938 15.96875 8.097656 C 15.988281 8.074219 16.003906 8.050781 16.027344 8.03125 C 16.230469 7.800781 16.484375 7.667969 16.777344 7.613281 C 17.007812 7.574219 17.234375 7.699219 17.28125 7.894531 C 17.328125 8.089844 17.183594 8.285156 16.953125 8.324219 C 16.855469 8.339844 16.773438 8.386719 16.699219 8.46875 C 16.605469 8.574219 16.527344 8.730469 16.464844 8.945312 C 16.457031 9.058594 16.425781 9.195312 16.367188 9.355469 C 16.261719 9.652344 16.117188 9.886719 15.96875 10.128906 C 15.941406 10.171875 15.914062 10.214844 15.886719 10.257812 C 15.914062 10.265625 15.941406 10.273438 15.96875 10.277344 C 16.40625 10.367188 16.621094 10.214844 16.882812 10.027344 C 17.027344 9.925781 17.179688 9.816406 17.382812 9.710938 C 18.007812 9.375 18.058594 9.371094 18.523438 9.34375 C 18.613281 9.339844 18.726562 9.332031 18.816406 9.324219 C 19.050781 9.304688 19.257812 9.453125 19.277344 9.652344 C 19.300781 9.851562 19.132812 10.027344 18.898438 10.046875 C 18.738281 10.058594 18.652344 10.066406 18.578125 10.070312 C 18.300781 10.085938 18.273438 10.085938 17.832031 10.324219 C 17.683594 10.402344 17.550781 10.496094 17.425781 10.585938 C 16.980469 10.902344 16.621094 11.152344 15.777344 10.984375 C 15.707031 10.972656 15.636719 10.953125 15.566406 10.929688 C 15.453125 11.234375 15.394531 11.503906 15.339844 11.753906 C 15.277344 12.042969 15.214844 12.3125 15.089844 12.605469 C 14.925781 12.984375 14.414062 13.625 13.847656 14.128906 C 13.414062 14.515625 12.933594 14.832031 12.511719 14.933594 C 12.507812 14.980469 12.507812 15.03125 12.503906 15.078125 C 12.953125 15.097656 13.609375 14.730469 14.355469 14.308594 C 14.570312 14.1875 14.796875 14.058594 14.992188 13.953125 C 16.648438 13.070312 17.261719 13.152344 18.820312 13.371094 L 19.144531 13.414062 C 19.257812 13.386719 19.359375 13.347656 19.449219 13.304688 C 19.550781 13.253906 19.636719 13.195312 19.707031 13.128906 C 19.867188 12.980469 20.136719 12.972656 20.308594 13.109375 C 20.476562 13.246094 20.488281 13.476562 20.328125 13.621094 C 20.199219 13.738281 20.050781 13.84375 19.871094 13.929688 L 19.84375 13.945312 L 19.859375 13.96875 C 19.957031 14.140625 20.023438 14.316406 20.050781 14.476562 C 20.085938 14.675781 19.925781 14.859375 19.695312 14.886719 C 19.460938 14.914062 19.246094 14.777344 19.214844 14.578125 C 19.199219 14.488281 19.160156 14.390625 19.105469 14.292969 C 19.070312 14.238281 19.03125 14.179688 18.988281 14.128906 C 18.835938 14.109375 18.761719 14.097656 18.683594 14.085938 C 17.351562 13.902344 16.824219 13.828125 15.445312 14.570312 C 15.210938 14.695312 15.007812 14.804688 14.816406 14.914062 L 14.621094 15.027344 C 15.015625 15.730469 15.414062 15.730469 16.238281 15.734375 L 16.316406 15.734375 C 16.4375 15.578125 16.589844 15.449219 16.761719 15.34375 C 16.996094 15.203125 17.269531 15.109375 17.574219 15.050781 C 17.804688 15.007812 18.03125 15.128906 18.082031 15.324219 C 18.132812 15.519531 17.988281 15.710938 17.757812 15.753906 C 17.5625 15.792969 17.394531 15.851562 17.257812 15.933594 C 17.179688 15.980469 17.109375 16.039062 17.046875 16.109375 C 17.085938 16.171875 17.128906 16.234375 17.179688 16.289062 C 17.257812 16.378906 17.363281 16.457031 17.492188 16.527344 C 17.695312 16.628906 17.753906 16.855469 17.632812 17.027344 C 17.507812 17.195312 17.246094 17.25 17.046875 17.144531 C 16.828125 17.03125 16.648438 16.890625 16.507812 16.730469 C 16.425781 16.644531 16.359375 16.554688 16.300781 16.457031 L 16.234375 16.457031 C 15.046875 16.453125 14.46875 16.449219 13.890625 15.414062 C 13.417969 15.644531 12.972656 15.800781 12.542969 15.804688 C 13.765625 16.089844 14.570312 16.753906 15.429688 17.460938 C 15.535156 17.546875 15.640625 17.632812 15.753906 17.726562 C 16.003906 17.929688 16.253906 18.121094 16.519531 18.28125 C 16.78125 18.4375 17.066406 18.566406 17.402344 18.65625 C 17.726562 18.738281 18.054688 18.773438 18.382812 18.742188 C 18.667969 18.71875 18.960938 18.648438 19.257812 18.527344 C 19.300781 18.421875 19.355469 18.324219 19.421875 18.230469 C 19.519531 18.09375 19.632812 17.976562 19.78125 17.859375 C 19.953125 17.722656 20.21875 17.726562 20.378906 17.875 C 20.539062 18.019531 20.53125 18.25 20.363281 18.386719 C 20.316406 18.421875 20.28125 18.453125 20.246094 18.484375 L 20.300781 18.523438 C 20.472656 18.636719 20.601562 18.726562 20.871094 18.746094 C 21.105469 18.761719 21.277344 18.9375 21.257812 19.136719 C 21.242188 19.339844 21.035156 19.484375 20.800781 19.46875 C 20.296875 19.433594 20.070312 19.292969 19.796875 19.105469 C 19.351562 19.308594 18.90625 19.421875 18.46875 19.460938 C 18.023438 19.5 17.585938 19.460938 17.152344 19.347656 C 16.992188 19.304688 16.839844 19.257812 16.695312 19.199219 C 16.742188 19.464844 16.765625 19.714844 16.785156 19.949219 C 16.835938 20.527344 16.875 20.988281 17.355469 21.21875 C 17.5625 21.3125 17.632812 21.535156 17.519531 21.710938 C 17.40625 21.882812 17.148438 21.945312 16.945312 21.847656 C 16.066406 21.429688 16.007812 20.796875 15.9375 20.003906 C 15.902344 19.582031 15.855469 19.109375 15.65625 18.628906 C 15.484375 18.507812 15.324219 18.378906 15.164062 18.25 C 15.058594 18.164062 14.945312 18.074219 14.835938 17.984375 C 14.109375 17.382812 13.417969 16.816406 12.496094 16.554688 C 12.539062 16.992188 12.59375 17.429688 12.671875 17.863281 C 12.761719 18.363281 12.875 18.851562 13.027344 19.320312 C 13.210938 19.890625 13.441406 20.441406 13.757812 20.9375 C 14.070312 21.425781 14.464844 21.867188 14.988281 22.234375 C 15.132812 22.339844 15.28125 22.433594 15.441406 22.523438 C 15.59375 22.613281 15.757812 22.695312 15.929688 22.777344 C 16.5625 23.074219 17.320312 23.191406 18.113281 23.222656 C 18.929688 23.253906 19.789062 23.1875 20.589844 23.128906 L 20.597656 23.125 C 21.402344 23.023438 22.050781 22.726562 22.480469 22.164062 C 22.9375 21.566406 23.175781 20.664062 23.132812 19.375 L 23.132812 19.367188 C 23.109375 17.351562 22.691406 14.578125 21.871094 12.058594 C 21.21875 10.058594 20.316406 8.234375 19.171875 7.109375 C 18.730469 6.675781 18.230469 6.304688 17.675781 5.980469 C 17.128906 5.664062 16.523438 5.394531 15.875 5.171875 C 14.988281 4.992188 14.316406 4.992188 13.878906 5.191406 C 13.480469 5.371094 13.257812 5.753906 13.230469 6.351562 C 13.230469 7.039062 13.207031 7.96875 13.160156 8.828125 C 13.117188 9.5625 13.0625 10.246094 12.992188 10.695312 C 12.824219 11.824219 12.695312 12.636719 12.609375 13.488281 Z M 12.609375 13.488281 "/>
</g>
</svg>
