<?xml version="1.0" encoding="UTF-8"?>
<svg xmlns="http://www.w3.org/2000/svg" xmlns:xlink="http://www.w3.org/1999/xlink" width="24px" height="24px" viewBox="0 0 24 24" version="1.1">
<g id="surface1">
<path fill="currentColor" d="M 11.894531 16.929688 C 12.550781 16.929688 13.046875 16.390625 13.089844 15.734375 C 13.289062 12.847656 13.234375 10.019531 12.425781 7.355469 L 12.664062 7.355469 C 13.183594 7.355469 13.605469 6.933594 13.605469 6.414062 C 13.605469 5.894531 13.183594 5.46875 12.664062 5.46875 L 12.351562 5.46875 L 11.933594 0 L 11.535156 5.46875 L 11.222656 5.46875 C 10.703125 5.46875 10.277344 5.890625 10.277344 6.410156 C 10.277344 6.929688 10.703125 7.355469 11.222656 7.355469 L 11.363281 7.355469 C 10.753906 10.066406 10.6875 12.890625 10.695312 15.734375 C 10.699219 16.390625 11.234375 16.929688 11.894531 16.929688 Z M 13.648438 8.90625 L 22.238281 7.207031 C 22.730469 7.089844 23.144531 7.078125 23.449219 7.203125 C 23.722656 7.316406 23.90625 7.542969 23.960938 7.898438 C 24.179688 9.304688 22.875 9.933594 21.65625 10.28125 C 21.304688 10.378906 20.964844 10.457031 20.667969 10.523438 C 19.105469 10.867188 17.945312 10.816406 16.378906 10.40625 C 15.417969 10.15625 14.550781 9.839844 13.648438 9.71875 Z M 4.910156 0.945312 C 4.789062 0.757812 4.839844 0.511719 5.027344 0.390625 C 5.210938 0.269531 5.460938 0.324219 5.578125 0.507812 C 6.191406 1.445312 6.644531 2.40625 6.957031 3.363281 C 7.261719 4.304688 7.433594 5.246094 7.484375 6.171875 L 10.53125 7.777344 C 10.726562 7.878906 10.804688 8.121094 10.699219 8.316406 C 10.597656 8.511719 10.355469 8.589844 10.160156 8.484375 L 6.910156 6.773438 C 6.785156 6.710938 6.699219 6.582031 6.695312 6.433594 C 6.664062 5.507812 6.503906 4.5625 6.195312 3.613281 C 5.902344 2.714844 5.480469 1.820312 4.910156 0.945312 Z M 18.421875 0.507812 C 18.542969 0.324219 18.792969 0.269531 18.976562 0.390625 C 19.160156 0.511719 19.214844 0.761719 19.09375 0.945312 C 18.523438 1.820312 18.097656 2.714844 17.808594 3.613281 C 17.5 4.5625 17.339844 5.511719 17.304688 6.433594 C 17.300781 6.582031 17.214844 6.710938 17.09375 6.773438 L 13.84375 8.484375 C 13.648438 8.589844 13.40625 8.511719 13.300781 8.316406 C 13.199219 8.121094 13.273438 7.878906 13.46875 7.777344 L 16.515625 6.171875 C 16.570312 5.246094 16.738281 4.304688 17.046875 3.363281 C 17.359375 2.40625 17.8125 1.445312 18.421875 0.507812 Z M 13.65625 11.539062 C 13.445312 11.472656 13.328125 11.25 13.394531 11.039062 C 13.460938 10.828125 13.683594 10.707031 13.894531 10.773438 L 18.199219 12.128906 C 18.347656 12.175781 18.449219 12.300781 18.472656 12.445312 L 19.027344 15.621094 L 21.503906 17.324219 C 21.6875 17.449219 21.734375 17.695312 21.609375 17.878906 C 21.484375 18.0625 21.238281 18.109375 21.054688 17.984375 L 18.453125 16.199219 C 18.359375 16.140625 18.289062 16.042969 18.265625 15.925781 L 17.722656 12.824219 Z M 13.605469 13.339844 C 13.464844 13.167969 13.492188 12.917969 13.660156 12.777344 C 13.832031 12.636719 14.082031 12.660156 14.222656 12.832031 L 17.183594 16.4375 C 17.285156 16.5625 17.300781 16.734375 17.230469 16.871094 L 15.492188 20.324219 C 16.339844 20.660156 17.113281 21.050781 17.808594 21.503906 C 18.625 22.035156 19.339844 22.644531 19.945312 23.335938 C 20.089844 23.503906 20.074219 23.757812 19.910156 23.902344 C 19.742188 24.046875 19.488281 24.03125 19.34375 23.863281 C 18.785156 23.226562 18.128906 22.667969 17.375 22.175781 C 16.617188 21.6875 15.761719 21.269531 14.808594 20.921875 C 14.789062 20.914062 14.773438 20.90625 14.753906 20.898438 C 14.558594 20.800781 14.476562 20.558594 14.578125 20.363281 L 16.398438 16.746094 Z M 9.777344 12.828125 C 9.917969 12.660156 10.171875 12.632812 10.339844 12.773438 C 10.511719 12.914062 10.535156 13.167969 10.394531 13.335938 L 7.601562 16.742188 L 9.425781 20.359375 C 9.523438 20.558594 9.445312 20.796875 9.246094 20.898438 C 9.230469 20.90625 9.210938 20.914062 9.195312 20.917969 C 8.242188 21.265625 7.382812 21.683594 6.628906 22.175781 C 5.871094 22.664062 5.214844 23.226562 4.65625 23.863281 C 4.511719 24.027344 4.257812 24.046875 4.09375 23.898438 C 3.925781 23.753906 3.910156 23.5 4.054688 23.335938 C 4.664062 22.640625 5.375 22.03125 6.191406 21.503906 C 6.890625 21.050781 7.664062 20.65625 8.511719 20.320312 L 6.769531 16.867188 C 6.703125 16.730469 6.714844 16.558594 6.820312 16.433594 Z M 10.105469 10.773438 C 10.316406 10.707031 10.542969 10.828125 10.609375 11.039062 C 10.675781 11.25 10.554688 11.472656 10.34375 11.539062 L 6.277344 12.820312 L 5.734375 15.921875 C 5.710938 16.039062 5.640625 16.136719 5.546875 16.195312 L 2.949219 17.984375 C 2.765625 18.109375 2.515625 18.0625 2.390625 17.878906 C 2.265625 17.695312 2.3125 17.445312 2.496094 17.320312 L 4.972656 15.621094 L 5.527344 12.441406 C 5.554688 12.300781 5.65625 12.175781 5.804688 12.128906 Z M 10.355469 8.90625 L 1.765625 7.210938 C 1.273438 7.089844 0.859375 7.082031 0.554688 7.207031 C 0.28125 7.320312 0.0976562 7.546875 0.0429688 7.902344 C -0.175781 9.304688 1.128906 9.933594 2.347656 10.28125 C 2.695312 10.382812 3.039062 10.457031 3.335938 10.523438 C 4.898438 10.871094 6.058594 10.820312 7.625 10.410156 C 8.582031 10.15625 9.449219 9.84375 10.355469 9.722656 Z M 10.355469 8.90625 "/>
</g>
</svg>
