<svg xmlns="http://www.w3.org/2000/svg" version="1.1" viewBox="0 -0.27 224.84 225.64">

<path d="M0 0 C36.96 0 73.92 0 112 0 C111.67 0.66 111.34 1.32 111 2 C110.8705331 3.78886469 110.79758444 5.58198835 110.75390625 7.375 C110.70459961 8.97601562 110.70459961 8.97601562 110.65429688 10.609375 C110.59310173 12.86968936 110.53580955 15.13011276 110.48242188 17.390625 C110.44826172 18.45796875 110.41410156 19.5253125 110.37890625 20.625 C110.34132202 22.09839844 110.34132202 22.09839844 110.30297852 23.6015625 C110 26 110 26 108 28 C104.97827148 28.27124023 104.97827148 28.27124023 101.12109375 28.30859375 C99.71028289 28.33378551 98.2994757 28.35918299 96.88867188 28.38476562 C94.67278282 28.41331524 92.45695867 28.43733346 90.2409668 28.45629883 C78.26811204 28.57873166 67.99303967 29.23415291 59 38 C51.92330861 46.89686035 49.7755544 54.61985851 51 66 C52.06968407 69.21674778 53.37343178 72.17732509 54.82421875 75.23828125 C56.23637797 78.55521337 56.66984895 81.48858015 56.859375 85.0625 C57.01222942 87.16849427 57.3292185 88.99620048 58 91 C62.3534998 93.77040896 66.16421171 92.88656119 71 92 C71.33 91.67 71.66 91.34 72 91 C73.43161931 90.88816708 74.86856196 90.84329991 76.30444336 90.82641602 C77.21886703 90.81292618 78.13329071 90.79943634 79.07542419 90.78553772 C80.56756187 90.76988014 80.56756187 90.76988014 82.08984375 90.75390625 C84.17383241 90.72097314 86.25781668 90.6877614 88.34179688 90.65429688 C91.64474509 90.60680608 94.94767482 90.56237929 98.25073242 90.52319336 C101.42646023 90.4836064 104.60181773 90.43203238 107.77734375 90.37890625 C108.77007797 90.3704921 109.76281219 90.36207794 110.78562927 90.35340881 C111.70320511 90.33676682 112.62078094 90.32012482 113.56616211 90.30297852 C114.78075356 90.28751732 114.78075356 90.28751732 116.0198822 90.27174377 C118.23148071 90.17145338 118.23148071 90.17145338 120 88 C122.68839385 87.73008094 125.29141936 87.91262643 128 88 C128.33 88.99 128.66 89.98 129 91 C130.13179687 90.97679688 131.26359375 90.95359375 132.4296875 90.9296875 C133.91145175 90.91093099 135.39322312 90.89273066 136.875 90.875 C137.62136719 90.85824219 138.36773437 90.84148437 139.13671875 90.82421875 C141.09194461 90.8066041 143.04742021 90.89679811 145 91 C147 93 147 93 147.1875 95.5625 C147 98 147 98 146 99 C143.8444697 99.10297824 141.68556798 99.1357358 139.52758789 99.1418457 C138.85100128 99.14532013 138.17441467 99.14879456 137.47732544 99.15237427 C136.00189606 99.15974594 134.52645549 99.16508377 133.05101204 99.16866493 C130.70835012 99.17582497 128.36589835 99.19149237 126.02330017 99.21000671 C119.3602098 99.26246576 112.69722749 99.31035626 106.03393555 99.32592773 C101.96063439 99.33607138 97.88785172 99.36556677 93.81475639 99.40724754 C92.26842632 99.41948409 90.72202269 99.42469235 89.17564583 99.42244911 C77.27235593 99.40944379 67.70726851 100.68900192 58.6953125 109.1171875 C56.21732015 111.86924352 54.62634888 114.67953771 53 118 C52.34 117.01 51.68 116.02 51 115 C49.68 115 48.36 115 47 115 C46.505 116.98 46.505 116.98 46 119 C42.62182575 119.84454356 40.32534757 120.10844919 37 119 C37 121.64 37 124.28 37 127 C35.02 127.99 35.02 127.99 33 129 C33 130.65 33 132.3 33 134 C34.32 134.33 35.64 134.66 37 135 C37 137.97 37 140.94 37 144 C38.11375 143.814375 39.2275 143.62875 40.375 143.4375 C44 143 44 143 46 144 C46.625 146.0625 46.625 146.0625 47 148 C48.32 148 49.64 148 51 148 C51.66 146.68 52.32 145.36 53 144 C53.83905565 145.12073862 54.67107831 146.24674547 55.5 147.375 C55.9640625 148.00148437 56.428125 148.62796875 56.90625 149.2734375 C58 151 58 151 58 153 C58.5775 153.27714844 59.155 153.55429688 59.75 153.83984375 C62.63477289 155.32730477 65.29115112 157.09593345 68 158.87890625 C71.55370186 160.87092272 74.85276316 161.11744851 78.87890625 161.140625 C79.79994141 161.15996094 80.72097656 161.17929688 81.66992188 161.19921875 C83.60200181 161.23313778 85.53442097 161.25130722 87.46679688 161.25390625 C90.07011059 161.32323065 92.45941395 161.42372496 95 162 C97.02734375 164.484375 97.02734375 164.484375 98 167 C101.44741547 168.72370774 105.23035339 168.50306672 109 168 C111.50160818 166.12379387 112.61945652 164.76108697 114 162 C118.37823917 161.95061851 122.75633146 161.9142896 127.13476562 161.89013672 C128.6247032 161.88006957 130.11462097 161.86641482 131.60449219 161.84912109 C133.74419028 161.82490347 135.88362753 161.81352436 138.0234375 161.8046875 C139.31169434 161.79421387 140.59995117 161.78374023 141.92724609 161.77294922 C145 162 145 162 147 164 C147.1875 166.5625 147.1875 166.5625 147 169 C145.23803156 170.76196844 142.7032777 170.17164396 140.3125 170.2109375 C139.13816406 170.23929688 137.96382812 170.26765625 136.75390625 170.296875 C134.2826907 170.34830508 131.81131856 170.39276045 129.33984375 170.4296875 C118.8247754 170.70429211 109.94950256 172.14005984 102.18359375 179.7890625 C95.51194618 187.00391311 92.87821194 194.03008281 92.8671875 203.88671875 C92.86589844 204.98951172 92.86460938 206.09230469 92.86328125 207.22851562 C92.86714844 208.36998047 92.87101562 209.51144531 92.875 210.6875 C92.87113281 211.84056641 92.86726563 212.99363281 92.86328125 214.18164062 C92.86457031 215.28056641 92.86585937 216.37949219 92.8671875 217.51171875 C92.86887939 219.01931763 92.86887939 219.01931763 92.87060547 220.55737305 C92.83739648 223.00752032 92.83739648 223.00752032 94 225 C62.98 225 31.96 225 0 225 C0 150.75 0 76.5 0 0 Z " fill="#FCFCFC" transform="translate(0,0)" data-index="1" style="opacity: 1; visibility: hidden; fill: rgb(121, 40, 202);"/>
<path d="M0 0 C1.06734375 -0.00257812 2.1346875 -0.00515625 3.234375 -0.0078125 C4.35328125 -0.00007812 5.4721875 0.00765625 6.625 0.015625 C7.74390625 0.00789062 8.8628125 0.00015625 10.015625 -0.0078125 C11.08296875 -0.00523438 12.1503125 -0.00265625 13.25 0 C14.23226562 0.00225586 15.21453125 0.00451172 16.2265625 0.00683594 C18.625 0.265625 18.625 0.265625 20.625 2.265625 C21.08895371 6.41275259 20.94890595 10.59560987 20.9375 14.765625 C20.95361328 15.91289062 20.96972656 17.06015625 20.98632812 18.2421875 C20.99260495 29.26428651 19.05038706 38.80262927 11.625 47.265625 C2.81092028 54.99905127 -6.94600192 56.8522846 -18.375 56.265625 C-19.365 54.285625 -19.365 54.285625 -20.375 52.265625 C-23.015 52.265625 -25.655 52.265625 -28.375 52.265625 C-28.54 52.905 -28.705 53.544375 -28.875 54.203125 C-30.375 56.265625 -30.375 56.265625 -32.2890625 56.75390625 C-34.31075155 56.9932228 -36.34341939 57.13455528 -38.375 57.265625 C-38.417721 58.93174405 -38.41563832 60.59945385 -38.375 62.265625 C-36.47159885 64.16902615 -33.08654214 63.44061506 -30.56030273 63.47094727 C-29.84814606 63.48084686 -29.13598938 63.49074646 -28.4022522 63.50094604 C-26.03773372 63.53264712 -23.67319511 63.55735224 -21.30859375 63.58203125 C-19.67333948 63.60259336 -18.03809062 63.62358963 -16.40284729 63.64500427 C-12.09071214 63.70030172 -7.77852842 63.74967701 -3.46630859 63.79785156 C0.93070824 63.84801072 5.3276542 63.90372587 9.72460938 63.95898438 C18.35801307 64.06665973 26.9914759 64.16808371 35.625 64.265625 C35.625 62.615625 35.625 60.965625 35.625 59.265625 C38.70773985 58.27474433 40.54224891 58.34079967 43.625 59.265625 C44.285 59.265625 44.945 59.265625 45.625 59.265625 C45.955 57.615625 46.285 55.965625 46.625 54.265625 C47.945 54.265625 49.265 54.265625 50.625 54.265625 C50.955 55.915625 51.285 57.565625 51.625 59.265625 C52.90375 59.059375 54.1825 58.853125 55.5 58.640625 C57.6796875 58.2890625 57.6796875 58.2890625 59.625 58.265625 C60.285 58.925625 60.945 59.585625 61.625 60.265625 C61.59212417 62.99431907 61.06102229 65.5622868 60.625 68.265625 C62.275 68.595625 63.925 68.925625 65.625 69.265625 C65.295 70.915625 64.965 72.565625 64.625 74.265625 C63.305 74.595625 61.985 74.925625 60.625 75.265625 C60.955 77.905625 61.285 80.545625 61.625 83.265625 C59.15 84.255625 59.15 84.255625 56.625 85.265625 C56.78355469 85.81089844 56.94210938 86.35617188 57.10546875 86.91796875 C59.04603209 95.68698055 57.82886204 104.37747938 53.625 112.265625 C47.80397629 120.66232291 41.36075557 124.73380562 31.44534302 126.84857178 C25.37380926 127.74638907 19.21594552 127.63067082 13.08984375 127.6796875 C11.60053979 127.69842976 10.11124612 127.71800537 8.6219635 127.7383728 C4.73082581 127.78937754 0.83965381 127.82917111 -3.05163574 127.86651611 C-7.03385686 127.906756 -11.01593919 127.95775644 -14.99804688 128.0078125 C-22.79026885 128.10419613 -30.58255884 128.18871914 -38.375 128.265625 C-38.417721 129.93174405 -38.41563832 131.59945385 -38.375 133.265625 C-36.06708781 135.57353719 -30.5025504 134.72556477 -27.37890625 134.88671875 C-24.375 135.265625 -24.375 135.265625 -22.375 137.265625 C-19.71962628 137.83082503 -17.08355287 138.00350698 -14.375 138.265625 C-14.045 137.275625 -13.715 136.285625 -13.375 135.265625 C-6.98876677 135.18914905 -0.60265298 135.13684738 5.78393555 135.10083008 C7.9535768 135.08580464 10.12318798 135.06537847 12.29272461 135.03930664 C15.4230901 135.00264794 18.5530517 134.98583574 21.68359375 134.97265625 C22.64333603 134.95717239 23.60307831 134.94168854 24.59190369 134.92573547 C35.1293161 134.92314092 43.02555824 137.87277001 50.625 145.265625 C57.10339239 153.28874355 58.61215541 162.15360999 57.625 172.265625 C55.73945841 181.13244399 51.19519752 188.59388431 43.5390625 193.640625 C41.58536982 194.65864111 39.69270797 195.50694128 37.625 196.265625 C36.27619751 196.77222656 36.27619751 196.77222656 34.90014648 197.2890625 C31.51223566 198.29924836 28.69405703 198.5637256 25.16796875 198.64453125 C23.97365234 198.67869141 22.77933594 198.71285156 21.54882812 198.74804688 C20.31583984 198.77447266 19.08285156 198.80089844 17.8125 198.828125 C15.34755168 198.88775062 12.88269461 198.95132668 10.41796875 199.01953125 C8.78637817 199.05542358 8.78637817 199.05542358 7.12182617 199.09204102 C4.68482933 198.98700797 4.68482933 198.98700797 3.625 200.265625 C3.46735595 202.04432226 3.37399323 203.82880976 3.30859375 205.61328125 C3.26669922 206.69287109 3.22480469 207.77246094 3.18164062 208.88476562 C3.14232422 210.02107422 3.10300781 211.15738281 3.0625 212.328125 C2.99772461 214.03838867 2.99772461 214.03838867 2.93164062 215.78320312 C2.82517161 218.61054695 2.72315793 221.43798238 2.625 224.265625 C-1.49362291 226.32493645 -6.84859045 225.45051762 -11.375 225.453125 C-12.49390625 225.46537109 -13.6128125 225.47761719 -14.765625 225.49023438 C-16.36664063 225.49313477 -16.36664063 225.49313477 -18 225.49609375 C-19.47339844 225.50225708 -19.47339844 225.50225708 -20.9765625 225.50854492 C-23.375 225.265625 -23.375 225.265625 -25.375 223.265625 C-25.83755378 219.2856067 -25.69891314 215.26935508 -25.6875 211.265625 C-25.70361328 210.16605469 -25.71972656 209.06648437 -25.73632812 207.93359375 C-25.74278326 197.05022876 -23.86675209 188.40502856 -16.375 180.265625 C-9.11638197 173.05605169 -2.16717283 170.28716628 8.01953125 169.94921875 C9.82260742 169.88637695 9.82260742 169.88637695 11.66210938 169.82226562 C12.90798828 169.78294922 14.15386719 169.74363281 15.4375 169.703125 C16.70271484 169.65994141 17.96792969 169.61675781 19.27148438 169.57226562 C22.38921889 169.4663803 25.50703035 169.36430095 28.625 169.265625 C28.667721 167.59950595 28.66563832 165.93179615 28.625 164.265625 C26.71280415 162.35342915 23.28854496 163.02127202 20.74609375 162.94921875 C19.71610008 162.9180471 19.71610008 162.9180471 18.66529846 162.88624573 C16.46447065 162.82068357 14.26352025 162.76183485 12.0625 162.703125 C10.57355486 162.65994608 9.08462227 162.616332 7.59570312 162.57226562 C3.93893447 162.4649957 0.28202682 162.36374728 -3.375 162.265625 C-3.643125 163.049375 -3.91125 163.833125 -4.1875 164.640625 C-5.375 167.265625 -5.375 167.265625 -8.375 169.265625 C-11.44063972 169.81101034 -14.30865202 169.80800879 -17.375 169.265625 C-20.4375 166.890625 -20.4375 166.890625 -22.375 164.265625 C-22.375 163.605625 -22.375 162.945625 -22.375 162.265625 C-23.26638672 162.28919067 -23.26638672 162.28919067 -24.17578125 162.31323242 C-26.90875454 162.37619069 -29.64157455 162.41480595 -32.375 162.453125 C-33.30957031 162.47826172 -34.24414062 162.50339844 -35.20703125 162.52929688 C-44.81653807 162.6300959 -52.3506298 160.02040317 -59.375 153.265625 C-61.27652648 150.71030491 -62.88884795 148.08073994 -64.375 145.265625 C-65.365 147.245625 -65.365 147.245625 -66.375 149.265625 C-68.025 148.935625 -69.675 148.605625 -71.375 148.265625 C-71.375 146.945625 -71.375 145.625625 -71.375 144.265625 C-74.345 144.595625 -77.315 144.925625 -80.375 145.265625 C-81.32524979 141.57020914 -81.32524979 138.96104086 -80.375 135.265625 C-82.025 134.935625 -83.675 134.605625 -85.375 134.265625 C-85.375 132.615625 -85.375 130.965625 -85.375 129.265625 C-83.395 128.275625 -83.395 128.275625 -81.375 127.265625 C-81.375 124.625625 -81.375 121.985625 -81.375 119.265625 C-78.29226015 118.27474433 -76.45775109 118.34079967 -73.375 119.265625 C-72.715 119.265625 -72.055 119.265625 -71.375 119.265625 C-71.045 117.615625 -70.715 115.965625 -70.375 114.265625 C-65.5 115.140625 -65.5 115.140625 -64.375 116.265625 C-64.0346875 115.75773437 -63.694375 115.24984375 -63.34375 114.7265625 C-57.96999796 107.09469126 -51.64416556 101.50825273 -42.375 99.265625 C-36.94035538 98.79187146 -31.51320796 98.77585409 -26.0625 98.75390625 C-24.48208234 98.73703975 -22.90167793 98.71888689 -21.32128906 98.69950867 C-17.18516177 98.65221611 -13.04908824 98.62227318 -8.91278076 98.59606934 C-4.68263131 98.56615847 -0.45266671 98.51966458 3.77734375 98.47460938 C12.05980456 98.38881262 20.34228259 98.32136302 28.625 98.265625 C28.667721 96.59950595 28.66563832 94.93179615 28.625 93.265625 C26.39450297 91.03512797 20.51600791 91.8595093 17.3515625 91.74804688 C15.43813467 91.65652009 13.52987161 91.46822648 11.625 91.265625 C11.295 90.605625 10.965 89.945625 10.625 89.265625 C6.6149066 89.08697869 6.6149066 89.08697869 2.625 89.265625 C1.965 89.925625 1.305 90.585625 0.625 91.265625 C-1.33493042 91.53063965 -1.33493042 91.53063965 -3.76123047 91.55273438 C-4.66912323 91.56614868 -5.57701599 91.57956299 -6.51242065 91.59338379 C-7.49574371 91.59866089 -8.47906677 91.60393799 -9.4921875 91.609375 C-10.50088898 91.6239978 -11.50959045 91.63862061 -12.54885864 91.65368652 C-15.78253204 91.70030727 -19.0161431 91.73443332 -22.25 91.765625 C-26.49762479 91.80672901 -30.74481394 91.86041885 -34.9921875 91.921875 C-36.4610994 91.92979065 -36.4610994 91.92979065 -37.95968628 91.93786621 C-38.87388336 91.95128052 -39.78808044 91.96469482 -40.72998047 91.97851562 C-41.93338577 91.98945251 -41.93338577 91.98945251 -43.16110229 92.00061035 C-45.61599002 92.29447271 -47.18579731 93.15964303 -49.375 94.265625 C-53.37522687 94.12275975 -55.61832729 93.88291063 -58.75 91.328125 C-61.12683292 88.31137553 -61.36666923 87.39475195 -61.625 83.390625 C-62.0093151 79.30646287 -63.18109603 76.27399476 -64.9375 72.578125 C-68.3504856 64.72426633 -68.94488459 57.21135163 -66.3359375 48.9921875 C-62.29175058 40.02267796 -55.68365604 32.8621512 -46.375 29.265625 C-42.21413569 28.23047416 -38.20077961 28.08346764 -33.921875 27.984375 C-33.22104797 27.96596558 -32.52022095 27.94755615 -31.79815674 27.92858887 C-28.81480493 27.85022191 -25.83124985 27.78182756 -22.84765625 27.71337891 C-20.66394352 27.66181377 -18.48043356 27.60454795 -16.296875 27.546875 C-14.34152832 27.50143555 -14.34152832 27.50143555 -12.34667969 27.45507812 C-9.49070208 27.60155555 -9.49070208 27.60155555 -8.375 26.265625 C-8.24159985 24.5096587 -8.17156524 22.74879068 -8.12890625 20.98828125 C-8.07959961 19.38243164 -8.07959961 19.38243164 -8.02929688 17.74414062 C-7.96820659 15.47080203 -7.91090136 13.1973585 -7.85742188 10.92382812 C-7.82326172 9.85197266 -7.78910156 8.78011719 -7.75390625 7.67578125 C-7.71632202 6.19283569 -7.71632202 6.19283569 -7.67797852 4.67993164 C-7.06248644 -0.22466238 -4.24946604 0.00975927 0 0 Z " fill="#FA8086" transform="translate(117.375,-0.265625)" data-index="2"/>
<path d="M0 0 C0.75603516 -0.03738281 1.51207031 -0.07476562 2.29101562 -0.11328125 C6.43660952 -0.17799998 9.02343535 0.10808479 12.30078125 2.7734375 C14.98999824 5.55884732 15.69750485 6.36304268 16.125 10.125 C15.72735635 14.26049396 14.47126389 16.21322672 11.8125 19.375 C7.7972271 21.47634167 4.35942549 21.62095243 -0.12988281 21.61450195 C-0.80865982 21.61651611 -1.48743683 21.61853027 -2.18678284 21.62060547 C-3.65450891 21.62413876 -5.12225024 21.62339899 -6.58997345 21.61882973 C-8.92016473 21.61321001 -11.24986308 21.62243931 -13.58001709 21.6360321 C-20.20294385 21.67304186 -26.82570305 21.69173553 -33.44873047 21.68041992 C-37.50722365 21.67453848 -41.56502322 21.69297595 -45.62337494 21.72630882 C-47.16217865 21.73421663 -48.7010589 21.73304902 -50.23984528 21.72228432 C-60.63339129 21.65272284 -68.00037069 22.55837992 -75.8125 29.8125 C-77.58689309 33.11932349 -77.04307485 34.79714152 -76.1875 38.375 C-76.5175 39.365 -76.8475 40.355 -77.1875 41.375 C-76.8575 42.035 -76.5275 42.695 -76.1875 43.375 C-74.16286745 44.02713292 -74.16286745 44.02713292 -72.1875 44.375 C-72.1875 46.025 -72.1875 47.675 -72.1875 49.375 C-74.6625 49.87 -74.6625 49.87 -77.1875 50.375 C-77.40606484 57.3931372 -77.40606484 57.3931372 -74.55078125 63.59375 C-67.75776971 69.70099085 -61.16116338 70.68016879 -52.3125 71 C-51.43335938 71.03867188 -50.55421875 71.07734375 -49.6484375 71.1171875 C-47.49511207 71.21081034 -45.34133586 71.29396459 -43.1875 71.375 C-42.89230469 70.57707031 -42.59710938 69.77914062 -42.29296875 68.95703125 C-41.1875 66.375 -41.1875 66.375 -39.5 65.0625 C-36.14989654 64.0665233 -33.67215987 63.9544376 -30.1875 64.375 C-27.74288421 65.81395328 -26.20438075 67.30892704 -24.1875 69.375 C-24.1875 70.035 -24.1875 70.695 -24.1875 71.375 C-23.21925293 71.34881592 -22.25100586 71.32263184 -21.25341797 71.2956543 C-17.64183904 71.20477075 -14.03035997 71.1476145 -10.41796875 71.1003418 C-8.85822521 71.07528373 -7.2985981 71.04122699 -5.73925781 70.99780273 C-3.48994157 70.93675807 -1.2421844 70.90870574 1.0078125 70.88671875 C1.6986795 70.86091232 2.38954651 70.8351059 3.10134888 70.80851746 C6.94733987 70.80631753 9.30026239 71.40167152 12.23779297 73.78051758 C14.99700779 76.56092493 15.69324045 77.32551598 16.125 81.125 C15.73003151 85.23267229 14.4067368 87.20426614 11.8125 90.375 C8.39323126 92.64778543 5.40222137 92.62735133 1.359375 92.6484375 C0.09996094 92.6690625 -1.15945312 92.6896875 -2.45703125 92.7109375 C-5.09498804 92.7368252 -7.73303075 92.7551461 -10.37109375 92.765625 C-18.7951471 92.92019479 -24.56548399 93.47943051 -31.17578125 99.05078125 C-31.61277344 99.59089844 -32.04976563 100.13101563 -32.5 100.6875 C-32.94988281 101.21988281 -33.39976563 101.75226563 -33.86328125 102.30078125 C-38.29186262 109.2375857 -38.69908073 115.21518732 -38.875 123.3125 C-38.90916016 124.37791016 -38.94332031 125.44332031 -38.97851562 126.54101562 C-39.06047436 129.15198672 -39.12567613 131.76347456 -39.1875 134.375 C-34.2375 134.375 -29.2875 134.375 -24.1875 134.375 C-24.24550781 132.92867187 -24.30351563 131.48234375 -24.36328125 129.9921875 C-24.41019375 128.07815736 -24.45569231 126.16409221 -24.5 124.25 C-24.54189453 123.29867187 -24.58378906 122.34734375 -24.62695312 121.3671875 C-24.76512908 113.40825249 -24.76512908 113.40825249 -21.85546875 109.7578125 C-17.95406633 106.27339745 -15.17424992 106.25670939 -10.12109375 106.234375 C-8.91259766 106.21503906 -7.70410156 106.19570312 -6.45898438 106.17578125 C-3.93049461 106.14229132 -1.40175704 106.12372645 1.12695312 106.12109375 C9.81393999 105.94634229 17.47328802 104.87804887 23.74584961 98.36865234 C28.53961502 92.45955395 30.37010055 86.609173 30.1875 79.03125 C29.17248405 71.84155372 25.36992905 66.18223825 19.8515625 61.62890625 C13.33484955 57.62150231 8.06941577 56.92497105 0.5390625 56.8984375 C-0.42528717 56.88285797 -1.38963684 56.86727844 -2.38320923 56.85122681 C-5.44296549 56.80393896 -8.50249523 56.77600161 -11.5625 56.75 C-14.64377076 56.71352958 -17.72491241 56.67299905 -20.80606079 56.62734985 C-22.71904923 56.60007801 -24.63213303 56.57874647 -26.54525757 56.56381226 C-27.40350128 56.55355011 -28.261745 56.54328796 -29.14599609 56.53271484 C-29.90431732 56.52621918 -30.66263855 56.51972351 -31.44393921 56.51303101 C-33.1875 56.375 -33.1875 56.375 -34.1875 55.375 C-34.22813832 53.70882885 -34.230221 52.04111905 -34.1875 50.375 C-27.80126677 50.29852405 -21.41515298 50.24622238 -15.02856445 50.21020508 C-12.8589232 50.19517964 -10.68931202 50.17475347 -8.51977539 50.14868164 C-5.3894099 50.11202294 -2.2594483 50.09521074 0.87109375 50.08203125 C1.83083603 50.06654739 2.79057831 50.05106354 3.77940369 50.03511047 C14.3168161 50.03251592 22.21305824 52.98214501 29.8125 60.375 C36.29089239 68.39811855 37.79965541 77.26298499 36.8125 87.375 C34.92695841 96.24181899 30.38269752 103.70325931 22.7265625 108.75 C20.77286982 109.76801611 18.88020797 110.61631628 16.8125 111.375 C15.46369751 111.88160156 15.46369751 111.88160156 14.08764648 112.3984375 C10.69973566 113.40862336 7.88155703 113.6731006 4.35546875 113.75390625 C2.56399414 113.80514648 2.56399414 113.80514648 0.73632812 113.85742188 C-0.49666016 113.88384766 -1.72964844 113.91027344 -3 113.9375 C-5.46494832 113.99712562 -7.92980539 114.06070168 -10.39453125 114.12890625 C-12.02612183 114.16479858 -12.02612183 114.16479858 -13.69067383 114.20141602 C-16.12767067 114.09638297 -16.12767067 114.09638297 -17.1875 115.375 C-17.34514405 117.15369726 -17.43850677 118.93818476 -17.50390625 120.72265625 C-17.54580078 121.80224609 -17.58769531 122.88183594 -17.63085938 123.99414062 C-17.67017578 125.13044922 -17.70949219 126.26675781 -17.75 127.4375 C-17.81477539 129.14776367 -17.81477539 129.14776367 -17.88085938 130.89257812 C-17.98732839 133.71992195 -18.08934207 136.54735738 -18.1875 139.375 C-22.30612291 141.43431145 -27.66109045 140.55989262 -32.1875 140.5625 C-33.30640625 140.57474609 -34.4253125 140.58699219 -35.578125 140.59960938 C-37.17914063 140.60250977 -37.17914063 140.60250977 -38.8125 140.60546875 C-40.28589844 140.61163208 -40.28589844 140.61163208 -41.7890625 140.61791992 C-44.1875 140.375 -44.1875 140.375 -46.1875 138.375 C-46.65005378 134.3949817 -46.51141314 130.37873008 -46.5 126.375 C-46.51611328 125.27542969 -46.53222656 124.17585938 -46.54882812 123.04296875 C-46.55528326 112.15960376 -44.67925209 103.51440356 -37.1875 95.375 C-29.92888197 88.16542669 -22.97967283 85.39654128 -12.79296875 85.05859375 C-11.59091797 85.01669922 -10.38886719 84.97480469 -9.15039062 84.93164062 C-7.90451172 84.89232422 -6.65863281 84.85300781 -5.375 84.8125 C-4.10978516 84.76931641 -2.84457031 84.72613281 -1.54101562 84.68164062 C1.57671889 84.5757553 4.69453035 84.47367595 7.8125 84.375 C7.855221 82.70888095 7.85313832 81.04117115 7.8125 79.375 C5.90030415 77.46280415 2.47604496 78.13064702 -0.06640625 78.05859375 C-1.09639992 78.0274221 -1.09639992 78.0274221 -2.14720154 77.99562073 C-4.34802935 77.93005857 -6.54897975 77.87120985 -8.75 77.8125 C-10.23894514 77.76932108 -11.72787773 77.725707 -13.21679688 77.68164062 C-16.87356553 77.5743707 -20.53047318 77.47312228 -24.1875 77.375 C-24.455625 78.15875 -24.72375 78.9425 -25 79.75 C-26.1875 82.375 -26.1875 82.375 -29.1875 84.375 C-32.25313972 84.92038534 -35.12115202 84.91738379 -38.1875 84.375 C-41.25 82 -41.25 82 -43.1875 79.375 C-43.1875 78.715 -43.1875 78.055 -43.1875 77.375 C-43.78175781 77.39071045 -44.37601563 77.4064209 -44.98828125 77.42260742 C-47.72125454 77.48556569 -50.45407455 77.52418095 -53.1875 77.5625 C-54.12207031 77.58763672 -55.05664062 77.61277344 -56.01953125 77.63867188 C-65.62903807 77.7394709 -73.1631298 75.12977817 -80.1875 68.375 C-82.08902648 65.81967991 -83.70134795 63.19011494 -85.1875 60.375 C-85.8475 61.695 -86.5075 63.015 -87.1875 64.375 C-88.8375 64.045 -90.4875 63.715 -92.1875 63.375 C-92.1875 62.055 -92.1875 60.735 -92.1875 59.375 C-96.6425 59.87 -96.6425 59.87 -101.1875 60.375 C-102.13774979 56.67958414 -102.13774979 54.07041586 -101.1875 50.375 C-102.8375 50.045 -104.4875 49.715 -106.1875 49.375 C-106.1875 47.725 -106.1875 46.075 -106.1875 44.375 C-104.8675 43.715 -103.5475 43.055 -102.1875 42.375 C-102.1875 39.735 -102.1875 37.095 -102.1875 34.375 C-99.10476015 33.38411933 -97.27025109 33.45017467 -94.1875 34.375 C-93.5275 34.375 -92.8675 34.375 -92.1875 34.375 C-91.8575 32.725 -91.5275 31.075 -91.1875 29.375 C-86.3125 30.25 -86.3125 30.25 -85.1875 31.375 C-84.8471875 30.86710937 -84.506875 30.35921875 -84.15625 29.8359375 C-78.78249796 22.20406626 -72.45666556 16.61762773 -63.1875 14.375 C-57.75285538 13.90124646 -52.32570796 13.88522909 -46.875 13.86328125 C-45.29458234 13.84641475 -43.71417793 13.82826189 -42.13378906 13.80888367 C-37.99766177 13.76159111 -33.86158824 13.73164818 -29.72528076 13.70544434 C-25.49513131 13.67553347 -21.26516671 13.62903958 -17.03515625 13.58398438 C-8.75269544 13.49818762 -0.47021741 13.43073802 7.8125 13.375 C7.855221 11.70888095 7.85313832 10.04117115 7.8125 8.375 C5.75327598 6.31577598 1.59541876 6.96072421 -1.25 6.8125 C-2.00861328 6.76931641 -2.76722656 6.72613281 -3.54882812 6.68164062 C-5.42815438 6.57526367 -7.30780244 6.47460066 -9.1875 6.375 C-9.230221 4.70888095 -9.22813832 3.04117115 -9.1875 1.375 C-7.09197518 -0.72052482 -2.87143017 0.05251161 0 0 Z " fill="#0D0808" transform="translate(138.1875,84.625)" data-index="3" style="opacity: 1;"/>
<path d="M0 0 C0.66 0.33 1.32 0.66 2 1 C1.01 2.485 1.01 2.485 0 4 C-0.63512789 8.92224114 -0.76733593 10.88387501 2.0625 15 C7.1150189 18.62117578 15.14744291 17.84007996 21 17 C21.66 16.01 22.32 15.02 23 14 C25.64 14.33 28.28 14.66 31 15 C31.33 14.34 31.66 13.68 32 13 C32.495 14.98 32.495 14.98 33 17 C34.28052246 17.00410889 35.56104492 17.00821777 36.88037109 17.01245117 C41.67048373 17.03436471 46.45978917 17.0887803 51.24951172 17.15258789 C53.31518772 17.17566176 55.38097959 17.19013848 57.44677734 17.19555664 C60.43138969 17.20492409 63.41420597 17.24608399 66.3984375 17.29296875 C67.30927094 17.2890361 68.22010437 17.28510345 69.15853882 17.28105164 C76.85270925 17.45276782 83.41306178 19.70718695 89.15170288 24.9752655 C94.10505666 30.24465302 97.07574973 35.54955711 97.4375 42.875 C97.17335671 50.77528561 93.68266717 57.56440532 88 63 C80.19680223 68.32234511 72.91730342 68.68307952 63.6875 68.625 C61.21220534 68.625 58.7368711 68.63751931 56.26171875 68.6640625 C55.17850342 68.65842285 54.09528809 68.6527832 52.97924805 68.64697266 C49.56575604 69.05145593 47.74073397 69.95515903 45 72 C42.87719437 75.18420845 42.71980463 76.20537255 42.5859375 79.88671875 C42.54726562 80.82451172 42.50859375 81.76230469 42.46875 82.72851562 C42.4378125 83.70498047 42.406875 84.68144531 42.375 85.6875 C42.33632812 86.67556641 42.29765625 87.66363281 42.2578125 88.68164062 C42.16354601 91.1207861 42.0806841 93.56036747 42 96 C37.05 96 32.1 96 27 96 C26.86378709 92.37370966 26.76529864 88.75263923 26.6875 85.125 C26.64560547 84.11179687 26.60371094 83.09859375 26.56054688 82.0546875 C26.4230624 73.4756564 28.48641683 67.15241647 34.0625 60.5625 C35.0215625 59.7890625 35.0215625 59.7890625 36 59 C36.639375 58.46375 37.27875 57.9275 37.9375 57.375 C42.43487668 54.37674888 46.29397193 53.74853916 51.65625 53.69140625 C52.92597656 53.66626953 54.19570312 53.64113281 55.50390625 53.61523438 C58.16792007 53.58007877 60.8319883 53.54882857 63.49609375 53.52148438 C64.76582031 53.49505859 66.03554687 53.46863281 67.34375 53.44140625 C69.07915039 53.42122437 69.07915039 53.42122437 70.84960938 53.40063477 C74.31256708 52.96025089 76.20267949 52.04785806 79 50 C81.32402951 46.79062591 81.47570691 43.88493979 81 40 C79.20006226 37.30009338 77.916227 35.4581135 75 34 C72.56785535 33.90403834 70.15904549 33.86294986 67.7265625 33.859375 C66.24738042 33.84104786 64.76821332 33.82147763 63.2890625 33.80078125 C60.9561232 33.77180369 58.62414664 33.74999982 56.29101562 33.74951172 C54.03949498 33.74617543 51.79019693 33.71162362 49.5390625 33.671875 C48.84414703 33.6789447 48.14923157 33.6860144 47.43325806 33.69329834 C45.45166016 33.64355469 45.45166016 33.64355469 42 33 C39.65380859 30.52050781 39.65380859 30.52050781 38 28 C34.46791898 26.23395949 30.54499458 26.87473017 26.6875 27.1875 C24.13843688 28.41482669 23.93640512 30.43613095 23 33 C0.28032929 33.83205305 0.28032929 33.83205305 -8.5625 26.125 C-11.314219 22.59715512 -11.48126861 21.33141747 -11 17 C-11.33 16.01 -11.66 15.02 -12 14 C-11.67 13.34 -11.34 12.68 -11 12 C-10.360625 11.896875 -9.72125 11.79375 -9.0625 11.6875 C-8.0415625 11.3471875 -8.0415625 11.3471875 -7 11 C-5.70339566 8.50965614 -5.70339566 8.50965614 -5 6 C-4.01 6 -3.02 6 -2 6 C-1.855625 5.195625 -1.71125 4.39125 -1.5625 3.5625 C-1 1 -1 1 0 0 Z " fill="#F88086" transform="translate(72,123)" data-index="4" style="opacity: 1;"/>
<path d="M0 0 C1 1 1 1 1.125 3.5 C1 6 1 6 0 7 C-2.65463121 7.45459858 -5.32189138 7.70243238 -8 8 C-8.042721 9.66611905 -8.04063832 11.33382885 -8 13 C-6.09659885 14.90340115 -2.71154214 14.17499006 -0.18530273 14.20532227 C0.52685394 14.21522186 1.23901062 14.22512146 1.9727478 14.23532104 C4.33726628 14.26702212 6.70180489 14.29172724 9.06640625 14.31640625 C10.70166052 14.33696836 12.33690938 14.35796463 13.97215271 14.37937927 C18.28428786 14.43467672 22.59647158 14.48405201 26.90869141 14.53222656 C31.30570824 14.58238572 35.7026542 14.63810087 40.09960938 14.69335938 C48.73301307 14.80103473 57.3664759 14.90245871 66 15 C66 13.35 66 11.7 66 10 C69.08273985 9.00911933 70.91724891 9.07517467 74 10 C74.66 10 75.32 10 76 10 C76.33 8.35 76.66 6.7 77 5 C78.32 5 79.64 5 81 5 C81.495 7.475 81.495 7.475 82 10 C83.27875 9.79375 84.5575 9.5875 85.875 9.375 C88.0546875 9.0234375 88.0546875 9.0234375 90 9 C90.99 9.99 90.99 9.99 92 11 C91.96712417 13.72869407 91.43602229 16.2966618 91 19 C92.65 19.33 94.3 19.66 96 20 C95.505 22.475 95.505 22.475 95 25 C93.68 25.33 92.36 25.66 91 26 C91.495 29.96 91.495 29.96 92 34 C90.35 34.66 88.7 35.32 87 36 C87.15855469 36.54527344 87.31710938 37.09054688 87.48046875 37.65234375 C89.42103209 46.42135555 88.20386204 55.11185438 84 63 C78.17897629 71.39669791 71.73575557 75.46818062 61.82034302 77.58294678 C55.74880926 78.48076407 49.59094552 78.36504582 43.46484375 78.4140625 C41.97553979 78.43280476 40.48624612 78.45238037 38.9969635 78.4727478 C35.10582581 78.52375254 31.21465381 78.56354611 27.32336426 78.60089111 C23.34114314 78.641131 19.35906081 78.69213144 15.37695312 78.7421875 C7.58473115 78.83857113 -0.20755884 78.92309414 -8 79 C-8.042721 80.66611905 -8.04063832 82.33382885 -8 84 C-6.12175109 85.87824891 -2.96064724 85.39102397 -0.4375 85.5625 C1.35880859 85.68818359 1.35880859 85.68818359 3.19140625 85.81640625 C4.11824219 85.87699219 5.04507813 85.93757813 6 86 C6.38218767 87.65614657 6.71395102 89.32457024 7 91 C4.69387084 93.30612916 -0.08572836 92.42964254 -3.19165039 92.453125 C-7.25954171 92.35180523 -10.17471241 91.99268866 -13.4375 89.5 C-15.64806182 87.09003183 -16.4648874 85.19630117 -16.6875 81.9375 C-15.94266899 77.6716497 -15.06987245 75.98216181 -12 73 C-8.33382134 70.55588089 -6.5788098 70.7543159 -2.20874023 70.76049805 C-1.522108 70.75848389 -0.83547577 70.75646973 -0.1280365 70.75439453 C1.36318624 70.75084984 2.854424 70.75161513 4.345644 70.75617027 C6.7137537 70.76177161 9.08137496 70.75258917 11.44944763 70.7389679 C18.18254643 70.70189126 24.91548359 70.68324064 31.64868164 70.69458008 C35.7697076 70.70046776 39.89005171 70.68198822 44.01093864 70.64869118 C45.57403595 70.64078817 47.1372086 70.6419443 48.70028877 70.65271568 C58.45592442 70.71699954 66.76832923 70.20853135 74.59889221 63.66362 C79.45371435 58.53674586 81.1658708 51.81558483 81.1875 44.9375 C81.125625 43.638125 81.06375 42.33875 81 41 C79.35 40.34 77.7 39.68 76 39 C76 37.68 76 36.36 76 35 C72.95613276 34.91773332 70.92824652 35.02391783 68 36 C67.34 35.67 66.68 35.34 66 35 C66.103125 33.741875 66.20625 32.48375 66.3125 31.1875 C66.39645994 29.00066054 66.39645994 29.00066054 66 27 C63.59141286 25.1375562 63.59141286 25.1375562 61 24 C61 23.01 61 22.02 61 21 C59.70453751 21.01665459 59.70453751 21.01665459 58.38290405 21.03364563 C50.23211634 21.13395385 42.08153681 21.21001872 33.93027306 21.25906086 C29.73986797 21.28512208 25.54997414 21.32045533 21.35986328 21.37719727 C17.31385928 21.43164299 13.26834609 21.46144668 9.22200394 21.47438622 C7.68062237 21.48360375 6.13926677 21.50160404 4.59809494 21.52865028 C2.43379053 21.56511117 0.27149717 21.56993877 -1.89306641 21.56762695 C-3.73839462 21.58428154 -3.73839462 21.58428154 -5.6210022 21.60127258 C-10.13599999 20.79785555 -11.76904578 19.207122 -15 16 C-16.18155794 13.32247815 -16.25925869 10.90487582 -16 8 C-12.75360996 0.31118149 -7.76617248 -0.81915004 0 0 Z " fill="#080403" transform="translate(87,49)" data-index="5"/>
<path d="M0 0 C1.06734375 -0.00257812 2.1346875 -0.00515625 3.234375 -0.0078125 C4.35328125 -0.00007812 5.4721875 0.00765625 6.625 0.015625 C7.74390625 0.00789062 8.8628125 0.00015625 10.015625 -0.0078125 C11.08296875 -0.00523438 12.1503125 -0.00265625 13.25 0 C14.23226562 0.00225586 15.21453125 0.00451172 16.2265625 0.00683594 C18.625 0.265625 18.625 0.265625 20.625 2.265625 C21.08895371 6.41275259 20.94890595 10.59560987 20.9375 14.765625 C20.95361328 15.91289062 20.96972656 17.06015625 20.98632812 18.2421875 C20.99260495 29.26428651 19.05038706 38.80262927 11.625 47.265625 C3.478033 54.41373015 -5.58597138 56.64776854 -16.22265625 56.46875 C-18.375 56.265625 -18.375 56.265625 -19.375 55.265625 C-19.5 52.765625 -19.5 52.765625 -19.375 50.265625 C-17.56834104 48.45896604 -14.6910601 49.00739553 -12.25 48.890625 C-3.99706442 48.27862978 1.77721991 46.06584023 7.82421875 40.37109375 C15.69662564 31.1666961 14.02423782 18.58845324 13.625 7.265625 C8.675 6.935625 3.725 6.605625 -1.375 6.265625 C-1.31699219 7.86792969 -1.25898437 9.47023438 -1.19921875 11.12109375 C-1.15231546 13.23174169 -1.10681592 15.34242115 -1.0625 17.453125 C-1.02060547 18.50822266 -0.97871094 19.56332031 -0.93554688 20.65039062 C-0.81175813 28.49859713 -0.81175813 28.49859713 -3.70703125 32.44140625 C-8.04560324 35.40789691 -11.72224642 35.39881456 -16.7890625 35.40625 C-18.28777544 35.42459187 -19.78647375 35.44416344 -21.28515625 35.46484375 C-23.63517781 35.49367537 -25.9842634 35.51562171 -28.33447266 35.51611328 C-38.59082613 35.53128861 -46.72814989 35.86835943 -54.49609375 43.29296875 C-59.18554946 50.09754989 -61.29982713 55.94218085 -60.375 64.265625 C-59.64920651 67.21851084 -58.71275523 69.49102155 -57.375 72.265625 C-54.36677758 73.47301268 -54.36677758 73.47301268 -51 73.078125 C-46.72433294 73.29928019 -45.35352358 74.28710142 -42.375 77.265625 C-41.375 79.265625 -41.375 79.265625 -41.375 85.265625 C-27.515 85.265625 -13.655 85.265625 0.625 85.265625 C0.955 86.915625 1.285 88.565625 1.625 90.265625 C0.06215732 91.82846768 -1.4750213 91.41346942 -3.64770508 91.43920898 C-4.55567337 91.45269882 -5.46364166 91.46618866 -6.39912415 91.48008728 C-7.88185066 91.49574486 -7.88185066 91.49574486 -9.39453125 91.51171875 C-11.46940519 91.54466179 -13.54427488 91.57787336 -15.61914062 91.61132812 C-18.90434793 91.65874045 -22.18953856 91.70314937 -25.47485352 91.74243164 C-28.63576677 91.78213623 -31.79631737 91.8336927 -34.95703125 91.88671875 C-35.9394429 91.8951329 -36.92185455 91.90354706 -37.93403625 91.91221619 C-38.85146103 91.92885818 -39.7688858 91.94550018 -40.71411133 91.96264648 C-41.51939774 91.97295395 -42.32468414 91.98326141 -43.15437317 91.99388123 C-45.60940867 92.29431019 -47.18470947 93.15965113 -49.375 94.265625 C-53.37522687 94.12275975 -55.61832729 93.88291063 -58.75 91.328125 C-61.12683292 88.31137553 -61.36666923 87.39475195 -61.625 83.390625 C-62.0093151 79.30646287 -63.18109603 76.27399476 -64.9375 72.578125 C-68.3504856 64.72426633 -68.94488459 57.21135163 -66.3359375 48.9921875 C-62.29175058 40.02267796 -55.68365604 32.8621512 -46.375 29.265625 C-42.21413569 28.23047416 -38.20077961 28.08346764 -33.921875 27.984375 C-33.22104797 27.96596558 -32.52022095 27.94755615 -31.79815674 27.92858887 C-28.81480493 27.85022191 -25.83124985 27.78182756 -22.84765625 27.71337891 C-20.66394352 27.66181377 -18.48043356 27.60454795 -16.296875 27.546875 C-14.34152832 27.50143555 -14.34152832 27.50143555 -12.34667969 27.45507812 C-9.49070208 27.60155555 -9.49070208 27.60155555 -8.375 26.265625 C-8.24159985 24.5096587 -8.17156524 22.74879068 -8.12890625 20.98828125 C-8.09603516 19.91771484 -8.06316406 18.84714844 -8.02929688 17.74414062 C-7.96820659 15.47080203 -7.91090136 13.1973585 -7.85742188 10.92382812 C-7.82326172 9.85197266 -7.78910156 8.78011719 -7.75390625 7.67578125 C-7.71632202 6.19283569 -7.71632202 6.19283569 -7.67797852 4.67993164 C-7.06248644 -0.22466238 -4.24946604 0.00975927 0 0 Z " fill="#0B0606" transform="translate(117.375,-0.265625)" data-index="6"/>
<path d="M0 0 C2.47923801 -0.02685095 4.9581884 -0.04676547 7.4375 -0.0625 C8.14455078 -0.07087891 8.85160156 -0.07925781 9.58007812 -0.08789062 C11.38693559 -0.09653588 13.19387603 -0.05220011 15 0 C17.59800625 2.59800625 16.31192336 9.65003993 16.31469727 13.13745117 C16.17968779 22.10799205 14.89196492 29.29740069 8.5625 36 C1.26512716 42.51773899 -4.55936118 43.11485559 -14.1015625 43.42578125 C-17.12658989 43.673813 -17.12658989 43.673813 -18.3984375 46.04296875 C-18.59695312 46.68878906 -18.79546875 47.33460937 -19 48 C-19 47.34 -19 46.68 -19 46 C-21.64 46 -24.28 46 -27 46 C-27.495 46.99 -27.495 46.99 -28 48 C-28.33 46.68 -28.66 45.36 -29 44 C-33.47062807 43.6493625 -36.9251683 43.46258415 -41 45.5 C-43.69713738 48.87142172 -44.30665694 51.71532111 -44 56 C-42.42569236 59.62090756 -41.31117074 60.79255284 -38 63 C-34.86483072 63.33042688 -34.86483072 63.33042688 -31.23364258 63.31884766 C-30.20886055 63.33391609 -30.20886055 63.33391609 -29.16337585 63.34928894 C-26.90710281 63.38015886 -24.65094863 63.39716632 -22.39453125 63.4140625 C-20.82939122 63.43277112 -19.26426131 63.45234431 -17.69914246 63.4727478 C-13.58104412 63.52410748 -9.46291306 63.56371256 -5.34466553 63.60089111 C-1.14180381 63.64090679 3.06092137 63.69201022 7.26367188 63.7421875 C15.50902136 63.83899217 23.75443834 63.92338231 32 64 C31.505 65.485 31.505 65.485 31 67 C30.34 66.67 29.68 66.34 29 66 C26.8452107 65.90817917 24.68750282 65.88249538 22.53076172 65.88647461 C21.86722687 65.88632858 21.20369202 65.88618256 20.52005005 65.8860321 C18.32322947 65.88672969 16.1264933 65.89451486 13.9296875 65.90234375 C12.40796963 65.90420848 10.88625116 65.90563212 9.36453247 65.90663147 C5.35648953 65.91045233 1.34848274 65.92027896 -2.6595459 65.93133545 C-6.74828604 65.94155882 -10.83703201 65.94613108 -14.92578125 65.95117188 C-22.95053744 65.9619016 -30.97526422 65.97897287 -39 66 C-39 69.63 -39 73.26 -39 77 C-37.77369873 76.98952637 -36.54739746 76.97905273 -35.28393555 76.96826172 C-30.73855503 76.93208896 -26.19318727 76.90910943 -21.64770508 76.89013672 C-19.67958436 76.88007293 -17.71147862 76.86642066 -15.7434082 76.84912109 C-12.91614082 76.82488941 -10.08907095 76.81352077 -7.26171875 76.8046875 C-6.38037766 76.79436493 -5.49903656 76.78404236 -4.59098816 76.77340698 C-3.77036392 76.77325592 -2.94973969 76.77310486 -2.10424805 76.77294922 C-1.38254929 76.768508 -0.66085052 76.76406677 0.0827179 76.75949097 C2 77 2 77 5 79 C5 79.66 5 80.32 5 81 C6.98 81 8.96 81 11 81 C11.495 79.515 11.495 79.515 12 78 C17.94 78 23.88 78 30 78 C30 78.33 30 78.66 30 79 C28.30230469 79.05607422 28.30230469 79.05607422 26.5703125 79.11328125 C25.08850795 79.17893082 23.60673861 79.24537851 22.125 79.3125 C21.37863281 79.33505859 20.63226563 79.35761719 19.86328125 79.38085938 C17.900396 79.47811945 15.94671678 79.73042294 14 80 C13.34 80.99 12.68 81.98 12 83 C9.8359375 83.29296875 9.8359375 83.29296875 7.375 83.1875 C6.55773437 83.16042969 5.74046875 83.13335937 4.8984375 83.10546875 C4.27195312 83.07066406 3.64546875 83.03585938 3 83 C2.67 82.01 2.34 81.02 2 80 C-11.86 79.67 -25.72 79.34 -40 79 C-40.66 76.36 -41.32 73.72 -42 71 C-43.44148975 68.81452316 -43.44148975 68.81452316 -46 68 C-47.50099356 68.03040687 -49.00146164 68.0964558 -50.5 68.1875 C-52.875 68.27734375 -52.875 68.27734375 -55 68 C-59.50301479 63.04668373 -60.37314147 57.91590642 -60.27734375 51.43359375 C-59.47869343 44.42571845 -55.43418918 37.4669035 -50 33 C-42.29577344 27.67148375 -33.81278381 28.43090501 -24.8125 28.4375 C-22.49218892 28.43388168 -20.17261945 28.42427734 -17.85246277 28.39674377 C-16.41677691 28.3800651 -14.98084625 28.37699319 -13.54512024 28.38975525 C-8.01105253 28.33155389 -4.86952887 26.86952887 -1 23 C-0.62904292 20.57753405 -0.62904292 20.57753405 -0.5859375 17.7734375 C-0.54726562 16.7421875 -0.50859375 15.7109375 -0.46875 14.6484375 C-0.4378125 13.56820313 -0.406875 12.48796875 -0.375 11.375 C-0.33632812 10.28703125 -0.29765625 9.1990625 -0.2578125 8.078125 C-0.16333753 5.38558835 -0.07777569 2.69306243 0 0 Z " fill="#F47F86" transform="translate(116,6)" data-index="7"/>
<path d="M0 0 C0.66 0.33 1.32 0.66 2 1 C1.01 2.485 1.01 2.485 0 4 C-0.63512789 8.92224114 -0.76733593 10.88387501 2.0625 15 C7.1150189 18.62117578 15.14744291 17.84007996 21 17 C21.66 16.01 22.32 15.02 23 14 C25.64 14.33 28.28 14.66 31 15 C31.33 14.34 31.66 13.68 32 13 C32.495 14.98 32.495 14.98 33 17 C34.28052246 17.00410889 35.56104492 17.00821777 36.88037109 17.01245117 C41.67048373 17.03436471 46.45978917 17.0887803 51.24951172 17.15258789 C53.31518772 17.17566176 55.38097959 17.19013848 57.44677734 17.19555664 C60.43138969 17.20492409 63.41420597 17.24608399 66.3984375 17.29296875 C67.30927094 17.2890361 68.22010437 17.28510345 69.15853882 17.28105164 C76.85270925 17.45276782 83.41306178 19.70718695 89.15170288 24.9752655 C94.10505666 30.24465302 97.07574973 35.54955711 97.4375 42.875 C97.17335671 50.77528561 93.68266717 57.56440532 88 63 C79.636281 68.26302317 79.636281 68.26302317 75.69140625 67.62890625 C75.13324219 67.42136719 74.57507813 67.21382813 74 67 C74.7425 66.278125 75.485 65.55625 76.25 64.8125 C83.00200288 57.9070425 85.27327551 52.33822339 85.375 42.5625 C85.25432051 34.41261171 83.74637203 30.00184849 78.3125 24.0625 C77.549375 23.381875 76.78625 22.70125 76 22 C75.67 21.67 75.34 21.34 75 21 C71.97192956 20.8396444 68.96414546 20.74039552 65.93359375 20.68359375 C65.02497086 20.66281265 64.11634796 20.64203156 63.18019104 20.62062073 C60.26604054 20.55502328 57.35179696 20.4961932 54.4375 20.4375 C52.46678709 20.39432446 50.49608374 20.35071049 48.52539062 20.30664062 C43.68369012 20.19933157 38.84189563 20.09809325 34 20 C34 20.66 34 21.32 34 22 C34.66 22 35.32 22 36 22 C36 22.66 36 23.32 36 24 C38.46326712 25.6446674 38.46326712 25.6446674 41 27 C40.34 27.66 39.68 28.32 39 29 C38.01 28.34 37.02 27.68 36 27 C30.35296561 26.59029255 30.35296561 26.59029255 25 28 C24.28620202 29.64703208 23.61582208 31.31388453 23 33 C0.28032929 33.83205305 0.28032929 33.83205305 -8.5625 26.125 C-11.314219 22.59715512 -11.48126861 21.33141747 -11 17 C-11.33 16.01 -11.66 15.02 -12 14 C-11.67 13.34 -11.34 12.68 -11 12 C-10.360625 11.896875 -9.72125 11.79375 -9.0625 11.6875 C-8.0415625 11.3471875 -8.0415625 11.3471875 -7 11 C-5.70339566 8.50965614 -5.70339566 8.50965614 -5 6 C-4.01 6 -3.02 6 -2 6 C-1.855625 5.195625 -1.71125 4.39125 -1.5625 3.5625 C-1 1 -1 1 0 0 Z " fill="#F57F85" transform="translate(72,123)" data-index="8"/>
<path d="M0 0 C6.38623323 -0.07647595 12.77234702 -0.12877762 19.15893555 -0.16479492 C21.3285768 -0.17982036 23.49818798 -0.20024653 25.66772461 -0.22631836 C28.7980901 -0.26297706 31.9280517 -0.27978926 35.05859375 -0.29296875 C36.01833603 -0.30845261 36.97807831 -0.32393646 37.96690369 -0.33988953 C48.5043161 -0.34248408 56.40055824 2.60714501 64 10 C70.47839239 18.02311855 71.98715541 26.88798499 71 37 C69.24516608 45.25216206 65.35554561 51.47193953 59 57 C53.36252625 60.62767919 48.23462491 62.12775848 41.58203125 62.09765625 C40.32841797 62.09443359 39.07480469 62.09121094 37.78320312 62.08789062 C36.47287109 62.07951172 35.16253906 62.07113281 33.8125 62.0625 C32.47721519 62.05748317 31.14192859 62.05292059 29.80664062 62.04882812 C26.53771527 62.03702695 23.26888009 62.02056297 20 62 C19.67 61.01 19.34 60.02 19 59 C20.75162874 57.24837126 23.23084517 57.84953388 25.609375 57.82421875 C27.33027344 57.78844727 27.33027344 57.78844727 29.0859375 57.75195312 C31.51284656 57.70926229 33.93998261 57.67786191 36.3671875 57.65820312 C37.51960938 57.63048828 38.67203125 57.60277344 39.859375 57.57421875 C41.44443848 57.55234497 41.44443848 57.55234497 43.06152344 57.5300293 C46.67293031 56.87861983 48.32081042 55.44750735 51 53 C52.35359034 52.08248252 53.7077181 51.16575715 55.0625 50.25 C60.15836804 46.47136578 62.04214599 41.87356203 64 36 C64.99213496 28.27552066 63.39465911 22.4093391 59 16 C54.67597243 11.12134657 49.24677197 7.54064814 42.68112183 6.70478821 C40.02650348 6.5759426 37.38428317 6.5328021 34.7265625 6.5234375 C33.28003799 6.50006821 33.28003799 6.50006821 31.80429077 6.47622681 C28.74453451 6.42893896 25.68500477 6.40100161 22.625 6.375 C19.54372924 6.33852958 16.46258759 6.29799905 13.38143921 6.25234985 C11.46845077 6.22507801 9.55536697 6.20374647 7.64224243 6.18881226 C6.78399872 6.17855011 5.925755 6.16828796 5.04150391 6.15771484 C3.90402206 6.14797134 3.90402206 6.14797134 2.74356079 6.13803101 C1 6 1 6 0 5 C-0.04063832 3.33382885 -0.042721 1.66611905 0 0 Z " fill="#090303" transform="translate(104,135)" data-index="9"/>
<path d="M0 0 C7.18550648 0.53891299 12.55589842 4.13447617 17.3125 9.375 C21.75254658 15.0006721 23.59024855 20.3064296 23.3515625 27.4453125 C22.41014985 34.2862444 18.94997985 40.26523667 14 45 C5.636281 50.26302317 5.636281 50.26302317 1.69140625 49.62890625 C1.13324219 49.42136719 0.57507813 49.21382812 0 49 C0.7425 48.278125 1.485 47.55625 2.25 46.8125 C9.00200288 39.9070425 11.27327551 34.33822339 11.375 24.5625 C11.25626757 16.54410316 9.8698396 12.00649863 4.375 6.25 C3.59125 5.5075 2.8075 4.765 2 4 C0.6875 1.6875 0.6875 1.6875 0 0 Z " fill="#F1646F" transform="translate(146,141)" data-index="10"/>
<path d="M0 0 C3.6815625 -0.0309375 3.6815625 -0.0309375 7.4375 -0.0625 C8.21150146 -0.071604 8.98550293 -0.08070801 9.78295898 -0.09008789 C11.52221717 -0.09724913 13.26145304 -0.05024702 15 0 C17.59800625 2.59800625 16.31192336 9.65003993 16.31469727 13.13745117 C16.17968779 22.10799205 14.89196492 29.29740069 8.5625 36 C3.13806294 40.80384468 -0.83094247 42.39245275 -8 43 C-7 40 -7 40 -4.75 38.8125 C-0.18402648 35.80310836 2.29086785 31.12739644 4 26 C4.14939774 24.08234406 4.24810283 22.16053478 4.31640625 20.23828125 C4.35830078 19.12001953 4.40019531 18.00175781 4.44335938 16.84960938 C4.48267578 15.68236328 4.52199219 14.51511719 4.5625 13.3125 C4.60568359 12.13365234 4.64886719 10.95480469 4.69335938 9.74023438 C4.79951176 6.82694117 4.90156242 3.91356243 5 1 C3.68 1 2.36 1 1 1 C1 7.6 1 14.2 1 21 C0.67 21 0.34 21 0 21 C0 14.07 0 7.14 0 0 Z " fill="#F96571" transform="translate(116,6)" data-index="11"/>
<path d="M0 0 C1.6396875 0.2475 1.6396875 0.2475 3.3125 0.5 C7.80793634 1.23959637 7.80793634 1.23959637 12 0 C15.95562822 -0.25797575 18.59659693 -0.09440189 22 2 C22.66 1.34 23.32 0.68 24 0 C27.95158471 -0.34361606 30.60535554 -0.08901197 34 2 C34.99 1.34 35.98 0.68 37 0 C39.6875 -0.125 39.6875 -0.125 42 0 C43.125 3.75 43.125 3.75 42 6 C35.95785671 10.06682721 35.95785671 10.06682721 32.3125 9.8125 C31.549375 9.544375 30.78625 9.27625 30 9 C27.94074861 8.27617533 27.94074861 8.27617533 26 8 C25.01 8.66 24.02 9.32 23 10 C19.37316225 10.37198336 17.12649899 9.85274014 14 8 C13.01 8.66 12.02 9.32 11 10 C8.5 10.3125 8.5 10.3125 6 10 C4.375 8.5625 4.375 8.5625 3 7 C2.01 6.67 1.02 6.34 0 6 C-0.75 4.0625 -0.75 4.0625 -1 2 C-0.67 1.34 -0.34 0.68 0 0 Z " fill="#0B0B0B" transform="translate(182,127)" data-index="12" style="opacity: 1;"/>
<path d="M0 0 C1.67542976 0.28604898 3.34385343 0.61781233 5 1 C5.061875 1.61875 5.12375 2.2375 5.1875 2.875 C5.828919 5.27761141 5.828919 5.27761141 8.5625 6.25 C9.366875 6.4975 10.17125 6.745 11 7 C11.56287934 15.72462983 9.59037769 21.96205831 4.875 29.3125 C0.53485418 33.36959283 -4.74225155 36.84616188 -10.8125 37.1328125 C-11.534375 37.08898437 -12.25625 37.04515625 -13 37 C-13 36.34 -13 35.68 -13 35 C-12.360625 34.71125 -11.72125 34.4225 -11.0625 34.125 C-8.84793921 33.17176549 -8.84793921 33.17176549 -8 31 C-7.34 31 -6.68 31 -6 31 C-6 30.34 -6 29.68 -6 29 C-5.34 29 -4.68 29 -4 29 C-0.38372875 19.72347811 0.66974499 10.83134335 -1 1 C-0.67 0.67 -0.34 0.34 0 0 Z " fill="#F5646F" transform="translate(158,83)" data-index="13"/>
<path d="M0 0 C2.93453261 0.36681658 3.86437246 0.86437246 6 3 C6.125 5.625 6.125 5.625 6 8 C7.3921875 8.1546875 7.3921875 8.1546875 8.8125 8.3125 C12 9 12 9 13.875 10.25 C15.37422891 12.58213386 15.22023906 14.28371825 15 17 C15.763125 16.938125 16.52625 16.87625 17.3125 16.8125 C20 17 20 17 21.8125 18.125 C23.49106106 20.77535957 23.20450238 22.93246424 23 26 C23.94875 25.95875 24.8975 25.9175 25.875 25.875 C29 26 29 26 31 28 C30.625 30.625 30.625 30.625 30 33 C21.96125041 32.65646369 21.96125041 32.65646369 18.4375 30.25 C16.74434842 27.59984971 16.6568889 26.08799987 17 23 C15.88625 22.896875 14.7725 22.79375 13.625 22.6875 C11.830625 22.3471875 11.830625 22.3471875 10 22 C7.8480563 18.77208445 7.79913557 17.71599191 8 14 C6.6078125 14.12375 6.6078125 14.12375 5.1875 14.25 C2 14 2 14 0.1875 12.5 C-1.51704906 8.91147566 -1.80736844 5.98105216 -2 2 C-1.34 1.34 -0.68 0.68 0 0 Z " fill="#0B0B0B" transform="translate(184,147)" data-index="14" style="opacity: 1;"/>
<path d="M0 0 C0.495 1.98 0.495 1.98 1 4 C-2.06117568 6.62386487 -2.73173127 7 -7 7 C-6.938125 7.763125 -6.87625 8.52625 -6.8125 9.3125 C-7 12 -7 12 -8.125 13.8125 C-10.77535957 15.49106106 -12.93246424 15.20450238 -16 15 C-15.938125 15.928125 -15.87625 16.85625 -15.8125 17.8125 C-16 21 -16 21 -17.1875 22.875 C-19.56036279 24.34781139 -21.25913944 24.22223194 -24 24 C-23.938125 24.763125 -23.87625 25.52625 -23.8125 26.3125 C-24 29 -24 29 -25.25 30.875 C-27 32 -27 32 -29.1875 31.6875 C-29.785625 31.460625 -30.38375 31.23375 -31 31 C-32.60461448 26.98846379 -31.45438973 23.92685226 -30 20 C-26.77208445 17.8480563 -25.71599191 17.79913557 -22 18 C-21.896875 16.88625 -21.79375 15.7725 -21.6875 14.625 C-21.460625 13.42875 -21.23375 12.2325 -21 11 C-17.77208445 8.8480563 -16.71599191 8.79913557 -13 9 C-12.896875 7.88625 -12.79375 6.7725 -12.6875 5.625 C-12.460625 4.42875 -12.23375 3.2325 -12 2 C-7.89783794 -0.73477471 -4.73617773 -1.57872591 0 0 Z " fill="#0B0B0B" transform="translate(44,78)" data-index="15"/>
<path d="M0 0 C1.76024081 0.4400602 3.51478165 0.90729439 5.25 1.4375 C5.8275 1.540625 6.405 1.64375 7 1.75 C7.66 1.09 8.32 0.43 9 -0.25 C14.56246192 -0.12358041 17.09892558 2.12757375 21 5.75 C20.67 7.07 20.34 8.39 20 9.75 C14.375 10 14.375 10 11 7.75 C10.01 8.41 9.02 9.07 8 9.75 C4.03952054 10.08706208 1.40322874 9.84429461 -2 7.75 C-2.66 8.41 -3.32 9.07 -4 9.75 C-7.95158471 10.09361606 -10.60535554 9.83901197 -14 7.75 C-14.66 8.41 -15.32 9.07 -16 9.75 C-19.125 9.875 -19.125 9.875 -22 9.75 C-23.125 6 -23.125 6 -22 3.75 C-17.98880248 0.68261366 -14.98885232 0.28806923 -10 0.75 C-9.01 1.41 -8.02 2.07 -7 2.75 C-6.46375 2.234375 -5.9275 1.71875 -5.375 1.1875 C-3 -0.25 -3 -0.25 0 0 Z " fill="#0A0A0A" transform="translate(23,54.25)" data-index="16"/>
<path d="M0 0 C2.125 0.375 2.125 0.375 4 1 C5.60372657 5.00931642 4.38691773 8.05823382 3 12 C1 14 1 14 -2.125 14.125 C-3.07375 14.08375 -4.0225 14.0425 -5 14 C-5.103125 15.11375 -5.20625 16.2275 -5.3125 17.375 C-5.539375 18.57125 -5.76625 19.7675 -6 21 C-9.22791555 23.1519437 -10.28400809 23.20086443 -14 23 C-14.1546875 24.670625 -14.1546875 24.670625 -14.3125 26.375 C-14.539375 27.57125 -14.76625 28.7675 -15 30 C-18.90898316 32.60598877 -21.33080658 32.70354328 -26 33 C-26.66 32.34 -27.32 31.68 -28 31 C-27.46428571 27.46428571 -27.46428571 27.46428571 -26 26 C-24.00041636 25.95919217 -21.99954746 25.95745644 -20 26 C-20.061875 25.071875 -20.12375 24.14375 -20.1875 23.1875 C-20 20 -20 20 -18.875 18.125 C-16.21965017 16.5317901 -14.03210482 16.79785968 -11 17 C-11.0928125 15.6078125 -11.0928125 15.6078125 -11.1875 14.1875 C-11 11 -11 11 -9.8125 9.125 C-7.43963721 7.65218861 -5.74086056 7.77776806 -3 8 C-2.87625 7.05125 -2.7525 6.1025 -2.625 5.125 C-2 2 -2 2 0 0 Z " fill="#080808" transform="translate(208,81)" data-index="17" style="opacity: 1;"/>
<path d="M0 0 C1.79398884 0.25499841 3.58520875 0.52953814 5.375 0.8125 C6.87160156 1.03873047 6.87160156 1.03873047 8.3984375 1.26953125 C11 2 11 2 13 5 C13.125 7.6875 13.125 7.6875 13 10 C14.11375 10.103125 15.2275 10.20625 16.375 10.3125 C18.169375 10.6528125 18.169375 10.6528125 20 11 C22.1519437 14.22791555 22.20086443 15.28400809 22 19 C23.11375 19.103125 24.2275 19.20625 25.375 19.3125 C27.169375 19.6528125 27.169375 19.6528125 29 20 C31.13586678 23.20380017 31.23132175 24.01939967 31.125 27.6875 C31.10695312 28.49574219 31.08890625 29.30398437 31.0703125 30.13671875 C31.04710937 30.75160156 31.02390625 31.36648437 31 32 C29.109375 32.5703125 29.109375 32.5703125 27 33 C25.25 31.875 25.25 31.875 24 30 C23.8125 27.3125 23.8125 27.3125 24 25 C23.236875 25.061875 22.47375 25.12375 21.6875 25.1875 C19 25 19 25 17.1875 23.875 C15.50893894 21.22464043 15.79549762 19.06753576 16 16 C15.071875 16.061875 14.14375 16.12375 13.1875 16.1875 C10 16 10 16 8.125 14.875 C6.5317901 12.21965017 6.79785968 10.03210482 7 7 C6.05125 7.04125 5.1025 7.0825 4.125 7.125 C1 7 1 7 -1 5 C-0.625 2.375 -0.625 2.375 0 0 Z " fill="#070707" transform="translate(11,11)" data-index="18"/>
<path d="M0 0 C0.433125 0.495 0.86625 0.99 1.3125 1.5 C2.99740483 3.33218192 2.99740483 3.33218192 6 3 C5.979375 3.969375 5.95875 4.93875 5.9375 5.9375 C5.64381501 8.87465895 5.64381501 8.87465895 7 10 C9.18292774 10.23481693 11.37203174 10.41363323 13.5625 10.5625 C14.76003906 10.64628906 15.95757812 10.73007813 17.19140625 10.81640625 C18.11824219 10.87699219 19.04507813 10.93757812 20 11 C20.38218767 12.65614657 20.71395102 14.32457024 21 16 C18.69387084 18.30612916 13.91427164 17.42964254 10.80834961 17.453125 C6.74045829 17.35180523 3.82528759 16.99268866 0.5625 14.5 C-1.72370769 12.03206811 -2.42628613 10.16212278 -2.5625 6.8125 C-2 3 -2 3 0 0 Z " fill="#100606" transform="translate(73,124)" data-index="19"/>
<path d="M0 0 C23.43 0 46.86 0 71 0 C67.54487927 2.30341382 66.15806657 2.27263894 62.07910156 2.3347168 C60.25140228 2.36936287 60.25140228 2.36936287 58.38677979 2.40470886 C57.06804871 2.41939713 55.74931763 2.43408539 54.390625 2.44921875 C53.02161586 2.47048387 51.65261747 2.49245168 50.28363037 2.51509094 C47.41211801 2.56049792 44.54061753 2.59927817 41.66894531 2.63305664 C38.00271176 2.67643682 34.33684277 2.73319133 30.67087173 2.7946043 C27.84150833 2.84100541 25.01208558 2.88170123 22.18260956 2.92057228 C20.17804008 2.94869386 18.1735216 2.98037843 16.16900635 3.01213074 C10.33435907 3.07678143 4.74005657 3.10398064 -1 2 C-0.67 1.34 -0.34 0.68 0 0 Z " fill="#371719" transform="translate(78,120)" data-index="20"/>
<path d="M0 0 C1.875 1.0625 1.875 1.0625 3 3 C3.4375 6.5 3.4375 6.5 3 10 C1.4375 12 1.4375 12 -1 13 C-4.625 12.875 -4.625 12.875 -8 12 C-10 9 -10 9 -9.8125 5.4375 C-8.46874872 -0.24760157 -5.31129528 -0.55325992 0 0 Z " fill="#B5DD77" transform="translate(169,65)" data-index="21"/>
<path d="M0 0 C1.875 1.0625 1.875 1.0625 3 3 C3.63316583 8.90954774 3.63316583 8.90954774 1.875 11.9375 C-0.93512264 13.52990283 -2.82764724 13.45319325 -6 13 C-8.4375 11.375 -8.4375 11.375 -10 9 C-9.93498241 5.81413804 -9.51914046 3.81969546 -7.8125 1.125 C-5.09975061 -0.55877549 -3.12124489 -0.39015561 0 0 Z " fill="#BBEC67" transform="translate(52,125)" data-index="22"/>
<path d="M0 0 C0.33 0.66 0.66 1.32 1 2 C2.22630127 1.98952637 3.45260254 1.97905273 4.71606445 1.96826172 C9.26144497 1.93208896 13.80681273 1.90910943 18.35229492 1.89013672 C20.32041564 1.88007293 22.28852138 1.86642066 24.2565918 1.84912109 C27.08385918 1.82488941 29.91092905 1.81352077 32.73828125 1.8046875 C33.61962234 1.79436493 34.50096344 1.78404236 35.40901184 1.77340698 C36.22963608 1.77325592 37.05026031 1.77310486 37.89575195 1.77294922 C38.61745071 1.768508 39.33914948 1.76406677 40.0827179 1.75949097 C42 2 42 2 45 4 C45 4.66 45 5.32 45 6 C46.98 6 48.96 6 51 6 C51.33 5.01 51.66 4.02 52 3 C57.94 3 63.88 3 70 3 C70 3.33 70 3.66 70 4 C68.30230469 4.05607422 68.30230469 4.05607422 66.5703125 4.11328125 C65.08850795 4.17893082 63.60673861 4.24537851 62.125 4.3125 C61.00544922 4.34633789 61.00544922 4.34633789 59.86328125 4.38085938 C57.900396 4.47811945 55.94671678 4.73042294 54 5 C53.34 5.99 52.68 6.98 52 8 C49.8359375 8.29296875 49.8359375 8.29296875 47.375 8.1875 C46.55773437 8.16042969 45.74046875 8.13335937 44.8984375 8.10546875 C44.27195313 8.07066406 43.64546875 8.03585938 43 8 C42.505 6.515 42.505 6.515 42 5 C28.14 4.67 14.28 4.34 0 4 C0 2.68 0 1.36 0 0 Z " fill="#D37C82" transform="translate(76,81)" data-index="23"/>
<path d="M0 0 C3.6815625 -0.0309375 3.6815625 -0.0309375 7.4375 -0.0625 C8.21150146 -0.071604 8.98550293 -0.08070801 9.78295898 -0.09008789 C11.52221717 -0.09724913 13.26145304 -0.05024702 15 0 C17.26375419 2.26375419 16.18535789 7.58748908 16.1875 10.625 C16.19974609 11.51574219 16.21199219 12.40648437 16.22460938 13.32421875 C16.23630654 18.61913376 15.73579838 22.99156991 14 28 C13.67 28 13.34 28 13 28 C13.33 19.42 13.66 10.84 14 2 C11.03 2 8.06 2 5 2 C3.68 1.67 2.36 1.34 1 1 C1 7.6 1 14.2 1 21 C0.67 21 0.34 21 0 21 C0 14.07 0 7.14 0 0 Z " fill="#A94B54" transform="translate(116,6)" data-index="24"/>
<path d="M0 0 C0.33 0 0.66 0 1 0 C0.67 7.92 0.34 15.84 0 24 C3.96 24 7.92 24 12 24 C12.33 18.39 12.66 12.78 13 7 C13.33 7 13.66 7 14 7 C14 13.27 14 19.54 14 26 C9.05 26 4.1 26 -1 26 C-1.0269135 22.22911927 -1.04679714 18.45842968 -1.0625 14.6875 C-1.07087891 13.61564453 -1.07925781 12.54378906 -1.08789062 11.43945312 C-1.09111328 10.41142578 -1.09433594 9.38339844 -1.09765625 8.32421875 C-1.10289307 7.37635498 -1.10812988 6.42849121 -1.11352539 5.4519043 C-1 3 -1 3 0 0 Z " fill="#C27378" transform="translate(100,193)" data-index="25" style="opacity: 1;"/>
<path d="M0 0 C0.99 0 1.98 0 3 0 C1.25 3.875 1.25 3.875 -1 5 C-3.1547893 5.09182083 -5.31249718 5.11750462 -7.46923828 5.11352539 C-8.46454056 5.11374443 -8.46454056 5.11374443 -9.47994995 5.1139679 C-11.67677053 5.11327031 -13.8735067 5.10548514 -16.0703125 5.09765625 C-17.59203037 5.09579152 -19.11374884 5.09436788 -20.63546753 5.09336853 C-24.64351047 5.08954767 -28.65151726 5.07972104 -32.6595459 5.06866455 C-36.74828604 5.05844118 -40.83703201 5.05386892 -44.92578125 5.04882812 C-52.95053744 5.0380984 -60.97526422 5.02102713 -69 5 C-69 4.67 -69 4.34 -69 4 C-34.845 3.505 -34.845 3.505 0 3 C0 2.01 0 1.02 0 0 Z " fill="#150101" transform="translate(149,100)" data-index="26"/>
<path d="M0 0 C0.66 1.32 1.32 2.64 2 4 C22.295 4.495 22.295 4.495 43 5 C43 5.33 43 5.66 43 6 C28.81 6 14.62 6 0 6 C-0.33 5.01 -0.66 4.02 -1 3 C-3.97 3.66 -6.94 4.32 -10 5 C-9.34 3.68 -8.68 2.36 -8 1 C-5.36 1.33 -2.72 1.66 0 2 C0 1.34 0 0.68 0 0 Z " fill="#D4888C" transform="translate(103,136)" data-index="27"/>
<path d="M0 0 C0.66 0 1.32 0 2 0 C2.48176187 6.3833448 2.48176187 6.3833448 0.4375 9 C-2.96372991 10.39537637 -5.4655107 9.74768043 -9 9 C-9 8.01 -9 7.02 -9 6 C-6.92446352 5.4465236 -5.15634036 5 -3 5 C-3 4.34 -3 3.68 -3 3 C-2.34 3 -1.68 3 -1 3 C-0.67 2.01 -0.34 1.02 0 0 Z " fill="#A1DA3C" transform="translate(170,68)" data-index="28"/>
<path d="M0 0 C0.66 0.33 1.32 0.66 2 1 C2.36103152 7.3782235 2.36103152 7.3782235 0.875 9.9375 C-1.785027 11.44484863 -4.00206205 11.19986253 -7 11 C-7 8 -7 8 -4.625 5.5 C-3.75875 4.675 -2.8925 3.85 -2 3 C-1.34 2.01 -0.68 1.02 0 0 Z " fill="#A3DD3F" transform="translate(53,127)" data-index="29"/>
<path d="M0 0 C3.53571429 0.53571429 3.53571429 0.53571429 5 2 C5.04063832 3.66617115 5.042721 5.33388095 5 7 C0.25 8.125 0.25 8.125 -2 7 C-2.125 4.625 -2.125 4.625 -2 2 C-1.34 1.34 -0.68 0.68 0 0 Z " fill="#B7DC77" transform="translate(103,155)" data-index="30"/>
<path d="M0 0 C0.78375 0.04125 1.5675 0.0825 2.375 0.125 C3 2.5 3 2.5 3.375 5.125 C2.715 5.785 2.055 6.445 1.375 7.125 C-1.25 6.75 -1.25 6.75 -3.625 6.125 C-4.25 4.25 -4.25 4.25 -4.625 2.125 C-2.625 0.125 -2.625 0.125 0 0 Z " fill="#BCE081" transform="translate(66.625,79.875)" data-index="31"/>
<path d="M0 0 C-4.83323235 4.14277059 -8.53597935 6.36937261 -15 6 C-15 5.34 -15 4.68 -15 4 C-9.77228537 0.95842058 -6.07328688 -0.50610724 0 0 Z " fill="#E86775" transform="translate(160,114)" data-index="32"/>
<path d="M0 0 C0.66 0.33 1.32 0.66 2 1 C1.67 2.65 1.34 4.3 1 6 C-5.28571429 8.42857143 -5.28571429 8.42857143 -9 7 C-6.3991542 4.12049214 -4.78271103 2.78262987 -1 2 C-0.67 1.34 -0.34 0.68 0 0 Z " fill="#E96871" transform="translate(117,41)" data-index="33"/>
<path d="M0 0 C2.33470194 1.45473803 4.01170253 3.06019759 6 5 C5.67 5.66 5.34 6.32 5 7 C4.13375 6.154375 3.2675 5.30875 2.375 4.4375 C-0.11120098 2.3783406 -0.69346934 2.00625573 -4.0625 1.9375 C-7.33447248 3.12097941 -9.44047339 4.66631397 -12 7 C-12 4 -12 4 -10.625 2.375 C-7.20003371 -0.5230484 -4.40487148 -0.44048715 0 0 Z " fill="#1E0303" transform="translate(108,149)" data-index="34"/>
<path d="M0 0 C0.66 0.33 1.32 0.66 2 1 C1.67 1.99 1.34 2.98 1 4 C0.01 4 -0.98 4 -2 4 C-2.9300889 6.7902667 -3.18698769 8.76529542 -3.31640625 11.66796875 C-3.35830078 12.56064453 -3.40019531 13.45332031 -3.44335938 14.37304688 C-3.48267578 15.30181641 -3.52199219 16.23058594 -3.5625 17.1875 C-3.60568359 18.12787109 -3.64886719 19.06824219 -3.69335938 20.03710938 C-3.79938665 22.35792854 -3.90145029 24.67885325 -4 27 C-4.33 27 -4.66 27 -5 27 C-5.14611313 23.62546102 -5.23433467 20.25174234 -5.3125 16.875 C-5.3753418 15.44800781 -5.3753418 15.44800781 -5.43945312 13.9921875 C-5.52099931 9.29512752 -5.5749747 6.03371964 -2.48046875 2.3203125 C-1.66191406 1.55460938 -0.84335938 0.78890625 0 0 Z " fill="#160202" transform="translate(119,192)" data-index="35" style="opacity: 1;"/>
<path d="M0 0 C0 0.99 0 1.98 0 3 C-1.65 2.67 -3.3 2.34 -5 2 C-5 2.66 -5 3.32 -5 4 C-5.99 4.495 -5.99 4.495 -7 5 C-7.65555119 7.52733235 -7.65555119 7.52733235 -8 10 C-8.66 9.67 -9.32 9.34 -10 9 C-9.40425532 3.63829787 -9.40425532 3.63829787 -7.8125 1.125 C-5.19985125 -0.49664405 -3.00479298 -0.20031953 0 0 Z " fill="#B2D276" transform="translate(52,125)" data-index="36"/>
<path d="M0 0 C0.66 0 1.32 0 2 0 C2 8.25 2 16.5 2 25 C1.01 25.33 0.02 25.66 -1 26 C-0.75552124 24.91972534 -0.75552124 24.91972534 -0.50610352 23.81762695 C-0.01903597 21.10597883 0.11452642 18.66780647 0.09765625 15.91796875 C0.09443359 14.98662109 0.09121094 14.05527344 0.08789062 13.09570312 C0.07951172 12.13599609 0.07113281 11.17628906 0.0625 10.1875 C0.05798828 9.20845703 0.05347656 8.22941406 0.04882812 7.22070312 C0.03708684 4.81373889 0.02066419 2.40690143 0 0 Z " fill="#1E0404" transform="translate(131,6)" data-index="37"/>
<path d="M0 0 C0.99 0.99 1.98 1.98 3 3 C2.01 4.485 2.01 4.485 1 6 C0.34 6 -0.32 6 -1 6 C-1 6.66 -1 7.32 -1 8 C-4.75 9.125 -4.75 9.125 -7 8 C-7 7.34 -7 6.68 -7 6 C-5.35 5.67 -3.7 5.34 -2 5 C-2.33 4.01 -2.66 3.02 -3 2 C-2.01 2 -1.02 2 0 2 C0 1.34 0 0.68 0 0 Z " fill="#B8E863" transform="translate(168,65)" data-index="38"/>
<path d="M0 0 C1.24136719 0.96679688 1.24136719 0.96679688 2.5078125 1.953125 C6.11444741 4.35754828 9.62123739 4.65931901 13.875 4.75 C14.90753906 4.79447266 14.90753906 4.79447266 15.9609375 4.83984375 C17.64001626 4.90980536 19.32000812 4.95725211 21 5 C21 5.33 21 5.66 21 6 C14.73 6 8.46 6 2 6 C1.34 4.02 0.68 2.04 0 0 Z " fill="#DB8389" transform="translate(72,136)" data-index="39"/>
<path d="M0 0 C0.33 0 0.66 0 1 0 C1.0867982 3.79152334 1.14032207 7.58279296 1.1875 11.375 C1.21263672 12.45523437 1.23777344 13.53546875 1.26367188 14.6484375 C1.27333984 15.6796875 1.28300781 16.7109375 1.29296875 17.7734375 C1.3086792 18.72653809 1.32438965 19.67963867 1.34057617 20.66162109 C1.22818604 21.43328613 1.1157959 22.20495117 1 23 C0.01 23.66 -0.98 24.32 -2 25 C-1.84152588 24.44280273 -1.68305176 23.88560547 -1.51977539 23.31152344 C-0.96429853 20.84122989 -0.791532 18.54446396 -0.68359375 16.015625 C-0.64169922 15.08105469 -0.59980469 14.14648438 -0.55664062 13.18359375 C-0.51732422 12.21550781 -0.47800781 11.24742188 -0.4375 10.25 C-0.39431641 9.26644531 -0.35113281 8.28289063 -0.30664062 7.26953125 C-0.20077948 4.84648725 -0.09869829 2.4233446 0 0 Z " fill="#140101" transform="translate(115,6)" data-index="40"/>
<path d="M0 0 C1.98 0 3.96 0 6 0 C6.33 1.65 6.66 3.3 7 5 C4.69 4.67 2.38 4.34 0 4 C0 2.66666667 0 1.33333333 0 0 Z " fill="#9ED345" transform="translate(161,73)" data-index="41"/>
<path d="M0 0 C-1.875 3.875 -1.875 3.875 -3 5 C-3.23192865 6.51469448 -3.41215238 8.03754562 -3.5625 9.5625 C-3.64628906 10.38878906 -3.73007813 11.21507812 -3.81640625 12.06640625 C-3.87699219 12.70449219 -3.93757813 13.34257813 -4 14 C-6.4356419 10.34653716 -6.12314882 9.01182091 -5.484375 4.875 C-4.66174917 1.69064196 -3.35460192 0 0 0 Z " fill="#270809" transform="translate(77,51)" data-index="42"/>
<path d="M0 0 C0.33 0 0.66 0 1 0 C1.08121924 1.60332791 1.13929134 3.20784026 1.1875 4.8125 C1.22230469 5.70582031 1.25710937 6.59914062 1.29296875 7.51953125 C0.95081002 10.41647515 0.24606427 11.22555028 -2 13 C-2.99 12.67 -3.98 12.34 -5 12 C-4.360625 11.13375 -3.72125 10.2675 -3.0625 9.375 C-1.02451704 6.0401188 -0.36566907 3.83952522 0 0 Z " fill="#E78289" transform="translate(154,163)" data-index="43"/>
<path d="M0 0 C0.28875 0.61875 0.5775 1.2375 0.875 1.875 C1.93720042 4.13325765 1.93720042 4.13325765 4 6 C2.35 5.67 0.7 5.34 -1 5 C-1 4.34 -1 3.68 -1 3 C-3.97 3.66 -6.94 4.32 -10 5 C-9.34 3.68 -8.68 2.36 -8 1 C-5.36 1.33 -2.72 1.66 0 2 C0 1.34 0 0.68 0 0 Z " fill="#D17D86" transform="translate(103,136)" data-index="44"/>
<path d="M0 0 C0.99 0.66 1.98 1.32 3 2 C-0.75 8.875 -0.75 8.875 -3 10 C-3 8.35 -3 6.7 -3 5 C-2.34 5 -1.68 5 -1 5 C-0.67 3.35 -0.34 1.7 0 0 Z " fill="#E46372" transform="translate(164,103)" data-index="45"/>
<path d="M0 0 C4.88346282 4.1509434 4.88346282 4.1509434 5.4375 8.1875 C5 11 5 11 3 13 C2.86722656 12.31292969 2.73445312 11.62585938 2.59765625 10.91796875 C2.42105469 10.01691406 2.24445313 9.11585937 2.0625 8.1875 C1.88847656 7.29417969 1.71445313 6.40085937 1.53515625 5.48046875 C1.02258847 2.88602829 1.02258847 2.88602829 0 0 Z " fill="#240808" transform="translate(149,87)" data-index="46"/>
<path d="M0 0 C0.99 0.33 1.98 0.66 3 1 C2.67 3.64 2.34 6.28 2 9 C2.66 9.33 3.32 9.66 4 10 C3.01 10 2.02 10 1 10 C0.690625 9.05125 0.38125 8.1025 0.0625 7.125 C-0.87394742 4.13919592 -0.87394742 4.13919592 -2 2 C-1.34 2 -0.68 2 0 2 C0 1.34 0 0.68 0 0 Z " fill="#DC7478" transform="translate(151,75)" data-index="47"/>
<path d="M0 0 C0 3.90838866 -1.50567876 5.11594107 -4 8 C-5.0625 6.125 -5.0625 6.125 -6 4 C-4.60804085 1.2160817 -2.84424221 1.02101003 0 0 Z " fill="#D77D83" transform="translate(66,133)" data-index="48"/>
<path d="M0 0 C1.65 0.33 3.3 0.66 5 1 C5.33 2.65 5.66 4.3 6 6 C5.34 6 4.68 6 4 6 C3.34 5.34 2.68 4.68 2 4 C1.01 3.67 0.02 3.34 -1 3 C-0.67 2.01 -0.34 1.02 0 0 Z " fill="#D4616D" transform="translate(158,83)" data-index="49"/>
<path d="M0 0 C0.66 0 1.32 0 2 0 C2 0.99 2 1.98 2 3 C4.64 3 7.28 3 10 3 C9.67 3.99 9.34 4.98 9 6 C9 5.34 9 4.68 9 4 C6.36 4 3.72 4 1 4 C0.67 4.66 0.34 5.32 0 6 C-0.38218767 4.34385343 -0.71395102 2.67542976 -1 1 C-0.67 0.67 -0.34 0.34 0 0 Z " fill="#D47E85" transform="translate(88,48)" data-index="50"/>
<path d="M0 0 C0.33 0.99 0.66 1.98 1 3 C-0.65 4.65 -2.3 6.3 -4 8 C-4.99 7.34 -5.98 6.68 -7 6 C-4.69 4.02 -2.38 2.04 0 0 Z " fill="#2F0D0F" transform="translate(125,40)" data-index="51"/>
<path d="M0 0 C0.66 0.66 1.32 1.32 2 2 C1.67 2.99 1.34 3.98 1 5 C-0.32 5 -1.64 5 -3 5 C-3 3.68 -3 2.36 -3 1 C-2.01 0.67 -1.02 0.34 0 0 Z " fill="#B5DE6D" transform="translate(68,80)" data-index="52"/>
<path d="M0 0 C-2.06756277 2.7972908 -3.14440371 3.02692273 -6.6875 3.6875 C-7.780625 3.790625 -8.87375 3.89375 -10 4 C-6.58908673 0.88145073 -4.68377325 -0.53528837 0 0 Z " fill="#DB7B83" transform="translate(76,107)" data-index="53"/>
</svg>