<?xml version="1.0" encoding="UTF-8"?>
<svg xmlns="http://www.w3.org/2000/svg" xmlns:xlink="http://www.w3.org/1999/xlink" width="24px" height="24px" viewBox="0 0 24 24" version="1.1">
<g id="surface1">
<path d="M 5.050781 6.59375 C 5.476562 7.019531 6.167969 7.019531 6.59375 6.589844 C 7.019531 6.164062 7.019531 5.472656 6.589844 5.046875 L 5.066406 3.523438 C 4.636719 3.097656 3.949219 3.097656 3.523438 3.523438 C 3.097656 3.949219 3.097656 4.640625 3.523438 5.066406 Z M 5.457031 11.996094 C 5.457031 15.609375 8.386719 18.539062 12 18.539062 C 15.613281 18.539062 18.542969 15.609375 18.542969 11.996094 C 18.542969 8.382812 15.613281 5.453125 12 5.453125 C 8.386719 5.453125 5.457031 8.382812 5.457031 11.996094 Z M 4.363281 12 C 4.363281 11.707031 4.246094 11.429688 4.039062 11.226562 C 3.832031 11.019531 3.550781 10.90625 3.261719 10.910156 L 1.101562 10.910156 C 0.5 10.910156 0.0117188 11.398438 0.0117188 12 C 0.0117188 12.601562 0.5 13.089844 1.101562 13.089844 L 3.261719 13.089844 C 3.871094 13.089844 4.363281 12.609375 4.363281 12 Z M 22.898438 10.910156 L 20.738281 10.910156 C 20.136719 10.910156 19.648438 11.398438 19.648438 12 C 19.648438 12.601562 20.136719 13.089844 20.738281 13.089844 L 22.898438 13.089844 C 23.5 13.089844 23.988281 12.601562 23.988281 12 C 23.988281 11.398438 23.5 10.910156 22.898438 10.910156 Z M 5.046875 17.410156 L 3.523438 18.933594 C 3.316406 19.140625 3.199219 19.417969 3.195312 19.707031 C 3.195312 20 3.308594 20.277344 3.515625 20.484375 C 3.71875 20.691406 4 20.804688 4.289062 20.804688 C 4.582031 20.800781 4.859375 20.683594 5.0625 20.476562 L 6.589844 18.949219 C 7.003906 18.523438 6.996094 17.84375 6.578125 17.421875 C 6.15625 17 5.476562 16.996094 5.046875 17.410156 Z M 12 4.363281 C 12.292969 4.363281 12.570312 4.246094 12.773438 4.039062 C 12.980469 3.832031 13.09375 3.550781 13.089844 3.261719 L 13.089844 1.101562 C 13.089844 0.5 12.601562 0.0117188 12 0.0117188 C 11.398438 0.0117188 10.910156 0.5 10.910156 1.101562 L 10.910156 3.261719 C 10.910156 3.871094 11.394531 4.363281 12 4.363281 Z M 12 19.636719 C 11.707031 19.636719 11.429688 19.753906 11.222656 19.960938 C 11.019531 20.167969 10.90625 20.449219 10.910156 20.738281 L 10.910156 22.898438 C 10.890625 23.300781 11.09375 23.679688 11.441406 23.886719 C 11.785156 24.089844 12.214844 24.089844 12.558594 23.886719 C 12.90625 23.679688 13.109375 23.300781 13.089844 22.898438 L 13.089844 20.738281 C 13.089844 20.128906 12.609375 19.636719 12 19.636719 Z M 18.949219 6.59375 L 20.476562 5.066406 C 20.890625 4.636719 20.882812 3.957031 20.464844 3.535156 C 20.042969 3.117188 19.363281 3.109375 18.933594 3.523438 L 17.410156 5.050781 C 17.011719 5.480469 17.023438 6.148438 17.4375 6.5625 C 17.851562 6.976562 18.519531 6.988281 18.949219 6.59375 Z M 18.949219 17.410156 C 18.675781 17.125 18.269531 17.011719 17.890625 17.109375 C 17.507812 17.210938 17.210938 17.507812 17.109375 17.890625 C 17.011719 18.269531 17.125 18.675781 17.410156 18.949219 L 18.933594 20.476562 C 19.367188 20.90625 20.054688 20.914062 20.484375 20.484375 C 20.691406 20.277344 20.804688 20 20.804688 19.707031 C 20.800781 19.417969 20.683594 19.140625 20.476562 18.933594 Z M 18.949219 17.410156 "/>
</g>
</svg>
