<?xml version="1.0" encoding="UTF-8"?>
<svg xmlns="http://www.w3.org/2000/svg" xmlns:xlink="http://www.w3.org/1999/xlink" width="24px" height="24px" viewBox="0 0 24 24" version="1.1">
<g id="surface1">
<path d="M 6 1.5 C 5.167969 1.5 4.5 2.167969 4.5 3 C 4.5 3.832031 5.167969 4.5 6 4.5 L 7.5 4.5 C 7.613281 4.503906 7.714844 4.542969 7.824219 4.597656 C 8.121094 4.769531 8.253906 5.109375 8.167969 5.449219 C 8.082031 5.785156 7.792969 6 7.453125 6 L 0 6 L 0 9 L 7.453125 9 C 9.140625 9 10.636719 7.851562 11.066406 6.214844 C 11.503906 4.589844 10.785156 2.847656 9.328125 2.003906 C 8.847656 1.730469 8.320312 1.574219 7.792969 1.527344 C 7.785156 1.527344 7.78125 1.527344 7.777344 1.523438 C 7.683594 1.511719 7.59375 1.5 7.5 1.5 Z M 18.722656 3 C 16.292969 3.019531 14.132812 4.730469 13.613281 7.152344 C 13.441406 7.96875 13.957031 8.765625 14.769531 8.933594 C 15.582031 9.113281 16.378906 8.589844 16.546875 7.78125 C 16.800781 6.609375 17.878906 5.855469 19.058594 6.023438 C 20.25 6.1875 21.074219 7.214844 20.996094 8.410156 C 20.910156 9.605469 19.945312 10.5 18.75 10.5 L 0 10.5 L 0 13.5 L 18.75 13.5 C 21.492188 13.5 23.792969 11.355469 23.988281 8.621094 C 24.183594 5.878906 22.195312 3.433594 19.480469 3.046875 C 19.222656 3.011719 18.972656 3 18.722656 3 Z M 0 15 L 0 18 L 15 18 C 15.433594 18 15.75 18.316406 15.75 18.75 C 15.75 19.183594 15.433594 19.5 15 19.5 L 13.5 19.5 C 12.667969 19.5 12 20.167969 12 21 C 12 21.832031 12.667969 22.5 13.5 22.5 L 15 22.5 C 17.050781 22.5 18.75 20.800781 18.75 18.75 C 18.75 16.699219 17.050781 15 15 15 Z M 0 15 "/>
</g>
</svg>
