<?xml version="1.0" encoding="utf-8" ?>
<svg xmlns="http://www.w3.org/2000/svg" xmlns:xlink="http://www.w3.org/1999/xlink" width="583" height="428">
	<path fill="#23ADE8" d="M273.418 385.655Q273.833 385.605 274.249 385.572C276.15 385.416 284.546 385.118 285.84 386.218C284.854 387.663 282.81 388.287 281.629 389.586C280.162 391.199 280.626 394.988 280.638 397.052C280.594 398.528 280.682 400.014 280.735 401.489C279.49 400.509 278.534 399.621 277.575 398.352C277.19 396.269 278.057 390.844 276.546 389.429C275.529 388.476 274.167 388.009 273.162 386.983C272.993 386.249 273.021 386.303 273.418 385.655Z"/>
	<path fill="#23ADE8" d="M294.335 396.808C294.386 396.832 294.439 396.853 294.487 396.882C298.507 399.39 295.925 407.68 297.486 410.28C298.318 411.665 299.99 412.431 301.264 413.365C301.719 413.698 301.755 413.682 301.911 414.212C301.84 414.297 301.773 414.386 301.697 414.467C300.774 415.449 297.857 415.185 296.553 415.204C294.407 415.199 291.691 415.439 289.707 414.591C289.267 413.5 293.321 411.305 293.746 409.828C294.924 405.725 292.851 400.878 294.335 396.808Z"/>
	<path fill="#23ADE8" d="M358.932 385.087C362.001 385.004 365.417 386.419 368.311 386.041C369.619 385.871 371.884 384.598 373.104 385.16C374.322 387.906 373.551 393.209 373.483 396.271C372.805 396.59 372.173 396.811 371.426 396.549C369.109 395.737 367.898 391.132 365.788 389.576C364.208 388.411 361.647 387.996 359.827 387.207C359.071 386.88 358.821 386.623 358.461 385.894L358.932 385.087Z"/>
	<path fill="#23ADE8" d="M249.546 411.883C249.598 411.823 249.651 411.765 249.702 411.704C252.873 407.894 249.478 396.659 251.498 393.981C252.183 394.03 252.546 394.051 253.017 394.602C255.522 397.531 254.107 406.028 254.623 409.898C254.999 412.715 258.909 412.139 258.901 414.399C257.744 415.516 254.855 415.214 253.276 415.186Q251.943 415.158 250.611 415.092C249.256 415.059 247.84 415.211 246.765 414.26L246.8 413.653C247.494 412.738 248.533 412.364 249.546 411.883Z"/>
	<path fill="#23ADE8" d="M362.485 399.941C366.702 399.918 371.062 399.722 375.254 400.203C374.621 401.315 373.781 402.588 373.448 403.82C373.09 405.146 372.906 410.997 372.364 411.714C371.25 413.189 367.677 414.1 365.977 414.573C363.822 415.174 361.05 415.986 358.846 415.265L358.343 414.744C358.395 413.968 358.463 413.612 359.044 413.055C359.562 412.558 360.277 412.144 360.875 411.74C360.899 409.007 361.028 406.247 360.611 403.536C359.524 403.175 358.005 402.83 357.311 401.857C357.006 401.428 357.119 401.392 357.191 400.906C358.795 399.697 360.583 399.928 362.485 399.941Z"/>
	<path fill="#23ADE8" d="M224.876 385.591C226.404 385.555 227.94 385.535 229.453 385.79C233.488 386.468 237.692 388.857 240.024 392.268C242.156 395.387 242.908 399.6 242.143 403.284C241.288 407.405 238.753 410.231 235.31 412.466C233.14 413.562 230.86 414.523 228.451 414.924C227.044 415.158 225.682 415.28 224.465 414.408C223.955 412.671 227.167 412.394 227.741 411.074C228.523 409.279 228.381 392.104 227.551 389.929C226.996 388.475 224.938 388.11 224.514 386.889C224.367 386.465 224.704 385.994 224.876 385.591Z"/>
	<path fill="#23ADE8" d="M352.767 385.09C353.905 384.958 355.339 384.789 356.35 385.402C356.455 385.894 356.527 386.083 356.266 386.555C355.666 387.644 354.025 388.39 353.69 389.588C353.359 390.772 353.319 409.422 353.616 410.898C353.918 412.394 355.856 413.533 355.71 415.133L355.204 415.55C352.661 416.041 349.527 414.75 347.283 413.646C346.589 413.337 345.904 412.964 345.256 412.566C342.021 410.581 339.705 407.485 338.869 403.778Q338.712 403.06 338.627 402.33Q338.542 401.6 338.529 400.865Q338.517 400.131 338.576 399.398Q338.636 398.666 338.767 397.943Q338.899 397.22 339.101 396.513Q339.302 395.806 339.573 395.123Q339.844 394.44 340.18 393.786Q340.517 393.133 340.916 392.516C343.626 388.329 348.023 386.118 352.767 385.09Z"/>
	<path fill="#23ADE8" d="M300.939 385.458L305.506 385.551C308.385 388.916 309.939 393.565 312.246 397.367C313.152 395.622 313.832 393.686 314.62 391.879C314.768 393.685 314.963 395.665 314.69 397.463C314.05 401.663 309.643 411.727 307.331 415.357C307.199 415.365 307.067 415.393 306.936 415.382C306.379 415.333 305.922 414.835 305.623 414.41C305.088 413.648 304.823 412.704 304.386 411.883C301.568 406.596 298.903 401.115 296.393 395.672C295.662 394.087 295.019 391.708 293.996 390.343C292.774 388.713 290.413 388.121 289.015 386.605L289.103 386.119C291.622 384.888 297.983 385.482 300.939 385.458Z"/>
	<path fill="#23ADE8" d="M214.721 385.61C217.094 385.559 219.586 385.674 221.935 385.352C221.812 395.247 221.998 405.172 221.781 415.06C217.957 415.041 208.127 416.073 205.148 414.331L204.992 413.771C205.67 412.683 206.559 412.5 207.752 412.119C208.199 407.649 208.38 392.287 207.65 388.395C207.08 388.214 206.403 388.048 205.875 387.767C205.232 387.424 204.936 387.199 204.732 386.518L205.157 386.08C208.036 385.049 211.715 385.529 214.721 385.61Z"/>
	<path fill="#23ADE8" d="M317.76 385.547C322.241 385.523 330.434 384.886 334.444 385.973L334.664 386.437C333.994 387.464 332.727 388.013 331.688 388.622C331.323 396.401 331.351 404.546 331.761 412.322Q332.068 412.425 332.373 412.536C333.294 412.875 333.997 413.149 334.42 414.072L334.171 414.581C333.309 415.112 332.407 415.059 331.426 415.101C327.141 415.27 322.799 415.22 318.512 415.127C317.253 415.1 315.094 415.035 314.193 414.086L314.307 413.47C315.136 412.618 316.287 412.408 317.397 412.077C317.643 406.288 317.532 400.473 317.517 394.68C317.51 391.749 317.204 388.417 317.76 385.547Z"/>
	<path fill="#23ADE8" d="M248.23 385.649C253.24 385.272 258.546 385.37 263.563 385.668C266.906 388.144 277.668 400.937 279.85 404.66C280.772 406.233 281.176 412.575 280.575 414.362C280.383 414.935 280.075 414.948 279.563 415.175C277.133 415.193 274.817 415.221 272.405 414.841C268.984 412.286 264.173 405.685 261.273 402.164C257.969 398.154 254.581 394.193 251.212 390.238C249.998 388.814 246.776 387.449 246.446 386.745C246.849 386.079 247.54 385.919 248.23 385.649Z"/>
	<defs>
		<linearGradient id="gradient_0" gradientUnits="userSpaceOnUse" x1="345.84763" y1="298.98505" x2="323.09561" y2="253.09639">
			<stop offset="0" stop-color="#68B9E5"/>
			<stop offset="1" stop-color="#BFDDF2"/>
		</linearGradient>
	</defs>
	<path fill="url(#gradient_0)" d="M473.044 150.861C474.091 152.239 474.18 154.874 474.576 156.567C478.954 175.25 478.103 198.527 475.501 217.54C474.986 221.298 471.777 239.517 469.905 241.601C470.086 244.013 467.94 248.811 467.053 251.282Q465.606 255.313 463.976 259.274Q462.346 263.235 460.538 267.118Q458.729 271 456.745 274.796Q454.761 278.592 452.606 282.294Q450.451 285.996 448.13 289.595Q445.808 293.195 443.325 296.685Q440.842 300.175 438.202 303.548Q435.562 306.922 432.771 310.171Q431.277 311.915 429.741 313.622Q428.205 315.329 426.627 316.998Q425.049 318.666 423.431 320.295Q421.812 321.924 420.154 323.513Q418.496 325.102 416.799 326.649Q415.102 328.196 413.367 329.701Q411.632 331.206 409.861 332.667Q408.089 334.129 406.283 335.547Q404.476 336.964 402.634 338.336Q400.793 339.709 398.918 341.035Q397.044 342.362 395.137 343.642Q393.23 344.922 391.292 346.154Q389.354 347.387 387.387 348.571Q385.419 349.755 383.423 350.891Q381.426 352.026 379.402 353.112Q377.379 354.198 375.329 355.233Q373.279 356.269 371.204 357.253Q369.129 358.238 367.03 359.171Q364.932 360.104 362.811 360.985Q360.69 361.866 358.548 362.695Q356.405 363.523 354.244 364.298Q352.082 365.074 349.901 365.795Q347.721 366.517 345.523 367.185Q343.326 367.853 341.112 368.466Q338.899 369.079 336.671 369.638Q334.443 370.196 332.202 370.699Q329.961 371.203 327.709 371.651Q325.456 372.099 323.193 372.491Q320.93 372.883 318.658 373.219Q316.386 373.555 314.106 373.835Q311.826 374.115 309.541 374.339Q307.255 374.563 304.964 374.73C276.185 376.865 244.913 372.415 218.44 360.617Q214.563 358.982 210.765 357.172Q206.967 355.362 203.256 353.381Q199.545 351.399 195.928 349.25Q192.311 347.101 188.796 344.789Q185.281 342.478 181.876 340.007Q178.47 337.537 175.181 334.914Q171.892 332.291 168.727 329.521Q165.561 326.75 162.525 323.838C159.804 321.186 156.734 318.454 154.556 315.343C154.628 315.36 154.701 315.375 154.773 315.394C157.508 316.132 169.161 330.828 172.736 331.77C173.228 331.9 173.765 331.242 174.223 331.223C174.754 331.2 174.646 331.482 175.299 331.229C175.34 331.097 175.374 330.962 175.422 330.833C176.708 327.387 185.74 324.044 189.134 322.779C191.282 321.978 192.559 321.905 193.749 319.67L193.975 319.607C195.012 317.047 196.493 314.169 198.356 312.116C202.178 307.904 207.705 309.534 212.74 309.227C220.85 308.733 227.657 304.738 230.868 297.093C231.915 294.603 232.602 291.791 234.493 289.772C237.063 287.027 243.888 287.697 247.474 287.489C260.226 286.746 257.893 277.256 264.496 269.99C265.957 268.383 267.728 267.732 269.761 267.121C276.682 265.04 284.507 264.753 291.632 263.086C293.663 262.611 300.852 259.838 301.658 259.797L302.197 260.707C302.117 262.892 301.203 263.955 299.96 265.628L300.111 265.832C302.596 266.042 318.987 256.07 323.929 255.879C324.622 255.852 324.872 256.162 325.305 256.634C325.308 257.604 324.702 258.152 324.29 258.963C323.966 259.602 323.872 259.81 324.101 260.492C324.164 260.48 324.228 260.476 324.288 260.456C325.017 260.205 327.024 258.119 327.352 257.425C327.41 257.302 327.453 257.171 327.52 257.052C328.88 254.657 337.355 250.136 339.946 249.124C341.553 248.497 343.367 248.095 345.066 247.827C347.199 247.49 350.242 247.942 352.175 247.314C355.33 246.287 357.806 242.524 361.311 241.345C363.238 240.696 365.831 241.004 367.876 240.739C368.96 240.598 375.419 238.799 376.554 238.37C386.75 234.517 387.669 229.73 391.847 220.598C394.089 215.698 399.379 215.012 403.978 213.266C412.953 209.859 426.069 203.392 431.326 195.206C432.325 193.65 432.78 191.766 433.542 190.08L433.758 190.219C433.434 195.774 428.851 198.303 425.931 202.274L426.039 202.914C429.875 201.125 434.05 200.039 437.807 198.149C439.593 197.25 441.229 196.066 443.001 195.152C446.331 193.436 449.83 191.895 453.188 190.176C455.67 188.906 458.098 187.372 460.618 186.211C461.926 185.608 463.337 185.203 464.672 184.58C468.226 182.921 472.067 180.961 475.822 179.844L476.566 180.372C477.362 178.968 474.778 162.914 474.362 160.565C473.976 158.386 472.847 155.145 473.162 152.995C473.278 152.21 473.207 151.633 473.044 150.861Z"/>
	<path fill="#C6E9F7" d="M193.975 319.607C195.012 317.047 196.493 314.169 198.356 312.116C202.178 307.904 207.705 309.534 212.74 309.227C220.85 308.733 227.657 304.738 230.868 297.093C231.915 294.603 232.602 291.791 234.493 289.772C237.063 287.027 243.888 287.697 247.474 287.489C260.226 286.746 257.893 277.256 264.496 269.99C265.957 268.383 267.728 267.732 269.761 267.121C276.682 265.04 284.507 264.753 291.632 263.086C293.663 262.611 300.852 259.838 301.658 259.797C301.925 261.293 301.679 262.508 300.764 263.754C297.988 267.535 285.553 270.741 280.861 274.24C278.19 276.232 277.324 279.282 275.504 281.915C273.22 285.221 269.259 288.361 265.866 290.463C262.106 292.791 257.559 295.096 253.412 296.66C250.958 297.586 248.118 297.861 245.907 299.339C241.67 302.173 241.58 309.696 235.307 313.803C231.455 316.325 226.778 317.07 222.287 317.548C218.555 317.946 217.372 318.074 214.327 320.434C213.628 320.976 212.925 321.6 212.093 321.923C209.808 322.813 206.964 322.713 204.541 322.97C197.855 323.678 191.846 328.891 187.5 333.658C188.703 330.462 193.666 321.994 193.975 319.607Z"/>
	<path fill="#A1D4F1" d="M460.134 200.193L461.11 200.089C461.586 200.405 461.705 200.512 461.86 201.081C462.116 202.016 461.845 203.18 461.391 204.015C460.686 206.559 445.37 213.792 441.941 216.526C438.328 219.407 437.515 223.551 435.262 227.324C433.348 230.528 430.424 233.653 427.624 236.127C424.312 239.053 418.078 242.45 414.026 244.529C411.184 245.987 406.774 246.865 404.667 249.292C401.091 253.411 402.515 260.506 395.618 265.642C392.477 267.981 387.945 269.582 384.129 270.432C378.562 271.672 375.498 272.1 372.049 277.094C359.964 278.448 356.23 281.194 348.063 289.896L347.527 289.99L347.422 289.418C348.074 287.35 349.081 285.492 349.833 283.477C351.66 278.573 353.784 270.107 357.392 266.4C362.416 261.238 373.118 266.673 382.974 258.151Q384.021 257.24 384.961 256.219Q385.901 255.197 386.721 254.078Q387.542 252.959 388.234 251.756Q388.926 250.553 389.481 249.281C390.54 246.831 391.137 240.181 393.059 238.827C399.112 234.563 411.025 238.4 415.715 231.348C419.364 225.862 418.885 216.948 424.884 213.271C429.857 210.223 434.747 209.388 440.232 207.95C445.558 206.554 451.583 204.808 456.495 202.287C457.697 201.67 459.095 201.056 460.134 200.193Z"/>
	<path fill="#A1D4F1" d="M269.646 303.472C276.51 298.452 285.861 302.652 293.148 298.954C299.373 295.794 300.258 282.135 306.544 278.39C309.208 276.802 328.973 274.074 333.634 273.097C336.676 272.46 339.708 271.682 342.594 270.515C343.754 270.046 345.121 269.033 346.267 268.728C346.901 268.559 347.055 268.786 347.548 269.133C347.709 269.619 347.808 269.949 347.649 270.464C347.087 272.272 345.703 274.166 344.129 275.235C342.737 276.181 340.704 276.738 339.115 277.383C334.048 279.441 327.596 281.723 323.354 285.24C320.314 287.76 319.357 290.869 317.262 294.046C314.968 297.524 309.371 301.958 305.799 304.222C302.462 306.336 294.872 309.787 291.061 311.083C288.136 312.077 284.946 312.635 282.2 314.066L281.865 314.244C279.371 319.732 276.989 324.554 273.051 329.209C269.237 332.241 264.427 333.244 259.815 334.516C258.682 334.829 257.356 335.009 256.292 335.473C255.476 335.347 254.637 335.203 253.811 335.181C249.891 335.077 246.887 337.96 244.227 340.446Q243.783 340.409 243.338 340.391C231.682 339.88 224.394 345.365 216.293 352.884C219.769 345.766 225.707 330.246 232.155 325.868C238.64 325.265 245.277 326.711 251.633 324.693C258.215 322.602 264.156 317.434 266.835 311.013C267.829 308.632 268.266 306.002 269.504 303.727L269.646 303.472Z"/>
	<defs>
		<linearGradient id="gradient_1" gradientUnits="userSpaceOnUse" x1="372.58066" y1="355.75122" x2="341.39447" y2="293.56293">
			<stop offset="0" stop-color="#0097D9"/>
			<stop offset="1" stop-color="#70BEE8"/>
		</linearGradient>
	</defs>
	<path fill="url(#gradient_1)" d="M430.611 255.899C432.544 253.899 432.122 250.483 434.446 248.451C436.872 246.33 451.883 241.81 456.024 240.045C459.257 238.667 462.292 236.808 465.177 234.81L465.655 234.969C465.779 235.473 465.819 235.883 465.775 236.401C465.641 237.97 465.535 238.866 464.264 239.918C465.121 239.716 465.23 239.731 465.844 239.041C466.068 238.206 466.079 237.522 466.045 236.66C467.32 236.435 468.427 235.961 469.629 236.835Q469.781 236.945 469.905 237.086Q470.029 237.227 470.12 237.391Q470.21 237.556 470.261 237.736Q470.313 237.917 470.324 238.104C470.411 239.456 469.562 240.137 469.905 241.601C470.086 244.013 467.94 248.811 467.053 251.282Q465.606 255.313 463.976 259.274Q462.346 263.235 460.538 267.118Q458.729 271 456.745 274.796Q454.761 278.592 452.606 282.294Q450.451 285.996 448.13 289.595Q445.808 293.195 443.325 296.685Q440.842 300.175 438.202 303.548Q435.562 306.922 432.771 310.171Q431.277 311.915 429.741 313.622Q428.205 315.329 426.627 316.998Q425.049 318.666 423.431 320.295Q421.812 321.924 420.154 323.513Q418.496 325.102 416.799 326.649Q415.102 328.196 413.367 329.701Q411.632 331.206 409.861 332.667Q408.089 334.129 406.283 335.547Q404.476 336.964 402.634 338.336Q400.793 339.709 398.918 341.035Q397.044 342.362 395.137 343.642Q393.23 344.922 391.292 346.154Q389.354 347.387 387.387 348.571Q385.419 349.755 383.423 350.891Q381.426 352.026 379.402 353.112Q377.379 354.198 375.329 355.233Q373.279 356.269 371.204 357.253Q369.129 358.238 367.03 359.171Q364.932 360.104 362.811 360.985Q360.69 361.866 358.548 362.695Q356.405 363.523 354.244 364.298Q352.082 365.074 349.901 365.795Q347.721 366.517 345.523 367.185Q343.326 367.853 341.112 368.466Q338.899 369.079 336.671 369.638Q334.443 370.196 332.202 370.699Q329.961 371.203 327.709 371.651Q325.456 372.099 323.193 372.491Q320.93 372.883 318.658 373.219Q316.386 373.555 314.106 373.835Q311.826 374.115 309.541 374.339Q307.255 374.563 304.964 374.73C276.185 376.865 244.913 372.415 218.44 360.617L217.821 359.557C218.601 358.613 220.681 359.047 221.805 358.676C222.783 358.354 224.342 356.359 225.2 355.646C226.848 354.279 228.657 353.166 230.514 352.112C235.705 349.165 241.037 345.501 246.352 342.974C249.388 341.531 253.75 340.635 256.193 338.397C256.598 338.027 257.02 337.68 257.437 337.324Q257.323 336.901 257.205 336.48L258.043 335.98L257.817 335.5L256.471 335.878L256.292 335.473C257.356 335.009 258.682 334.829 259.815 334.516C264.427 333.244 269.237 332.241 273.051 329.209C274.729 328.535 276.6 329.008 278.177 328.306C285.385 325.098 291.916 320.422 298.915 316.862C301.74 315.426 304.937 315.022 307.805 313.68C315.392 310.13 336.913 297.251 343.719 297.043C344.239 297.027 344.632 296.596 345.051 296.293L345.636 296.413C345.609 297.003 345.366 297.476 345.148 298.019C347.575 295.33 350.331 294.903 353.693 294.125C353.347 293.734 353.007 293.388 352.756 292.926C353.282 291.403 356.33 289.641 357.746 288.71C358.964 287.91 360.454 287.536 361.72 286.806L382.295 275.097C384.022 274.12 386.859 272.949 388.297 271.63C388.63 271.323 389.059 270.031 389.282 269.564L389.701 269.448C389.746 269.868 389.669 269.67 389.964 270.027C390.54 269.794 391.289 269.564 391.763 269.156C391.834 269.096 391.9 269.031 391.968 268.969L392.318 269.505C393.39 270.083 409.726 262.785 411.958 261.657C414.937 260.153 418.417 257.507 421.603 256.762C423.367 256.35 425.077 255.442 426.739 254.722C427.983 255.165 429.269 254.249 430.6 254.287L430.897 254.662L430.611 255.899Z"/>
	<path fill="#23ADE8" d="M430.371 304.612C430.858 304.808 431.265 305.055 431.449 305.593C431.651 306.187 431.505 306.624 431.216 307.147C429.241 310.717 419.639 313.174 415.905 314.957C414.501 315.627 413.141 316.535 411.884 317.444C409.583 319.107 408.439 321.669 406.838 323.933C404.618 327.068 401.451 329.779 398.179 331.771C392.324 335.336 385.6 337.484 379.038 339.257C375.591 342.626 374.818 347.932 371.043 351.356C367.678 354.408 361.139 355.773 356.646 356.202C355.709 356.292 354.703 355.843 353.833 356.069C351.513 356.671 349.089 358.611 347.075 359.892C338.221 360.088 331.858 362.247 325.603 368.709L325.289 368.665L325.083 368.254C328.357 362.461 331.017 356.037 336.474 351.904C342.602 347.262 350.972 349.865 358.57 345.41C365.301 341.464 367.084 333.859 370.297 331.704C374.456 328.916 382.513 330.252 387.383 327.834C391.374 325.852 392.224 320.837 395.403 318.103C398.079 315.802 401.722 316.01 404.791 314.673C407.147 313.646 408.805 311.419 411.127 310.325C416.469 307.809 425.56 308.634 430.371 304.612Z"/>
	<path fill="#A1D4F1" d="M430.611 255.899C432.544 253.899 432.122 250.483 434.446 248.451C436.872 246.33 451.883 241.81 456.024 240.045C459.257 238.667 462.292 236.808 465.177 234.81L465.655 234.969C465.779 235.473 465.819 235.883 465.775 236.401C465.641 237.97 465.535 238.866 464.264 239.918C462.949 242.094 452.275 247.671 449.257 250.962C447.001 253.423 446.205 256.525 444.885 259.494C443.403 262.827 440.806 266.12 438.105 268.552C434.946 271.396 430.738 274.421 427.027 276.509C424.981 277.661 422.647 278.388 420.745 279.772C420.692 279.855 420.638 279.937 420.585 280.021C418.061 284.044 418.042 289.177 415.159 293.214C410.789 299.334 403.643 298.853 398.187 302.151C396.286 303.299 394.724 305.194 393.186 306.78C383.248 308.41 379.255 312.311 373.358 320.089C375.115 313.806 377.497 301.306 382.021 296.713L382.312 296.609C384.722 295.773 387.484 295.664 390.005 295.291C396.848 294.276 402.484 290.852 405.698 284.566C407.512 281.019 407.72 277.107 408.6 273.298C418.513 266.251 427.808 273.124 430.708 257.103C430.787 256.669 430.735 256.32 430.611 255.899Z"/>
	<path fill="#A1D4F1" d="M353.693 294.125C361.916 292.339 370.274 291.555 378.468 289.571C381.657 288.799 385.043 286.485 387.932 286.018C388.439 286.556 388.766 287.118 388.773 287.883C388.785 289.064 387.905 290.133 387.075 290.884C382.016 295.461 370.798 297.462 364.667 302.317C361.465 304.852 360.337 308.199 358.195 311.489C355.832 315.119 350.902 319.37 347.112 321.508C343.242 323.692 337.352 326.313 333.208 328.065C330.387 329.258 324.971 329.931 322.897 332.106C321.701 333.362 321.067 335.139 320.387 336.706C318.448 341.18 315.88 345.67 311.657 348.362C308.252 350.532 302.537 351.825 298.552 352.388C295.265 352.852 292.304 352.544 289.305 354.284C287.655 355.24 286.101 356.973 284.758 358.325C276.825 357.239 269.967 359.708 263.686 364.477C262.773 365.17 258.123 369.474 257.594 369.409C257.402 368.375 266.924 350.103 268.572 347.7C270.145 345.405 272.027 343.696 274.852 343.222C277.57 342.766 280.654 343.312 283.414 343.343C291.993 343.439 299.847 340.135 304.958 333.067C307.479 329.58 309.304 322.245 311.284 320.37C312.459 319.257 314.315 318.74 315.877 318.48C322.316 317.405 332.386 319.698 336.746 313.741C340.138 309.106 341.828 303.346 344.866 298.479C344.926 298.383 344.983 298.286 345.041 298.19L345.148 298.019C347.575 295.33 350.331 294.903 353.693 294.125Z"/>
	<path fill="#F2F8FB" d="M166.568 50.6196C170.511 46.0732 176.461 41.9313 181.324 38.3816Q183.756 36.6141 186.243 34.9248Q188.731 33.2355 191.27 31.6261Q193.81 30.0167 196.4 28.4889Q198.989 26.961 201.626 25.5162Q204.263 24.0713 206.945 22.711Q209.626 21.3507 212.349 20.0763Q215.073 18.8019 217.835 17.6147Q220.598 16.4275 223.397 15.3287Q226.196 14.2298 229.028 13.2205Q231.86 12.2112 234.723 11.2924Q237.586 10.3735 240.477 9.54617Q243.368 8.71879 246.284 7.9837Q249.199 7.24861 252.137 6.60654Q255.075 5.96447 258.031 5.41607Q260.988 4.86767 263.96 4.4135Q266.933 3.95933 269.918 3.59985C305.065 -0.734388 343.433 6.4226 374.954 22.4129C380.318 25.1339 386.354 28.0703 391.099 31.7799C395.516 33.7365 401.2 38.5671 405.123 41.6229C431.113 61.8672 452.305 89.3487 464.165 120.18C465.907 124.709 474.215 147.464 473.044 150.861C473.207 151.633 473.278 152.21 473.162 152.995C472.847 155.145 473.976 158.386 474.362 160.565C474.778 162.914 477.362 178.968 476.566 180.372L475.822 179.844C472.067 180.961 468.226 182.921 464.672 184.58C463.337 185.203 461.926 185.608 460.618 186.211C458.098 187.372 455.67 188.906 453.188 190.176C449.83 191.895 446.331 193.436 443.001 195.152C441.229 196.066 439.593 197.25 437.807 198.149C434.05 200.039 429.875 201.125 426.039 202.914L425.931 202.274C428.851 198.303 433.434 195.774 433.758 190.219L433.542 190.08C432.78 191.766 432.325 193.65 431.326 195.206C426.069 203.392 412.953 209.859 403.978 213.266C399.379 215.012 394.089 215.698 391.847 220.598C387.669 229.73 386.75 234.517 376.554 238.37C375.419 238.799 368.96 240.598 367.876 240.739C365.831 241.004 363.238 240.696 361.311 241.345C357.806 242.524 355.33 246.287 352.175 247.314C350.242 247.942 347.199 247.49 345.066 247.827C343.367 248.095 341.553 248.497 339.946 249.124C337.355 250.136 328.88 254.657 327.52 257.052C327.453 257.171 327.41 257.302 327.352 257.425C327.024 258.119 325.017 260.205 324.288 260.456C324.228 260.476 324.164 260.48 324.101 260.492C323.872 259.81 323.966 259.602 324.29 258.963C324.702 258.152 325.308 257.604 325.305 256.634C324.872 256.162 324.622 255.852 323.929 255.879C318.987 256.07 302.596 266.042 300.111 265.832L299.96 265.628C301.203 263.955 302.117 262.892 302.197 260.707L301.658 259.797C300.852 259.838 293.663 262.611 291.632 263.086C284.507 264.753 276.682 265.04 269.761 267.121C267.728 267.732 265.957 268.383 264.496 269.99C257.893 277.256 260.226 286.746 247.474 287.489C243.888 287.697 237.063 287.027 234.493 289.772C232.602 291.791 231.915 294.603 230.868 297.093C227.657 304.738 220.85 308.733 212.74 309.227C207.705 309.534 202.178 307.904 198.356 312.116C196.493 314.169 195.012 317.047 193.975 319.607L193.749 319.67C192.559 321.905 191.282 321.978 189.134 322.779C185.74 324.044 176.708 327.387 175.422 330.833C175.374 330.962 175.34 331.097 175.299 331.229C174.646 331.482 174.754 331.2 174.223 331.223C173.765 331.242 173.228 331.9 172.736 331.77C169.161 330.828 157.508 316.132 154.773 315.394C154.701 315.375 154.628 315.36 154.556 315.343C151.576 313.811 140.092 298 137.59 294.416Q136.309 292.556 135.073 290.666Q133.838 288.775 132.648 286.855Q131.459 284.935 130.317 282.987Q129.175 281.039 128.08 279.063Q126.986 277.087 125.94 275.086Q124.894 273.084 123.897 271.058Q122.9 269.031 121.953 266.981Q121.006 264.931 120.109 262.859Q119.212 260.786 118.365 258.692Q117.519 256.599 116.724 254.485Q115.928 252.371 115.185 250.239Q114.441 248.106 113.75 245.956Q113.059 243.807 112.42 241.641Q111.781 239.474 111.195 237.294Q110.609 235.113 110.077 232.918Q109.544 230.723 109.065 228.517Q108.586 226.31 108.161 224.092Q107.736 221.874 107.364 219.646Q106.993 217.419 106.677 215.183Q106.36 212.947 106.098 210.704Q105.835 208.461 105.628 206.212Q105.42 203.964 105.268 201.711Q105.115 199.457 105.017 197.201Q104.919 194.945 104.876 192.687Q104.833 190.43 104.846 188.171Q104.858 185.913 104.925 183.656Q104.992 181.399 105.114 179.144Q105.236 176.889 105.412 174.637Q105.589 172.386 105.821 170.14Q106.052 167.893 106.339 165.653Q106.625 163.413 106.965 161.181Q107.306 158.948 107.701 156.725C113.871 122.349 129.011 91.6877 151.943 65.4337C155.464 61.403 162.321 53.5752 166.568 50.6196Z"/>
	<path fill="#DAEBD0" d="M291.818 43.6653C292.517 44.1993 293 45.3642 293.08 46.2267C293.177 47.2677 292.934 48.0536 292.296 48.8647C292.13 48.6604 292.047 48.5688 291.907 48.3634C291.009 47.0459 290.528 45.7842 290.861 44.1923L291.818 43.6653Z"/>
	<path fill="#DAEBD0" d="M282.726 45.369L283.685 45.7697C284.624 47.1962 283.396 49.3792 283.063 50.9994L282.54 50.8208C282.39 50.4704 282.244 50.1144 282.144 49.7458C281.718 48.1686 281.89 46.7602 282.726 45.369Z"/>
	<path fill="#A1D4F1" d="M283.577 109.895L284.082 110.138C284.931 111.222 285.099 112.992 285.167 114.332C285.217 115.332 285.253 115.647 284.581 116.383C284.295 116.375 283.918 116.394 283.646 116.313C283.193 116.177 283.05 116.092 282.83 115.679C281.992 114.102 283.005 111.465 283.577 109.895Z"/>
	<path fill="#A1D4F1" d="M305.06 101.617C305.519 101.423 305.679 101.465 306.162 101.516C306.533 103.336 307.258 105.62 306.19 107.309C305.943 107.699 305.863 107.703 305.434 107.871C304.762 107.358 304.507 106.784 304.376 105.927C304.188 104.686 304.785 102.859 305.06 101.617Z"/>
	<path fill="#A1D4F1" d="M253.978 112.222L254.588 112.865C254.943 114.455 255.455 116.5 255.178 118.129C255.074 118.741 254.85 118.75 254.352 119.055C254.208 119.017 254.063 118.977 253.922 118.931C253.32 118.733 252.952 118.696 252.672 118.078C251.949 116.485 253.373 113.761 253.978 112.222Z"/>
	<path fill="#A1D4F1" d="M269.733 113.634L270.26 113.88C271.106 114.901 271.358 116.282 271.478 117.574C271.582 118.697 271.668 119.382 270.939 120.273C270.518 120.256 269.928 120.29 269.533 120.165C269.067 120.019 268.887 119.677 268.708 119.255C268.037 117.675 269.144 115.147 269.733 113.634Z"/>
	<path fill="#A1D4F1" d="M242.971 101.033C243.817 101.086 244.196 100.962 244.831 101.55L244.935 102.12C244.891 103.143 244.789 104.1 245.11 105.089C245.108 105.473 245.123 105.896 245.049 106.273C244.909 106.98 244.603 107.193 244.04 107.587C243.36 107.484 243.12 107.357 242.674 106.81C242.11 106.117 242.275 104.985 242.315 104.15L242.879 102.771C242.745 102.193 242.893 101.616 242.971 101.033Z"/>
	<path fill="#A1D4F1" d="M268.167 104.372C268.33 103.498 268.609 102.693 268.898 101.855L270.206 102.168C270.543 104.077 271.264 106.644 270.039 108.362C269.82 108.668 269.736 108.705 269.385 108.809C268.779 108.47 268.41 108.078 268.21 107.391C267.956 106.518 268.124 105.287 268.167 104.372Z"/>
	<path fill="#ECECED" d="M263.363 102.133C264.523 101.699 267.649 100.86 268.77 101.209L268.898 101.855C268.609 102.693 268.33 103.498 268.167 104.372C266.042 104.248 264.063 105.384 261.978 105.165C262.485 104.175 262.917 103.151 263.363 102.133Z"/>
	<path fill="#050F13" d="M427.874 162.89C428.027 161.687 428.132 160.479 428.549 159.332C429.466 160.979 430.346 163.198 429.744 165.108C429.668 165.349 429.557 165.574 429.437 165.795C428.876 166.568 427.591 167.481 426.615 167.584C425.751 167.675 424.67 167.374 424.017 166.795C423.475 166.315 422.986 165.737 422.502 165.199C424.406 164.539 426.116 163.899 427.874 162.89Z"/>
	<path fill="#EBD90D" d="M258.601 99.5331C259.245 99.3631 259.768 99.443 260.382 99.0933C260.88 98.8098 261.363 98.6103 261.9 98.412C262.696 98.6288 262.789 98.9244 263.29 99.5587C263.68 99.8702 263.872 100.009 264.147 100.435L263.363 102.133C262.917 103.151 262.485 104.175 261.978 105.165C261.224 106.364 260.486 107.816 259.372 108.709L258.958 108.656C258.786 107.902 258.906 107.443 259.116 106.708C259.351 106.275 259.594 105.826 259.746 105.356C260.011 104.534 259.251 103.477 258.859 102.785L258.601 99.5331Z"/>
	<path fill="#ECECED" d="M244.935 102.12C245.963 101.632 257.107 101.54 258.286 101.923L258.859 102.785C259.251 103.477 260.011 104.534 259.746 105.356C259.594 105.826 259.351 106.275 259.116 106.708C259.063 106.338 259.082 105.755 258.81 105.484C257.113 103.802 247.852 104.905 245.11 105.089C244.789 104.1 244.891 103.143 244.935 102.12Z"/>
	<path fill="#C6E9F7" d="M422.502 165.199C422.058 164.863 421.82 164.564 421.542 164.074C420.893 162.929 420.275 161.642 420.716 160.312C421.123 159.087 422.131 158.229 423.281 157.712C424.434 157.195 425.863 157.082 427.043 157.585C427.9 157.95 428.239 158.487 428.549 159.332C428.132 160.479 428.027 161.687 427.874 162.89C426.116 163.899 424.406 164.539 422.502 165.199Z"/>
	<path fill="#B2B3B2" d="M264.942 98.0829C268.618 98.3437 273.544 97.2573 276.936 98.0916C276.843 99.9537 277.085 101.046 278.388 102.464C278.443 102.524 278.499 102.581 278.555 102.639L278.481 103.2C278.27 102.824 278.027 102.596 277.689 102.328C276.016 101.001 272.207 101.923 270.206 102.168L268.898 101.855L268.77 101.209C267.649 100.86 264.523 101.699 263.363 102.133L264.147 100.435L264.942 98.0829Z"/>
	<path fill="#0C415B" d="M272.423 135.027C274.969 136.236 289.197 141.593 289.806 143.052C290.167 143.919 290.115 145.354 290.064 146.282C284.132 144.415 278.602 140.61 272.53 139.191C272.41 137.908 272.074 136.266 272.423 135.027Z"/>
	<path fill="#A1D4F1" d="M283.368 97.975L283.966 97.3049C286.338 96.2249 290.245 96.8214 292.854 96.8542L293.271 97.4919C293.183 99.1894 293.255 99.8221 294.271 101.237C294.611 101.711 294.799 102 294.814 102.604C294.423 102.306 294.063 101.937 293.698 101.606L290.82 101.493C290.503 102.812 290.45 105.257 289.272 106.064C288.549 106.106 288.221 105.847 287.707 105.313C287.486 105.084 287.325 104.776 287.166 104.505C286.978 103.867 287.021 103.766 286.479 103.401C284.413 103.299 282.181 103.541 280.182 104.071C279.656 105.007 279.279 106.011 278.243 106.444L277.88 106.081C277.763 105.017 278.123 104.177 278.481 103.2L278.555 102.639C278.499 102.581 278.443 102.524 278.388 102.464C277.085 101.046 276.843 99.9537 276.936 98.0916L277.067 97.8372C278.213 97.4369 279.773 97.2718 280.956 97.5633C281.754 97.6812 282.593 97.7519 283.368 97.975Z"/>
	<path fill="#ECECED" d="M282.613 100.725C283.958 100.803 286.043 100.584 287.119 101.418C287.63 102.375 287.312 103.472 287.166 104.505C286.978 103.867 287.021 103.766 286.479 103.401C284.413 103.299 282.181 103.541 280.182 104.071C280.919 103.002 281.615 101.898 282.328 100.812L282.613 100.725Z"/>
	<path fill="#B2B3B2" d="M283.368 97.975L283.966 97.3049C286.338 96.2249 290.245 96.8214 292.854 96.8542L293.271 97.4919C293.183 99.1894 293.255 99.8221 294.271 101.237C294.611 101.711 294.799 102 294.814 102.604C294.423 102.306 294.063 101.937 293.698 101.606C293.402 101.356 293.509 101.426 293.241 101.26C291.123 99.9506 289.769 98.6973 287.044 99.0278C285.751 99.1846 283.398 99.6758 282.613 100.725L282.328 100.812C282.704 99.8773 283.031 98.9243 283.368 97.975Z"/>
	<path fill="#EBD90D" d="M277.067 97.8372C278.213 97.4369 279.773 97.2718 280.956 97.5633C281.754 97.6812 282.593 97.7519 283.368 97.975C283.031 98.9243 282.704 99.8773 282.328 100.812C281.615 101.898 280.919 103.002 280.182 104.071C279.656 105.007 279.279 106.011 278.243 106.444L277.88 106.081C277.763 105.017 278.123 104.177 278.481 103.2L278.555 102.639C278.499 102.581 278.443 102.524 278.388 102.464C277.085 101.046 276.843 99.9537 276.936 98.0916L277.067 97.8372Z"/>
	<path fill="#C6E9F7" d="M259.485 146.345C261.939 142.849 265.273 138.388 268.695 135.837C270.026 134.845 270.834 134.795 272.423 135.027C272.074 136.266 272.41 137.908 272.53 139.191C271.852 140.168 271.032 141.212 270.591 142.321C269.195 145.832 269.725 148.09 266.945 151.129C265.716 151.126 264.364 150.998 263.171 151.312C262.12 151.229 260.891 151.098 260.004 150.499C259.38 149.506 259.637 147.589 259.485 146.345Z"/>
	<path fill="#DAEBD0" d="M307.451 30.9166L307.956 29.7736L308.526 32.5289C306.326 37.0962 304.324 41.3025 300.408 44.6216C299.792 45.1438 299.188 45.8149 298.438 46.1241L297.974 46.385L297.899 47.242C297.997 47.302 298.087 47.3747 298.191 47.422C298.822 47.7079 299.877 47.831 300.563 47.7978C302.98 47.6809 305.393 46.9017 307.805 46.6408C310.966 46.2987 314.361 46.4417 317.542 46.447Q326.568 46.5136 335.591 46.7732C339.443 46.904 344.265 47.9428 348.018 47.0631C353.083 45.8757 356.636 40.559 362.033 38.9742C369.191 36.8722 376.978 40.012 383.859 41.7808C388.256 42.911 392.677 43.6277 396.692 45.8545C394.267 45.6455 391.962 43.6839 389.416 43.5723C387.388 43.4834 385.154 42.6043 383.187 42.0859C377.813 40.6693 371.476 38.958 365.898 39.3286C355.92 39.9915 354.982 45.7179 348.486 47.4099C345.273 48.2467 332.922 47.1228 328.532 46.9963C323.693 46.8569 318.808 46.903 313.967 46.9626C311.304 46.9955 308.192 46.9447 305.568 47.3742C304.146 47.6069 302.689 48.386 301.27 48.4712C300.123 48.5401 298.912 48.0199 297.768 47.8946C297.343 47.848 296.655 47.8536 296.271 47.6465C295.374 47.1625 294.771 45.9554 294.503 45.0136C294.283 44.2383 294.229 43.6657 294.606 42.9484L295.351 42.795L295.44 42.2893L294.844 42.2972C292.763 43.7924 290.446 43.3068 288.828 44.7706C288.192 46.1067 289.197 48.2316 289.237 49.6974C289.256 50.3919 289.038 50.6037 288.58 51.0904L288.035 50.9721C286.361 49.4391 286.607 47.7039 285.977 45.6981C285.283 43.4902 282.532 43.6797 280.752 42.7289C277.985 41.2505 276.132 38.2018 275.277 35.2655L275.829 35.0869C277.277 38.6881 279.274 41.3726 282.948 42.9224C286.084 44.2452 289.492 44.0427 292.605 42.7481C295.34 41.611 297.138 39.8857 298.467 37.2713C298.755 37.9869 298.746 37.9778 298.451 38.6711C298.256 39.1299 297.991 39.5476 297.727 39.969L297.881 40.3486L298.948 40.4105L299.248 40.089L299.462 40.2898C299.882 40.2535 299.974 40.4429 300.304 40.6821L299.734 40.1485L299.811 39.2672C300.276 39.7415 300.747 40.248 301.286 40.6385C301.775 40.9922 302.256 41.4471 302.863 41.3477C302.7 40.5936 302.065 39.9171 301.613 39.3045C301.675 38.2728 304.333 37.8492 305.576 36.4569C306.84 35.0401 307.541 32.7846 307.451 30.9166Z"/>
	<path fill="#C3DCA0" d="M299.435 44.8724C298.856 44.2784 298.237 43.3189 297.941 42.5451C297.689 41.8878 297.725 41.5495 297.968 40.9097L298.868 40.6471C299.36 41.6638 299.937 42.656 299.937 43.8136C299.786 44.2003 299.661 44.5217 299.435 44.8724Z"/>
	<path fill="#ECECED" d="M176.12 63.6934C181.951 60.4995 192.118 60.3517 198.741 60.5606C201.754 60.6556 205.424 61.1939 208.32 60.2811C210.585 59.567 212.623 57.593 214.681 56.4006C219.624 53.5377 225.394 52.1662 230.943 51.1871C233.625 50.714 236.28 50.0067 238.975 49.6249C248.181 48.3207 256.846 49.9554 265.703 52.3062C266.763 52.5878 267.842 52.7525 268.425 53.7579L267.934 53.8977C256.422 49.4979 245.273 49.3762 233.364 51.6212C227.911 52.6491 223.906 53.48 218.703 55.5123C217.404 56.0194 216.022 56.4931 214.797 57.1591C212.607 58.3496 210.228 60.5389 207.795 61.0949C205.221 61.6829 199.326 60.9809 196.297 61.0275C191.635 61.0992 186.802 61.5617 182.174 62.1132C179.986 62.3738 177.052 63.1184 175.719 65.0689C175.09 65.9898 174.922 68.1465 175.101 69.2247C177.765 69.3432 180.521 68.9289 183.187 68.7563C186.551 68.5384 189.935 68.4871 193.305 68.4045C193.307 68.3569 193.322 68.3081 193.311 68.2615C193.205 67.792 193.208 68.3559 193.167 67.7218C193.122 67.0404 193.415 66.4687 193.857 65.9892C195.831 65.8025 215.917 69.7003 217.29 70.5443C217.825 70.873 218.555 71.3566 219.195 71.1724C221.366 70.5479 224.927 67.8914 227.389 66.8068C230.66 65.366 255.167 57.0376 257.162 57.0209C254.775 58.442 251.698 58.8202 249.086 59.7291C246.247 60.717 243.462 61.8598 240.615 62.8247C232.457 65.5897 226.665 67.3281 219.191 71.8504C216.125 70.3997 205.887 67.6881 202.811 68.8254C200.415 69.7113 197.957 72.712 195.247 72.1013C194.378 71.5537 194.106 71.0982 193.88 70.1053Q193.745 69.5007 193.637 68.8906C187.356 68.9035 180.991 69.9052 174.742 69.721C174.555 67.2797 174.815 65.8001 176.12 63.6934Z"/>
	<path fill="#D2D2D2" d="M193.787 66.4076C195.872 66.7239 200.895 66.9327 202.433 68.1396C199.955 68.5598 196.559 69.2194 194.173 68.3108C193.665 67.6067 193.786 67.2597 193.787 66.4076Z"/>
	<path fill="#021E29" d="M272.53 139.191C278.602 140.61 284.132 144.415 290.064 146.282C289.488 147.281 288.749 148.399 288.353 149.478C287.174 152.697 287.484 154.65 285.141 157.514C278.649 157.799 269.406 153.676 263.171 151.312C264.364 150.998 265.716 151.126 266.945 151.129C269.725 148.09 269.195 145.832 270.591 142.321C271.032 141.212 271.852 140.168 272.53 139.191Z"/>
	<path fill="#ECECED" d="M397.136 84.1393C397.219 84.2181 397.3 84.3001 397.387 84.3758C398.689 85.5141 400.284 84.7756 400.638 87.0639C400.937 88.9891 401.172 92.692 399.783 94.202C398.781 95.2912 396.317 95.8458 394.928 96.2906C387.312 98.7307 380.22 100.212 372.167 100.029Q356.797 99.5386 341.683 96.7041C337.067 95.8381 327.169 92.7943 323.186 92.9425C318.707 93.1091 314.418 103.394 306.162 101.516C305.679 101.465 305.519 101.423 305.06 101.617C302.595 100.924 299.748 102.373 297.24 102.369L298.584 100.169C301.278 98.5601 307.783 98.2891 311.277 96.9716C315.995 95.1923 317.97 90.5217 321.676 89.5183C322.942 89.1754 324.346 89.2836 325.63 89.4836C330.188 90.194 334.757 91.6203 339.275 92.615C344.849 93.842 350.569 94.6429 356.232 95.3365C364.953 96.4046 373.74 96.9835 382.496 95.9999C386.303 95.5722 395.513 94.2549 397.752 91.1538C398.078 90.703 398.235 90.197 398.137 89.6435C397.928 88.4705 396.688 87.5919 395.759 86.9922C395.751 86.8839 395.739 86.7757 395.735 86.6672C395.687 85.5754 396.434 84.8727 397.136 84.1393Z"/>
	<path fill="#021E29" d="M184.271 217.439C189.535 217.937 194.98 219.658 200.112 220.945C200.139 223.497 200.498 226.679 199.67 229.12C198.818 231.631 196 233.291 194.528 235.459C192.345 238.675 190.85 242.382 189.45 245.989C182.902 247.844 178.219 246.243 171.706 245.833C170.806 245.811 169.998 245.835 169.154 245.477C169.675 244.831 171.412 244.555 172.226 244.316C173.936 240.514 175.528 236.28 177.85 232.821C179.534 230.312 182.608 228.425 183.735 225.608C184.674 223.26 184.28 219.939 184.271 217.439Z"/>
	<path fill="#C6E9F7" d="M150.214 231.074C153.937 228.441 157.701 225.304 161.657 223.085C165.87 220.723 171.877 219.165 176.63 218.342C179.157 217.904 181.739 217.831 184.271 217.439C184.28 219.939 184.674 223.26 183.735 225.608C182.608 228.425 179.534 230.312 177.85 232.821C175.528 236.28 173.936 240.514 172.226 244.316C171.412 244.555 169.675 244.831 169.154 245.477C169.998 245.835 170.806 245.811 171.706 245.833C170.495 245.96 168.866 246.253 167.765 245.628C166.533 244.928 166.352 242.554 166.022 241.348C162.839 240.828 159.589 240.352 156.373 240.109C155.672 240.092 155.036 240.076 154.432 239.68C151.559 237.798 150.982 234.16 150.214 231.074Z"/>
	<path fill="#050F13" d="M156.373 240.109L156.565 239.755C156.654 239.738 156.742 239.723 156.831 239.705C160.029 239.066 161.099 232.812 165.074 235.353C165.758 235.79 166.359 236.421 166.942 236.984C166.727 238.427 166.608 240.003 166.022 241.348C162.839 240.828 159.589 240.352 156.373 240.109Z"/>
	<path fill="#B5DEC9" d="M281.535 12.3964C284.775 11.6263 288.379 11.397 291.713 11.5281C295.992 11.6963 298.119 13.753 300.893 16.7255Q303.163 18.782 305.462 20.806C305.847 22.9857 305.644 23.6153 307.401 25.1497C307.589 26.2313 307.815 27.3074 307.835 28.4076C307.886 28.8514 307.984 29.3289 307.956 29.7736L307.451 30.9166C307.541 32.7846 306.84 35.0401 305.576 36.4569C304.333 37.8492 301.675 38.2728 301.613 39.3045C302.065 39.9171 302.7 40.5936 302.863 41.3477C302.256 41.4471 301.775 40.9922 301.286 40.6385C300.747 40.248 300.276 39.7415 299.811 39.2672L299.734 40.1485L300.304 40.6821C299.974 40.4429 299.882 40.2535 299.462 40.2898L299.248 40.089L298.948 40.4105L297.881 40.3486L297.727 39.969C297.991 39.5476 298.256 39.1299 298.451 38.6711C298.746 37.9778 298.755 37.9869 298.467 37.2713C297.138 39.8857 295.34 41.611 292.605 42.7481C289.492 44.0427 286.084 44.2452 282.948 42.9224C279.274 41.3726 277.277 38.6881 275.829 35.0869L275.277 35.2655C274.907 34.5189 274.758 34.0084 274.595 33.1895C274.592 33.1756 274.578 33.1668 274.57 33.1554C273.926 34.4337 272.745 33.9887 272.455 35.6676C273.035 37.3884 275.269 36.8304 274.784 39.1168C274.18 39.8857 273.547 40.0726 272.589 40.1928C270.923 40.4019 268.807 40.144 267.202 39.6642C267.558 38.9484 267.587 38.5356 268.387 38.2496C269.621 37.8084 271.007 37.933 272.081 37.1137L272.039 36.7105C270.908 36.4363 269.944 36.3685 268.786 36.4035C268.425 36.4145 268.244 36.3362 267.926 36.1823C267.853 35.8178 267.797 35.5545 267.905 35.1902C268.4 33.513 268.275 31.702 268.505 29.9688C269.034 25.9767 270.781 19.0486 273.969 16.3847C276.202 14.5189 279.185 14.869 281.286 12.6616L281.535 12.3964Z"/>
	<path fill="#C3DCA0" d="M272.899 37.5515C273.496 37.6289 273.674 37.5966 274.141 37.9995C274.085 38.3653 274.137 38.2594 273.927 38.5958C273.375 39.4794 272.395 39.7562 271.441 39.9573C270.75 39.8705 270.332 39.8255 269.773 39.359C270.105 38.5431 272.06 37.9288 272.899 37.5515Z"/>
	<path fill="#DAEBD0" d="M269.693 28.817C270.111 28.843 270.579 28.864 270.967 29.0351C271.684 29.3509 272.064 29.8485 272.339 30.5511C272.144 31.2023 272.076 31.2244 271.533 31.6472C270.995 31.5696 270.359 31.5228 269.845 31.3477C269.159 31.1136 268.944 30.9055 268.633 30.269C268.851 29.5437 269.111 29.2894 269.693 28.817Z"/>
	<path fill="#DAEBD0" d="M305.462 20.806C305.847 22.9857 305.644 23.6153 307.401 25.1497C307.17 25.4067 306.921 25.596 306.627 25.7751C306.104 26.0937 305.36 26.3346 304.754 26.1707C303.418 25.8098 302.487 23.4588 301.761 22.31C302.039 22.3583 302.317 22.4039 302.599 22.4266C303.725 22.517 304.651 21.4788 305.462 20.806Z"/>
	<path fill="#C3DCA0" d="M301.761 22.31C300.521 21.1076 298.52 18.6598 298.409 16.871C298.378 16.3763 298.483 16.399 298.774 16.0451C299.76 16.0327 300.043 16.2635 300.893 16.7255Q303.163 18.782 305.462 20.806C304.651 21.4788 303.725 22.517 302.599 22.4266C302.317 22.4039 302.039 22.3583 301.761 22.31Z"/>
	<path fill="#EBD90D" d="M275.829 35.0869C275.084 31.3897 275.548 27.2542 277.704 24.082C279.549 21.3674 282.514 19.5628 285.726 18.9596C288.819 18.3787 291.799 19.297 294.332 21.0944C297.041 23.0163 298.993 25.8432 299.5 29.1549C299.922 31.9167 299.4 34.67 298.467 37.2713C297.138 39.8857 295.34 41.611 292.605 42.7481C289.492 44.0427 286.084 44.2452 282.948 42.9224C279.274 41.3726 277.277 38.6881 275.829 35.0869Z"/>
	<path fill="#050F13" d="M412.98 158.218Q414.461 161.852 415.804 165.538C410.094 168.78 405.097 173.42 400.608 178.194C398.773 180.146 397.384 183.101 395.036 184.43C392.298 185.979 388.498 186.176 385.469 186.942C384.521 187.882 383.807 188.912 383.058 190.011C378.4 190.062 372.903 189.574 368.469 191.084C364.657 192.382 361.152 194.471 357.286 195.68C356.167 198.183 355.065 200.703 353.825 203.149C347.762 204.409 334.398 205.516 329.498 208.007C324.321 210.64 319.853 217.183 314.616 218.776C310.86 219.918 306.559 219.122 302.69 219.834C298.735 220.563 294.906 221.905 290.991 222.809C287.807 223.543 284.429 223.825 281.319 224.798C278.854 225.57 276.623 226.889 274.245 227.866C272.406 228.622 270.462 229.103 268.624 229.86C263.431 231.998 261.588 239.096 253.977 240.953C247.898 242.437 235.39 240.122 228.835 238.959C230.881 237.579 235.214 237.594 237.95 235.869C241.954 233.345 244.181 228.651 248.094 226.26C249.952 225.124 252.429 225.093 254.46 224.335C256.967 223.4 259.123 221.614 261.665 220.729C265.12 219.526 268.959 219.245 272.544 218.525C276.529 217.725 280.344 216.204 284.331 215.415C289.162 214.459 294.368 214.489 299.282 214.143C304.543 210.386 309.527 206.112 314.621 202.126C316.38 197.1 317.098 191.586 318.628 186.451C319.322 186.708 322.522 187.52 322.855 187.795C322.857 187.797 323.231 188.504 323.249 188.54C323.264 188.571 323.275 188.604 323.287 188.636C322.387 193.65 320.689 198.53 319.741 203.55Q332.864 200.854 346.107 198.832C346.826 196.585 348.105 193.214 349.737 191.507C351.255 189.919 353.465 189.087 355.442 188.24C364.148 184.513 368.311 184.406 377.629 184.368C377.677 184.3 377.724 184.232 377.773 184.165L378.02 183.831C380.945 179.795 387.065 179.947 391.401 178.182C396.58 171.375 405.191 161.792 412.98 158.218Z"/>
	<path fill="#C6E9F7" d="M311.655 166.073C314.831 163.333 320.917 164.049 324.849 162.964C328.312 162.008 331.175 159.167 334.357 157.538C339.249 155.033 343.761 158.579 348.423 160.014C349.8 160.438 351.196 160.641 352.632 160.43C356.232 159.902 359.593 158.08 363.112 157.206C365.861 156.523 368.812 156.891 371.478 155.846C373.907 154.894 376.056 153.137 378.363 151.915C380.543 150.761 382.607 150.252 385.069 150.181C388.721 150.077 404.213 153.06 408.169 154.312C410.667 155.102 411.761 155.896 412.98 158.218C405.191 161.792 396.58 171.375 391.401 178.182C387.065 179.947 380.945 179.795 378.02 183.831L377.773 184.165C377.724 184.232 377.677 184.3 377.629 184.368C368.311 184.406 364.148 184.513 355.442 188.24C353.465 189.087 351.255 189.919 349.737 191.507C348.105 193.214 346.826 196.585 346.107 198.832Q332.864 200.854 319.741 203.55C320.689 198.53 322.387 193.65 323.287 188.636C323.275 188.604 323.264 188.571 323.249 188.54C323.231 188.504 322.857 187.797 322.855 187.795C322.522 187.52 319.322 186.708 318.628 186.451C318.108 183.278 315.516 177.556 314.375 174.391C312.41 170.967 309.375 167.869 307.775 164.308C309.077 164.852 310.442 165.35 311.655 166.073Z"/>
	<path fill="#23ADE8" d="M307.775 164.308C309.077 164.852 310.442 165.35 311.655 166.073C314.611 168.471 317.446 172.049 319.067 175.512C317.379 175.469 316.025 174.051 314.375 174.391C312.41 170.967 309.375 167.869 307.775 164.308Z"/>
	<path fill="#0B6B93" d="M314.375 174.391C316.025 174.051 317.379 175.469 319.067 175.512C320.092 178.118 323.759 186.088 323.287 188.636C323.275 188.604 323.264 188.571 323.249 188.54C323.231 188.504 322.857 187.797 322.855 187.795C322.522 187.52 319.322 186.708 318.628 186.451C318.108 183.278 315.516 177.556 314.375 174.391Z"/>
	<path fill="#A1D4F1" d="M166.568 50.6196C170.511 46.0732 176.461 41.9313 181.324 38.3816Q183.756 36.6141 186.243 34.9248Q188.731 33.2355 191.27 31.6261Q193.81 30.0167 196.4 28.4889Q198.989 26.961 201.626 25.5162Q204.263 24.0713 206.945 22.711Q209.626 21.3507 212.349 20.0763Q215.073 18.8019 217.835 17.6147Q220.598 16.4275 223.397 15.3287Q226.196 14.2298 229.028 13.2205Q231.86 12.2112 234.723 11.2924Q237.586 10.3735 240.477 9.54617Q243.368 8.71879 246.284 7.9837Q249.199 7.24861 252.137 6.60654Q255.075 5.96447 258.031 5.41607Q260.988 4.86767 263.96 4.4135Q266.933 3.95933 269.918 3.59985C305.065 -0.734388 343.433 6.4226 374.954 22.4129C380.318 25.1339 386.354 28.0703 391.099 31.7799C391.008 31.7607 390.917 31.7438 390.826 31.7225C386.808 30.7768 374.301 21.6857 371.816 22.2952C370.996 23.1286 371.348 23.5402 370.058 24.3764C369.998 24.3751 369.939 24.373 369.879 24.3725C365.863 24.3383 361.478 25.3349 357.434 25.6432C345.572 26.5476 333.689 27.5709 321.804 28.1393C320.491 28.2021 309.342 28.6013 308.981 28.764C308.763 28.8623 308.602 29.0547 308.412 29.2L308.484 29.5426C308.709 30.6409 308.738 31.414 308.526 32.5289L307.956 29.7736C307.984 29.3289 307.886 28.8514 307.835 28.4076C307.815 27.3074 307.589 26.2313 307.401 25.1497C305.644 23.6153 305.847 22.9857 305.462 20.806Q303.163 18.782 300.893 16.7255C298.119 13.753 295.992 11.6963 291.713 11.5281C288.379 11.397 284.775 11.6263 281.535 12.3964L281.286 12.6616C279.185 14.869 276.202 14.5189 273.969 16.3847C270.781 19.0486 269.034 25.9767 268.505 29.9688C268.275 31.702 268.4 33.513 267.905 35.1902C267.797 35.5545 267.853 35.8178 267.926 36.1823C267.874 36.102 267.814 36.0264 267.77 35.9416C267.226 34.8983 267.895 32.8572 267.819 31.616C262.787 30.8082 257.617 32.9298 252.613 33.3688C246.457 33.9088 240.215 33.9708 234.046 34.3075C232.594 34.3868 231.182 34.8235 229.737 34.9006C225.117 35.1473 220.469 35.2855 215.851 35.5935C208.262 36.0998 200.858 36.7677 193.24 36.8583C192.074 36.8722 190.863 37.1136 189.712 37.0648C188.905 37.0306 188.614 36.916 188.029 36.393L187.917 35.5343L187.507 35.3106L187.6 34.8999C183.067 37.9554 170.111 49.5076 166.742 50.5636L166.568 50.6196Z"/>
	<path fill="#C6E9F7" d="M229.237 171.615C239.628 171.2 249.564 168.326 259.743 166.617C266.133 165.544 272.723 165.31 279.057 163.957C283.446 163.019 287.125 159.946 291.762 159.951C294.77 159.955 305.68 162.25 307.775 164.308C309.375 167.869 312.41 170.967 314.375 174.391C315.516 177.556 318.108 183.278 318.628 186.451C317.098 191.586 316.38 197.1 314.621 202.126C309.527 206.112 304.543 210.386 299.282 214.143C294.368 214.489 289.162 214.459 284.331 215.415C280.344 216.204 276.529 217.725 272.544 218.525C268.959 219.245 265.12 219.526 261.665 220.729C259.123 221.614 256.967 223.4 254.46 224.335C252.429 225.093 249.952 225.124 248.094 226.26C244.181 228.651 241.954 233.345 237.95 235.869C235.214 237.594 230.881 237.579 228.835 238.959C228.752 238.948 228.665 238.951 228.585 238.925C224.048 237.455 221.51 231.512 219.21 227.764C217.879 225.596 216.441 223.484 215.032 221.367C214.977 219.388 215.18 217.361 215.282 215.383C217.275 215.315 219.305 215.211 221.291 215.417C224.332 215.731 227.852 216.946 230.885 216.325C231.809 216.135 232.166 215.798 232.628 215.024C232.595 214.143 232.53 214.081 231.977 213.385Q225.167 211.695 218.307 210.219C217.025 209.521 214.487 209.463 213.009 209.244C210.743 195.184 219.901 196.735 224.553 187.166C225.716 184.774 225.902 181.766 226.503 179.176C227.127 176.489 228.083 174.102 229.237 171.615Z"/>
	<path fill="#050F13" d="M227.835 201.897C228.99 202.325 230.181 202.71 231.272 203.284C231.77 204.203 232.292 205.115 232.739 206.06C232.439 206.918 232.089 207.838 231.974 208.741C231.816 209.985 232.493 212.45 231.977 213.385Q225.167 211.695 218.307 210.219C219.307 209.489 220.449 209.252 221.626 208.94C223.376 205.952 224.984 203.967 227.835 201.897Z"/>
	<path fill="#D2D2D2" d="M257.162 57.0209C262.72 54.602 268.516 54.7959 274.437 54.4497C276.003 54.3581 277.837 53.9767 279.386 54.1674C280.695 54.3285 282.025 54.8116 283.246 55.2897C289.332 57.6715 296.488 61.1458 303.142 59.696C305.813 59.1139 308.287 57.8001 311.018 57.4614C315.413 56.9165 321.724 57.6206 326.236 58.013Q337.029 58.8981 347.716 60.642Q358.404 62.3859 368.918 64.9775C374.431 66.309 379.74 68.6533 385.295 69.661L385.483 69.9623C392.859 70.4703 404.559 70.0666 411.651 67.9465C412.956 67.0542 414.538 66.1895 416.148 66.1331C416.745 66.3712 416.907 66.3843 417.131 67.0394C417.15 67.0921 417.178 67.4529 417.183 67.4968C417.308 68.5751 418.276 69.2388 418.336 70.3202L418.239 69.6831C418.531 71.145 418.172 72.7695 417.383 74.0266C413.791 79.7551 406.052 78.5916 400.751 81.2912C399.375 81.992 398.237 83.0766 397.136 84.1393C396.434 84.8727 395.687 85.5754 395.735 86.6672C395.739 86.7757 395.751 86.8839 395.759 86.9922C396.688 87.5919 397.928 88.4705 398.137 89.6435C398.235 90.197 398.078 90.703 397.752 91.1538C395.513 94.2549 386.303 95.5722 382.496 95.9999C373.74 96.9835 364.953 96.4046 356.232 95.3365C350.569 94.6429 344.849 93.842 339.275 92.615C334.757 91.6203 330.188 90.194 325.63 89.4836C324.346 89.2836 322.942 89.1754 321.676 89.5183C317.97 90.5217 315.995 95.1923 311.277 96.9716C307.783 98.2891 301.278 98.5601 298.584 100.169L297.24 102.369L297.081 102.587C296.112 103.944 295.572 105.663 294.407 106.84L294.116 106.675C294.008 105.264 294.331 103.925 294.814 102.604C294.799 102 294.611 101.711 294.271 101.237C293.255 99.8221 293.183 99.1894 293.271 97.4919L292.854 96.8542C290.245 96.8214 286.338 96.2249 283.966 97.3049L283.368 97.975C282.593 97.7519 281.754 97.6812 280.956 97.5633C279.773 97.2718 278.213 97.4369 277.067 97.8372L276.936 98.0916C273.544 97.2573 268.618 98.3437 264.942 98.0829L264.147 100.435C263.872 100.009 263.68 99.8702 263.29 99.5587C262.789 98.9244 262.696 98.6288 261.9 98.412C261.363 98.6103 260.88 98.8098 260.382 99.0933C259.768 99.443 259.245 99.3631 258.601 99.5331L258.859 102.785L258.286 101.923C257.107 101.54 245.963 101.632 244.935 102.12L244.831 101.55C244.196 100.962 243.817 101.086 242.971 101.033C242.893 101.616 242.745 102.193 242.879 102.771L242.315 104.15C240.035 103.501 236.723 103.815 234.309 103.714C228.333 103.465 221.642 102.834 215.962 100.837C211.648 99.3208 211.525 93.3709 207.08 92.5832C201.989 91.681 196.238 91.9744 191.055 91.7428C184.291 91.4404 152.894 89.9792 149.067 87.1151C148.573 86.3011 148.472 85.6357 148.533 84.684C148.661 82.7019 149.503 80.187 151.036 78.8613C151.086 78.818 151.138 78.7769 151.188 78.7347C150.712 77.5806 148.273 77.0471 147.417 75.7354C147.383 75.0253 147.41 74.7025 147.929 74.17C151.251 70.7604 169.343 70.0075 174.742 69.721C180.991 69.9052 187.356 68.9035 193.637 68.8906Q193.745 69.5007 193.88 70.1053C194.106 71.0982 194.378 71.5537 195.247 72.1013C197.957 72.712 200.415 69.7113 202.811 68.8254C205.887 67.6881 216.125 70.3997 219.191 71.8504C226.665 67.3281 232.457 65.5897 240.615 62.8247C243.462 61.8598 246.247 60.717 249.086 59.7291C251.698 58.8202 254.775 58.442 257.162 57.0209Z"/>
	<path fill="#B2B3B2" d="M413.316 67.6056C413.885 67.4507 414.963 66.9824 415.486 67.1935C415.491 69.7359 415.651 72.1593 413.656 74.0453C410.229 77.2852 401.091 78.1756 396.493 77.9689C395.688 77.4139 394.872 76.9087 394.226 76.1662C396.727 74.4468 407.124 75.8462 412.681 72.4326C413.18 70.7665 413.301 69.3334 413.316 67.6056Z"/>
	<path fill="#999899" d="M413.316 67.6056C413.301 69.3334 413.18 70.7665 412.681 72.4326C407.124 75.8462 396.727 74.4468 394.226 76.1662C392.588 74.8973 386.06 71.3439 385.483 69.9623C392.859 70.4703 404.559 70.0666 411.651 67.9465C412.25 67.9615 412.746 67.7724 413.316 67.6056Z"/>
	<path fill="#999899" d="M320.319 79.4723C325.714 81.8938 332.126 83.0251 337.913 84.131C351.907 86.8052 364.757 88.5987 379.06 88.2021C383.563 88.0773 392.015 85.8108 395.759 86.9922C396.688 87.5919 397.928 88.4705 398.137 89.6435C398.235 90.197 398.078 90.703 397.752 91.1538C395.513 94.2549 386.303 95.5722 382.496 95.9999C373.74 96.9835 364.953 96.4046 356.232 95.3365C350.569 94.6429 344.849 93.842 339.275 92.615C334.757 91.6203 330.188 90.194 325.63 89.4836C324.346 89.2836 322.942 89.1754 321.676 89.5183C317.97 90.5217 315.995 95.1923 311.277 96.9716C307.783 98.2891 301.278 98.5601 298.584 100.169L297.24 102.369L297.081 102.587C296.112 103.944 295.572 105.663 294.407 106.84L294.116 106.675C294.008 105.264 294.331 103.925 294.814 102.604C294.799 102 294.611 101.711 294.271 101.237C293.255 99.8221 293.183 99.1894 293.271 97.4919L292.854 96.8542C290.245 96.8214 286.338 96.2249 283.966 97.3049L283.368 97.975C282.593 97.7519 281.754 97.6812 280.956 97.5633C279.773 97.2718 278.213 97.4369 277.067 97.8372L276.936 98.0916C273.544 97.2573 268.618 98.3437 264.942 98.0829L264.147 100.435C263.872 100.009 263.68 99.8702 263.29 99.5587C262.789 98.9244 262.696 98.6288 261.9 98.412C261.363 98.6103 260.88 98.8098 260.382 99.0933C259.768 99.443 259.245 99.3631 258.601 99.5331L258.859 102.785L258.286 101.923C257.107 101.54 245.963 101.632 244.935 102.12L244.831 101.55C244.196 100.962 243.817 101.086 242.971 101.033C240.923 100.373 238.442 100.574 236.298 100.483C231.842 100.295 223.174 99.8498 219.156 98.1726C214.133 96.0758 211.751 89.5914 210.739 89.1757C208.844 88.3975 184.889 87.7672 180.756 87.5147C176.309 87.2429 171.884 86.7156 167.458 86.3757C162.989 86.0324 157.605 86.5881 153.375 84.9101C152.362 84.9177 151.956 85.0109 151.087 84.4356L151.121 83.8897C152.205 82.942 154.106 82.5069 155.504 82.2478C158.61 81.6721 161.952 81.6775 165.105 81.3926C169.96 80.954 174.6 80.243 179.497 80.2103C190.776 80.7893 202.058 81.6815 213.35 81.9574C212.968 83.9798 212.64 86.0304 212.086 88.0139C215.543 90.4218 219.398 91.5434 223.538 92.1532C241.635 94.8195 266.697 92.7824 285.341 91.8796C292.352 91.5401 299.424 91.8642 306.364 90.6234C310.845 89.8223 315.539 88.3382 318.232 84.3858C319.253 82.8878 319.79 81.1892 320.319 79.4723Z"/>
	<path fill="#918E38" d="M277.067 97.8372C277.254 96.4118 277.426 94.8024 278.349 93.6512L278.895 93.6528C279.769 94.4071 279.983 95.3415 280.163 96.4244C280.247 96.9297 280.617 97.1893 280.956 97.5633C279.773 97.2718 278.213 97.4369 277.067 97.8372Z"/>
	<path fill="#918E38" d="M258.301 98.9017C258.575 97.8695 258.71 96.8279 259.565 96.1174C260.206 95.9156 260.531 95.7282 261.169 96.1019C262.105 96.6494 262.944 98.5483 263.29 99.5587C262.789 98.9244 262.696 98.6288 261.9 98.412C261.363 98.6103 260.88 98.8098 260.382 99.0933C259.768 99.443 259.245 99.3631 258.601 99.5331L258.301 98.9017Z"/>
	<path fill="#918E38" d="M293.368 97.3854C293.331 96.3127 293.559 94.9762 294.173 94.0762C294.665 93.3564 295.27 92.9853 296.113 92.8457C296.522 93.0625 296.645 93.0216 296.826 93.4788C297.312 94.7105 296.313 96.1352 295.772 97.2121C294.954 97.3282 294.195 97.4178 293.368 97.3854Z"/>
	<path fill="#EBD90D" d="M295.772 97.2121C297.268 97.5548 298.601 96.4858 299.706 97.0007C299.575 98.1418 299.052 99.1326 298.584 100.169L297.24 102.369L297.081 102.587C296.112 103.944 295.572 105.663 294.407 106.84L294.116 106.675C294.008 105.264 294.331 103.925 294.814 102.604C294.799 102 294.611 101.711 294.271 101.237C293.255 99.8221 293.183 99.1894 293.271 97.4919L293.368 97.3854C294.195 97.4178 294.954 97.3282 295.772 97.2121Z"/>
	<path fill="#B2B3B2" d="M153.375 84.9101C154.508 84.6367 155.94 84.1744 157.106 84.1645C159.529 84.1438 162.086 84.527 164.52 84.7003L181.805 85.9698C190.622 86.5673 199.654 86.4738 208.417 87.4992C209.617 87.6396 210.624 87.9568 211.659 88.6047C214.66 90.4835 214.812 94.4464 218.172 95.9949C220.411 97.0272 223.239 97.1911 225.673 97.5428C227.024 97.7379 228.315 98.2078 229.647 98.3834C234.529 99.0267 240.074 99.0867 245.007 99.029C249.085 98.9813 253.19 98.4987 257.26 98.5348C257.677 98.5385 257.967 98.6525 258.301 98.9017L258.601 99.5331L258.859 102.785L258.286 101.923C257.107 101.54 245.963 101.632 244.935 102.12L244.831 101.55C244.196 100.962 243.817 101.086 242.971 101.033C240.923 100.373 238.442 100.574 236.298 100.483C231.842 100.295 223.174 99.8498 219.156 98.1726C214.133 96.0758 211.751 89.5914 210.739 89.1757C208.844 88.3975 184.889 87.7672 180.756 87.5147C176.309 87.2429 171.884 86.7156 167.458 86.3757C162.989 86.0324 157.605 86.5881 153.375 84.9101Z"/>
</svg>
