<?xml version="1.0" encoding="UTF-8"?>
<svg version="1.1" xmlns="http://www.w3.org/2000/svg" width="772" height="520">
<path d="M0 0 C6.11159961 0.35630563 12.22087782 0.48643731 18.34130859 0.59033203 C19.38643112 0.6082933 20.43155365 0.62625458 21.50834656 0.64476013 C23.58507708 0.68003813 25.66181352 0.71496978 27.73855591 0.74954224 C32.59503552 0.83784363 37.45052784 0.96033187 42.30615234 1.08642578 C43.15706955 1.10838516 44.00798676 1.13034454 44.88468933 1.15296936 C46.8142548 1.20311969 48.74380004 1.25404774 50.67333984 1.30517578 C50.67333984 1.96517578 50.67333984 2.62517578 50.67333984 3.30517578 C51.35783203 3.53333984 52.04232422 3.76150391 52.74755859 3.99658203 C56.37007683 5.61680047 59.34733309 7.85522935 62.48583984 10.24267578 C67.70778388 14.14324261 72.9749759 17.94657537 78.36083984 21.61767578 C86.98475161 27.50402283 95.53484528 33.49291024 104.08251953 39.48925781 C107.54902436 41.91894712 111.01945909 44.34298474 114.49072266 46.76586914 C116.18256149 47.94947804 117.87205925 49.13644102 119.55908203 50.3269043 C123.3017175 52.96681228 127.05161336 55.57123035 130.89990234 58.05517578 C131.54266113 58.4815332 132.18541992 58.90789062 132.84765625 59.34716797 C134.52854119 60.45936624 136.22527233 61.54751723 137.92333984 62.63330078 C144.63855208 69.15773994 146.60582386 80.78040377 149.52490234 89.48095703 C149.9882022 90.85459933 150.4517809 92.2281476 150.9156189 93.60160828 C152.13397288 97.21126087 153.34916398 100.82196953 154.56347656 104.4329834 C156.00187093 108.70921996 157.44176157 112.98495555 158.8856163 117.25935173 C160.0756784 120.78314745 161.25966888 124.30873628 162.4307251 127.83889771 C164.49848387 134.04772971 166.60120281 140.22256733 168.98726082 146.31748295 C169.74527296 148.25597002 170.48562367 150.20038028 171.22177124 152.14726257 C172.12637065 154.51738728 173.06552495 156.87478381 174.04800415 159.21369934 C177.44309227 168.25693503 176.06725361 175.02768017 173.37963867 183.93142128 C172.64725716 186.39283541 171.97896837 188.86458081 171.32507324 191.34794617 C169.84734948 196.9543439 168.31371357 202.54448106 166.77099609 208.13330078 C166.49405851 209.13749809 166.21712093 210.1416954 165.93179131 211.17632294 C164.47145325 216.46770894 163.0063605 221.75775395 161.5378418 227.046875 C160.32891358 231.40470432 159.12988752 235.76507936 157.93920898 240.12792969 C156.49052813 245.4360687 155.02558388 250.73945775 153.54870415 256.03981781 C152.99167161 258.04926789 152.44030904 260.06029893 151.89482307 262.07291412 C151.13358701 264.87662961 150.3515322 267.67373092 149.56420898 270.47021484 C149.34535034 271.29514938 149.1264917 272.12008392 148.90100098 272.97001648 C147.45780283 277.99042103 145.78517082 280.84992286 141.67333984 284.30517578 C141.04024902 284.84327881 140.4071582 285.38138184 139.75488281 285.93579102 C139.14789551 286.40702393 138.5409082 286.87825684 137.91552734 287.36376953 C137.21709717 287.90743164 136.51866699 288.45109375 135.79907227 289.01123047 C135.05633057 289.58260742 134.31358887 290.15398437 133.54833984 290.74267578 C132.76499268 291.34885742 131.98164551 291.95503906 131.17456055 292.57958984 C124.66231753 297.59587317 118.05730874 302.4810477 111.42626953 307.33862305 C105.9739421 311.33479104 100.59182393 315.40353318 95.24755859 319.54345703 C90.5551741 323.1774711 85.83158676 326.77063836 81.11083984 330.36767578 C80.26021973 331.01655762 79.40959961 331.66543945 78.53320312 332.33398438 C76.85498703 333.61264051 75.16465619 334.87557679 73.46170044 336.12109375 C70.66085664 338.20928813 70.66085664 338.20928813 68.44989014 340.62149048 C58.29923683 350.28471701 45.69856857 348.66776527 32.50537109 348.60595703 C29.94006617 348.61966248 27.37477223 348.63558513 24.80949402 348.65361023 C19.44385593 348.68033997 14.07968872 348.67392832 8.71411133 348.64331055 C2.55632832 348.60894334 -3.59752302 348.65098378 -9.75478762 348.73149997 C-15.72891174 348.80662808 -21.70105147 348.8133978 -27.67571449 348.7941494 C-30.19324586 348.79369297 -32.71085674 348.81155861 -35.22810936 348.84902382 C-51.13875612 349.05244036 -61.53873979 347.58734818 -73.60011482 336.78741646 C-76.33770682 334.43719134 -79.30470052 332.5446672 -82.33056641 330.58251953 C-83.41289551 329.86531738 -84.49522461 329.14811523 -85.61035156 328.40917969 C-86.6923584 327.6942334 -87.77436523 326.97928711 -88.88916016 326.24267578 C-90.05803817 325.46384759 -91.22648892 324.68437782 -92.39453125 323.90429688 C-97.33715601 320.60491696 -102.28399649 317.31792153 -107.29931641 314.12939453 C-115.08428007 309.12294731 -120.88860924 304.30185237 -125.97851562 296.39404297 C-127.66980167 293.77349908 -129.40670621 291.18513124 -131.14306641 288.59423828 C-133.23654182 285.46829445 -135.32515947 282.33994778 -137.39306641 279.19702148 C-141.23726503 273.35969359 -145.21322892 267.65899682 -149.35131836 262.02661133 C-152.63473775 257.50303254 -155.75799717 252.87234728 -158.88916016 248.24267578 C-160.13982811 246.39719379 -161.39112705 244.55213926 -162.64306641 242.70751953 C-163.18390869 241.90822021 -163.72475098 241.1089209 -164.28198242 240.28540039 C-166.19172068 237.39007193 -166.19172068 237.39007193 -168.0899353 235.23916626 C-173.89750281 228.02703439 -174.27835406 222.21406464 -174.04541016 213.14892578 C-174.03550978 211.7745139 -174.02870828 210.40007669 -174.02478027 209.02563477 C-174.00533923 205.37103331 -173.94245418 201.71846934 -173.86883545 198.06460571 C-173.79818727 194.27981633 -173.76184532 190.49468137 -173.72119141 186.70947266 C-173.66073444 181.4268111 -173.58489767 176.14473944 -173.49076843 170.86257172 C-173.36723503 163.9072268 -173.30764715 156.95764666 -173.34313965 150.00085449 C-173.36171202 146.13979565 -173.34991943 142.27924922 -173.33081055 138.41821289 C-173.32807977 136.69894996 -173.33735287 134.97961895 -173.35961914 133.26049805 C-173.46319169 124.04987403 -172.97976926 117.47499804 -166.75683594 110.16308594 C-163.89506131 106.79761138 -161.51967829 103.24274714 -159.10400391 99.55126953 C-158.15605574 98.12084574 -157.20747215 96.69084288 -156.25830078 95.26123047 C-155.77079346 94.5246521 -155.28328613 93.78807373 -154.78100586 93.0291748 C-153.22760843 90.68757757 -151.66594219 88.3516897 -150.10205078 86.01708984 C-145.23045675 78.73687511 -140.38877459 71.44579647 -135.70887756 64.04042053 C-133.74183459 60.9367689 -131.74614712 57.85210871 -129.74661255 54.76931763 C-128.814974 53.31660703 -127.89668825 51.8552277 -126.99337769 50.38473511 C-120.62261241 40.0279598 -114.58254866 34.65453417 -103.27807617 30.09802246 C-100.36683307 28.91520475 -97.53441477 27.56852662 -94.68603516 26.24267578 C-91.25156307 24.70449356 -87.8087462 23.1873679 -84.35668945 21.68920898 C-78.151078 18.98275429 -72.04280345 16.20610133 -66.05708313 13.03733826 C-43.49393691 1.11772464 -25.32768994 -1.53263453 0 0 Z " fill="#389C35" transform="translate(219.32666015625,45.69482421875)"/>
<path d="M0 0 C1.95744257 2.93616385 2.27181371 3.69167126 2.49952698 6.99183655 C2.55973022 7.80082901 2.61993347 8.60982147 2.68196106 9.44332886 C2.73865463 10.32707184 2.79534821 11.21081482 2.85375977 12.12133789 C2.9542009 13.52169029 2.9542009 13.52169029 3.05667114 14.95033264 C3.27640097 18.04059343 3.48376172 21.13156195 3.69140625 24.22265625 C3.84220013 26.36598409 3.9938996 28.50924839 4.14646912 30.65245056 C4.54649006 36.29825094 4.93661645 41.94468788 5.32397461 47.59136963 C5.94536558 56.63413469 6.57900143 65.67603302 7.21772575 74.71758842 C7.43948054 77.88267083 7.65540228 81.04811383 7.8707428 84.21363831 C8.00551725 86.14512432 8.14047137 88.07659781 8.27563477 90.00805664 C8.33435257 90.89382385 8.39307037 91.77959106 8.4535675 92.69219971 C8.65732267 96.98258357 8.65732267 96.98258357 10 101 C16.78629994 92.3294678 23.30313613 83.48895563 29.7265625 74.546875 C32.89534689 70.13665271 36.09742663 65.75155626 39.3125 61.375 C39.78679443 60.72934082 40.26108887 60.08368164 40.74975586 59.41845703 C41.83262402 57.94523613 42.91622026 56.47255043 44 55 C45.58350693 58.99164523 44.34485869 62.37209971 43.20507812 66.30932617 C42.90029541 67.40576447 42.90029541 67.40576447 42.58935547 68.52435303 C41.91259597 70.94993155 41.22196923 73.37133194 40.53125 75.79296875 C40.05248736 77.49832012 39.57459697 79.20391659 39.09753418 80.90974426 C37.83311203 85.42191393 36.55695882 89.93068425 35.27832031 94.43884277 C34.00678562 98.92929866 32.7458573 103.42272742 31.484375 107.91601562 C30.01729115 113.14119841 28.5476644 118.36558933 27.06420898 123.58615112 C24.9510334 131.02748356 22.85764532 138.46914404 20.89453125 145.95166016 C20.58447144 147.1170784 20.27441162 148.28249664 19.95495605 149.48323059 C19.40330459 151.5682757 18.86470824 153.6568454 18.34289551 155.7495575 C16.89840195 161.16540876 15.50753089 164.36453128 11 168 C10.36690918 168.53810303 9.73381836 169.07620605 9.08154297 169.63061523 C8.47455566 170.10184814 7.86756836 170.57308105 7.2421875 171.05859375 C6.54375732 171.60225586 5.84532715 172.14591797 5.12573242 172.70605469 C4.01161987 173.56312012 4.01161987 173.56312012 2.875 174.4375 C2.09165283 175.04368164 1.30830566 175.64986328 0.5012207 176.27441406 C-6.01102231 181.29069739 -12.61603111 186.17587192 -19.24707031 191.03344727 C-24.69939774 195.02961526 -30.08151591 199.0983574 -35.42578125 203.23828125 C-40.11816575 206.87229532 -44.84175309 210.46546258 -49.5625 214.0625 C-50.41312012 214.71138184 -51.26374023 215.36026367 -52.14013672 216.02880859 C-53.81835282 217.30746472 -55.50868366 218.57040101 -57.2116394 219.81591797 C-60.01248321 221.90411235 -60.01248321 221.90411235 -62.22344971 224.3163147 C-72.37410302 233.97954123 -84.97477127 232.36258949 -98.16796875 232.30078125 C-100.73327368 232.3144867 -103.29856762 232.33040934 -105.86384583 232.34843445 C-111.22948391 232.37516419 -116.59365112 232.36875254 -121.95922852 232.33813477 C-128.11701152 232.30376756 -134.27086287 232.345808 -140.42812747 232.42632419 C-146.40225159 232.50145229 -152.37439131 232.50822202 -158.34905434 232.48897362 C-160.8665857 232.48851719 -163.38419659 232.50638282 -165.9014492 232.54384804 C-181.81221327 232.74726608 -192.21207253 231.28208501 -204.27355957 220.48216248 C-207.01110883 218.13195524 -209.97813721 216.23957997 -213.00390625 214.27734375 C-214.64069336 213.19163086 -214.64069336 213.19163086 -216.31054688 212.08398438 C-217.38369141 211.37564453 -218.45683594 210.66730469 -219.5625 209.9375 C-225.92321958 205.7312791 -225.92321958 205.7312791 -227.76628113 204.46394348 C-230.85752741 202.34928756 -233.96184235 200.46276967 -237.27661133 198.71557617 C-243.18637359 195.43938661 -248.61074119 192.40843919 -250.7175293 185.65551758 C-251.88685468 180.30197236 -252.21113236 174.89384374 -252.5625 169.4375 C-252.74835168 167.40366274 -252.94207053 165.37053126 -253.14306641 163.33813477 C-253.57132913 158.94628916 -253.96384617 154.55306738 -254.33740234 150.15625 C-255.01590919 142.48878967 -255.93630223 134.85514115 -256.89453125 127.21875 C-257.01807448 126.23051082 -257.01807448 126.23051082 -257.14411354 125.22230721 C-257.55634865 121.92631856 -257.97067732 118.63059799 -258.38595581 115.33499146 C-259.16840844 109.09914913 -259.92951031 102.86089293 -260.6796875 96.62109375 C-260.81369461 95.53248047 -260.94770172 94.44386719 -261.08576965 93.32226562 C-261.66086409 88.52116114 -262.17589484 83.84647529 -262 79 C-256.62893205 81.93477961 -251.73616839 85.24703381 -246.8125 88.875 C-240.25876332 93.65819269 -233.65917967 98.36473946 -227 103 C-220.59909408 107.4586769 -214.24512903 111.97286445 -207.9375 116.5625 C-200.9561273 121.64126703 -193.87190986 126.54902048 -186.71411133 131.37573242 C-183.16898835 133.77824609 -179.67779265 136.20130168 -176.3125 138.8515625 C-175.76577637 139.28114258 -175.21905273 139.71072266 -174.65576172 140.15332031 C-173.24044953 141.28286133 -171.8420599 142.43351909 -170.4453125 143.5859375 C-168.13110295 145.18144504 -168.13110295 145.18144504 -165.6484375 145.07421875 C-161.75159823 143.49364235 -158.76887164 141.05068346 -155.5 138.4375 C-153.97437902 137.2442536 -152.44831742 136.0515704 -150.921875 134.859375 C-150.11943359 134.22837891 -149.31699219 133.59738281 -148.49023438 132.94726562 C-144.27575108 129.65170496 -140.01061541 126.42304373 -135.75 123.1875 C-133.96334938 121.82707542 -132.17689272 120.46639605 -130.390625 119.10546875 C-129.49923828 118.42661621 -128.60785156 117.74776367 -127.68945312 117.04833984 C-122.42351726 113.0377006 -117.15855128 109.02578818 -111.89355469 105.01391602 C-106.50274818 100.90632298 -101.11106985 96.7998801 -95.71777344 92.69555664 C-93.91761468 91.32409182 -92.11876743 89.95090367 -90.32128906 88.57592773 C-86.70104924 85.80744875 -83.08290691 83.04302857 -79.390625 80.37109375 C-68.32839982 72.23953271 -58.5032955 62.43879612 -49.5546875 52.0390625 C-44.88845427 46.63863637 -39.75774125 41.71147043 -34.671875 36.7109375 C-30.51619522 32.59766262 -26.56113059 28.40746623 -22.75097656 23.97363281 C-19.62214146 20.44693134 -16.23901106 17.17541917 -12.875 13.875 C-8.33268018 9.41758336 -3.97994906 4.97106478 0 0 Z " fill="#227875" transform="translate(350,162)"/>
<path d="M0 0 C6.11159961 0.35630563 12.22087782 0.48643731 18.34130859 0.59033203 C19.38643112 0.6082933 20.43155365 0.62625458 21.50834656 0.64476013 C23.58507708 0.68003813 25.66181352 0.71496978 27.73855591 0.74954224 C32.59503552 0.83784363 37.45052784 0.96033187 42.30615234 1.08642578 C43.15706955 1.10838516 44.00798676 1.13034454 44.88468933 1.15296936 C46.8142548 1.20311969 48.74380004 1.25404774 50.67333984 1.30517578 C50.34333984 2.29517578 50.01333984 3.28517578 49.67333984 4.30517578 C50.22376953 4.52947266 50.77419922 4.75376953 51.34130859 4.98486328 C54.39917132 6.71611555 56.52155811 8.92755303 58.98583984 11.43017578 C59.47221924 11.92372559 59.95859863 12.41727539 60.4597168 12.92578125 C63.7228839 16.2620407 66.87296311 19.67166781 69.88696289 23.23388672 C71.06843121 24.6037893 72.27450184 25.95288918 73.50512695 27.27880859 C78.59123924 32.78041331 82.63611 38.55506403 86.54833984 44.93017578 C87.77234179 46.88929593 88.99760581 48.84762813 90.22412109 50.80517578 C90.81402832 51.75005859 91.40393555 52.69494141 92.01171875 53.66845703 C94.19334108 57.13033203 96.448205 60.53775762 98.73583984 63.93017578 C104.20070319 72.05740845 109.51913206 80.27792933 114.84814453 88.49462891 C118.21975667 93.68644257 121.60320878 98.87053732 124.98583984 104.05517578 C125.65059326 105.07417969 126.31534668 106.09318359 127.00024414 107.14306641 C128.55780897 109.5305235 130.11550103 111.91789745 131.67333984 114.30517578 C129.67333984 115.30517578 129.67333984 115.30517578 127.3727417 114.68443298 C126.40814026 114.3336116 125.44353882 113.98279022 124.44970703 113.62133789 C123.35000076 113.22553528 122.25029449 112.82973267 121.11726379 112.42193604 C119.91373764 111.97992859 118.71021149 111.53792114 117.47021484 111.08251953 C116.20801049 110.62491011 114.94556971 110.16795234 113.6829071 109.71160889 C110.29394529 108.48460594 106.90849407 107.24817468 103.52363205 106.0099144 C100.03654218 104.73607736 96.54626309 103.47103898 93.05639648 102.20483398 C75.83012578 95.94951952 58.61886714 89.65087752 41.44384766 83.25610352 C40.72654984 82.98977112 40.00925201 82.72343872 39.2702179 82.44903564 C37.3954194 81.75262297 35.52151865 81.05379477 33.64770508 80.35473633 C31.32308499 79.53445054 29.0764038 78.83537736 26.67333984 78.30517578 C26.35042969 79.10761719 26.35042969 79.10761719 26.02099609 79.92626953 C24.18083727 83.1745499 21.67491717 85.68937506 19.11083984 88.36767578 C15.32931387 92.38354032 11.67975803 96.42817605 8.23583984 100.74267578 C4.2088724 105.76359526 -0.11880719 110.42939395 -4.52734375 115.11132812 C-8.56610552 119.42398429 -12.31613217 123.90356349 -16.01025391 128.51611328 C-19.67655763 132.93051607 -23.60939466 137.09030562 -27.52197266 141.28564453 C-32.33623905 146.44977556 -36.97901045 151.74018415 -41.32666016 157.30517578 C-45.51643624 155.90858375 -46.87881511 152.91004572 -49.20166016 149.36767578 C-50.18796821 147.89759999 -51.17632957 146.4289002 -52.16650391 144.96142578 C-52.68325684 144.19443359 -53.20000977 143.42744141 -53.73242188 142.63720703 C-56.33667861 138.82773378 -59.04878324 135.09837109 -61.76416016 131.36767578 C-65.99458315 125.54288168 -70.18657952 119.69453805 -74.32666016 113.80517578 C-78.6374018 107.68480048 -82.96521067 101.57704549 -87.32666016 95.49267578 C-87.86677734 94.73341797 -88.40689453 93.97416016 -88.96337891 93.19189453 C-89.47513672 92.48033203 -89.98689453 91.76876953 -90.51416016 91.03564453 C-90.96146484 90.41069092 -91.40876953 89.7857373 -91.86962891 89.1418457 C-93.54444978 87.0306397 -95.39236765 85.17863334 -97.32666016 83.30517578 C-97.50188705 83.88461441 -97.67711395 84.46405304 -97.85765076 85.06105042 C-98.7207662 87.91463733 -99.58425498 90.76811114 -100.44775391 93.62158203 C-100.7788768 94.71630829 -101.10999969 95.81103455 -101.45115662 96.93893433 C-103.31741478 103.10470913 -105.19063176 109.26826074 -107.07519531 115.4284668 C-107.86906486 118.02526471 -108.66244769 120.62221095 -109.45556641 123.21923828 C-109.65632278 123.8762995 -109.85707916 124.53336071 -110.06391907 125.21033287 C-112.69277816 133.82303323 -115.25438399 142.45203202 -117.74385071 151.10603333 C-119.18820063 156.12373445 -120.66787274 161.1309714 -122.14822388 166.13815308 C-122.84590807 168.52540569 -123.53009303 170.91664839 -124.20016479 173.3117981 C-130.53808272 195.92570014 -130.53808272 195.92570014 -139.74755859 201.86547852 C-140.59866211 202.34057861 -141.44976562 202.81567871 -142.32666016 203.30517578 C-143.52917116 204.17147639 -144.72249374 205.05086451 -145.90087891 205.94970703 C-146.92826172 206.66513672 -147.95564453 207.38056641 -149.01416016 208.11767578 C-155.20084999 212.45881183 -161.24916897 216.96669268 -167.26098633 221.54663086 C-172.22191961 225.30517578 -172.22191961 225.30517578 -173.32666016 225.30517578 C-173.38031888 207.8815438 -173.39667283 190.45848019 -173.3500061 173.03482056 C-173.33027968 165.38107919 -173.33323907 157.72845529 -173.37486267 150.07473755 C-173.38795636 146.23049868 -173.36875829 142.3870225 -173.33786011 138.54290771 C-173.3304793 136.82110908 -173.3367636 135.09918964 -173.35769653 133.37750244 C-173.46189784 124.13343993 -173.00946846 117.49578007 -166.75683594 110.15869141 C-163.89286887 106.79581747 -161.51911118 103.24236723 -159.10400391 99.55126953 C-158.15606523 98.12083945 -157.2074814 96.69083674 -156.25830078 95.26123047 C-155.77079346 94.5246521 -155.28328613 93.78807373 -154.78100586 93.0291748 C-153.22760843 90.68757757 -151.66594219 88.3516897 -150.10205078 86.01708984 C-145.23045675 78.73687511 -140.38877459 71.44579647 -135.70887756 64.04042053 C-133.74183459 60.9367689 -131.74614712 57.85210871 -129.74661255 54.76931763 C-128.814974 53.31660703 -127.89668825 51.8552277 -126.99337769 50.38473511 C-120.62261241 40.0279598 -114.58254866 34.65453417 -103.27807617 30.09802246 C-100.36683307 28.91520475 -97.53441477 27.56852662 -94.68603516 26.24267578 C-91.25156307 24.70449356 -87.8087462 23.1873679 -84.35668945 21.68920898 C-78.151078 18.98275429 -72.04280345 16.20610133 -66.05708313 13.03733826 C-43.49393691 1.11772464 -25.32768994 -1.53263453 0 0 Z " fill="#88BC37" transform="translate(219.32666015625,45.69482421875)"/>
<path d="M0 0 C5.67256681 3.10514338 10.91545662 6.63596214 16.1875 10.375 C17.97259907 11.63289365 19.75775697 12.89070382 21.54296875 14.1484375 C22.44966309 14.7887793 23.35635742 15.42912109 24.29052734 16.08886719 C28.51866426 19.07119335 32.75961722 22.03512503 37 25 C38.66673557 26.16656822 40.33340206 27.33323515 42 28.5 C42.825 29.0775 43.65 29.655 44.5 30.25 C47 32 49.5 33.75 52 35.5 C52.8262085 36.07830566 53.65241699 36.65661133 54.50366211 37.25244141 C56.15827492 38.41075128 57.81273637 39.56927739 59.46704102 40.72802734 C63.81686926 43.77440927 68.16982286 46.81619212 72.52734375 49.8515625 C73.43291016 50.48320313 74.33847656 51.11484375 75.27148438 51.765625 C77.00228452 52.97274715 78.73400292 54.17855415 80.46679688 55.3828125 C81.64145508 56.20265625 81.64145508 56.20265625 82.83984375 57.0390625 C83.86646118 57.75376709 83.86646118 57.75376709 84.91381836 58.48291016 C85.94647827 59.23386963 85.94647827 59.23386963 87 60 C87.81226044 60.55131088 88.62452087 61.10262177 89.46139526 61.67063904 C92.57914587 64.53140994 93.37967684 66.78251203 94.70385742 70.78686523 C94.93236389 71.46263107 95.16087036 72.13839691 95.39630127 72.8346405 C96.14828472 75.07108531 96.87674584 77.31447293 97.60546875 79.55859375 C98.13339602 81.14299454 98.66282898 82.72689434 99.19367981 84.31031799 C100.59340507 88.4981503 101.97359761 92.69216423 103.3494873 96.88787842 C104.71511487 101.04274807 106.0969978 105.19218921 107.47851562 109.34179688 C109.10011517 114.2145313 110.72038295 119.0876701 112.33126831 123.96395874 C116.14681663 135.50531685 120.06948729 147.006139 124.09648132 158.47544861 C124.6738781 160.12934349 124.6738781 160.12934349 125.26293945 161.81665039 C125.76903496 163.25519127 125.76903496 163.25519127 126.28535461 164.72279358 C127 167 127 167 127 169 C125.34063997 170.67394141 123.67253722 172.33922464 122 174 C120.47772478 176.00973007 119.00159728 178.05489473 117.5625 180.125 C116.69417754 181.36301095 115.82429403 182.59992799 114.953125 183.8359375 C114.25026367 184.83318848 114.25026367 184.83318848 113.53320312 185.85058594 C110.67725233 189.85437428 107.7397395 193.79820726 104.8125 197.75 C100.11313333 204.10351346 95.46117686 210.47594813 91 217 C89.45536116 214.22093983 88.71924913 212.05439128 88.50047302 208.88790894 C88.41016815 207.67235825 88.41016815 207.67235825 88.31803894 206.43225098 C88.26134537 205.55210327 88.20465179 204.67195557 88.14624023 203.76513672 C88.0457991 202.36456528 88.0457991 202.36456528 87.94332886 200.93569946 C87.72393479 197.8508571 87.51639839 194.76533031 87.30859375 191.6796875 C87.15776933 189.53779101 87.00606992 187.39595597 86.85353088 185.25418091 C86.45382152 179.61659553 86.06357669 173.97839862 85.67602539 168.33996582 C85.05421295 159.30713776 84.42097102 150.27512133 83.78227425 141.24347305 C83.56056696 138.08281757 83.34463637 134.92180388 83.1292572 131.76071167 C82.99448733 129.83248561 82.85953346 127.9042724 82.72436523 125.97607422 C82.66564743 125.09187805 82.60692963 124.20768188 82.5464325 123.29669189 C82.3418293 119.01199184 82.3418293 119.01199184 81 115 C79.94425781 116.16402344 79.94425781 116.16402344 78.8671875 117.3515625 C72.73884255 124.06866593 66.48653803 130.61811818 59.98583984 136.97705078 C57.07718871 139.84125588 54.30610237 142.75910546 51.64453125 145.85546875 C46.94811022 151.29257203 41.79161409 156.25522508 36.671875 161.2890625 C32.48530327 165.43291411 28.48281662 169.65105813 24.64013672 174.11523438 C15.80336845 184.27002018 5.95258112 192.65796406 -4.94238281 200.50244141 C-8.4050697 203.02262666 -11.79339646 205.6385996 -15.1875 208.25 C-16.61304911 209.34275082 -18.03883574 210.43519184 -19.46484375 211.52734375 C-20.19815918 212.08921387 -20.93147461 212.65108398 -21.68701172 213.22998047 C-25.86964527 216.43075028 -30.06001438 219.62136424 -34.25 222.8125 C-35.12841553 223.481604 -36.00683105 224.15070801 -36.91186523 224.84008789 C-40.51009765 227.5807716 -44.10857163 230.32113806 -47.70703125 233.06152344 C-49.50196628 234.42850543 -51.29680726 235.79561093 -53.09155273 237.1628418 C-54.84841157 238.50085542 -56.60572776 239.83826877 -58.36352539 241.17504883 C-62.59841103 244.39763678 -66.82299231 247.6321789 -71.02734375 250.89453125 C-71.81463867 251.50337158 -72.60193359 252.11221191 -73.41308594 252.73950195 C-74.8947251 253.88635683 -76.37340196 255.03705225 -77.84863281 256.19213867 C-82.77638171 260 -82.77638171 260 -85 260 C-86.62061557 256.75876887 -86.43747152 253.16416747 -86.66430664 249.59399414 C-86.72297409 248.72379639 -86.78164154 247.85359863 -86.84208679 246.95703125 C-87.03576331 244.0666754 -87.22311572 241.17594856 -87.41015625 238.28515625 C-87.54297497 236.27410606 -87.67607108 234.26307418 -87.80943298 232.25205994 C-88.08869706 228.02620798 -88.36489684 223.80016982 -88.63891602 219.57397461 C-88.98881829 214.18048244 -89.34571885 208.78748189 -89.7049036 203.39460087 C-89.98126033 199.23468848 -90.25408144 195.07454991 -90.52584648 190.91433525 C-90.65599284 188.9277318 -90.78715696 186.94119474 -90.91938972 184.95472908 C-92.2423326 165.01801699 -92.2423326 165.01801699 -92 156 C-82.37168752 157.62839791 -73.23701764 160.59084794 -63.9453125 163.5234375 C-62.19486346 164.07192028 -60.44428113 164.61997784 -58.693573 165.16763306 C-55.03643689 166.31276864 -51.38035137 167.4611749 -47.72509766 168.61230469 C-43.07125499 170.07791479 -38.41575747 171.53817411 -33.75956917 172.9963131 C-29.27929241 174.39951672 -24.79973 175.80499364 -20.3203125 177.2109375 C-19.4816074 177.47407116 -18.6429023 177.73720482 -17.77878189 178.00831223 C-8.49090889 180.92440583 0.77995617 183.87466494 10 187 C2.19466508 159.43347886 -5.75198504 131.91189683 -13.875 104.4375 C-14.07825645 103.75001804 -14.28151291 103.06253609 -14.49092865 102.35422134 C-16.9902992 93.90173141 -19.4933193 85.45032512 -22 77 C-18.38900286 75.79633429 -17.48753429 76.29211407 -13.98583984 77.57617188 C-12.95583862 77.94876633 -11.9258374 78.32136078 -10.86462402 78.70524597 C-9.74140747 79.1222023 -8.61819092 79.53915863 -7.4609375 79.96875 C-6.28728638 80.39622025 -5.11363525 80.82369049 -3.90441895 81.26411438 C-0.71771888 82.42673983 2.46580419 83.59739816 5.64817047 84.77179337 C8.936052 85.98295351 12.22771169 87.18375166 15.51904297 88.38549805 C20.81943677 90.32223164 26.11764151 92.26483142 31.4140625 94.21240234 C38.26217436 96.73050417 45.11449716 99.23694734 51.96875 101.73828125 C61.31563194 105.15033878 70.65924507 108.57120665 80 112 C79.09021607 109.27064821 78.14589554 107.51538508 76.5859375 105.140625 C76.0801416 104.36678467 75.5743457 103.59294434 75.05322266 102.7956543 C74.49940918 101.95558838 73.9455957 101.11552246 73.375 100.25 C72.79669434 99.36675049 72.21838867 98.48350098 71.62255859 97.57348633 C70.38438621 95.68245038 69.14492339 93.79225884 67.90429688 91.90283203 C65.42291882 88.12032112 62.95309327 84.33034353 60.48364258 80.54003906 C58.60366506 77.65475634 56.72192618 74.77062879 54.83984375 71.88671875 C51.59473391 66.91331633 48.35458591 61.93670059 45.11572266 56.95922852 C43.22573944 54.05868577 41.33007223 51.16192373 39.43359375 48.265625 C37.33746753 45.06242635 35.26418382 41.84760837 33.22265625 38.609375 C28.61485617 31.3717269 23.76375522 25.33440628 17.53125 19.42578125 C15.30162506 17.28905735 13.29816315 15.11023142 11.3125 12.75 C8.34479177 9.24925679 5.05599145 6.34359834 1.50390625 3.4453125 C0.75947266 2.72988281 0.75947266 2.72988281 0 2 C0 1.34 0 0.68 0 0 Z " fill="#009438" transform="translate(269,48)"/>
<path d="M0 0 C1.50474818 2.74163546 2.31383473 5.01726301 2.69607544 8.1164093 C2.85165421 9.33374252 2.85165421 9.33374252 3.01037598 10.57566833 C3.11539429 11.45731155 3.2204126 12.33895477 3.32861328 13.24731445 C3.44594818 14.18275085 3.56328308 15.11818726 3.68417358 16.08197021 C4.07016867 19.17488643 4.4454451 22.26899817 4.8203125 25.36328125 C5.08597231 27.5156237 5.35216431 29.66790053 5.61886597 31.82011414 C6.17648212 36.33289094 6.72905314 40.84624761 7.27783203 45.36010742 C7.98048584 51.13795714 8.69338541 56.91448354 9.40980721 62.69064045 C9.96047797 67.13666751 10.50679336 71.58322099 11.05169296 76.02995872 C11.31295873 78.15948933 11.57531129 80.28888689 11.83877945 82.41814613 C12.20682652 85.39976447 12.56927424 88.38201137 12.93017578 91.36450195 C13.03924255 92.24007248 13.14830933 93.11564301 13.26068115 94.01774597 C13.82296926 98.71887643 14.10924884 103.26532666 14 108 C6.86714229 106.1147081 -0.17045091 104.04710771 -7.17578125 101.734375 C-8.12395218 101.42372604 -9.07212311 101.11307709 -10.04902649 100.79301453 C-12.08255486 100.12647673 -14.11570315 99.45877843 -16.14849854 98.79000854 C-19.36188798 97.73376615 -22.57695861 96.68278805 -25.79248047 95.63305664 C-35.86061567 92.34342518 -45.92169447 89.03495806 -55.96250916 85.66275024 C-60.17443202 84.24965748 -64.38990693 82.84735029 -68.60580444 81.44616699 C-70.60848319 80.7771027 -72.60935138 80.10259276 -74.60830688 79.42248535 C-77.39342278 78.47521997 -80.18407011 77.54634518 -82.9765625 76.62109375 C-84.19838982 76.19735725 -84.19838982 76.19735725 -85.44490051 75.76506042 C-92.1656694 73.57195996 -96.96945035 73.91984037 -103.41772461 76.97094727 C-105.08464328 77.82569053 -106.74590173 78.69153267 -108.40234375 79.56640625 C-109.30571472 80.0327951 -110.20908569 80.49918396 -111.13983154 80.97970581 C-113.07482332 81.98010677 -115.00742955 82.98513308 -116.93783569 83.99435425 C-119.95428536 85.57127495 -122.9766817 87.13616671 -126.0012207 88.69750977 C-129.05765894 90.27538254 -132.11377169 91.85384002 -135.16801453 93.43595886 C-143.62298802 97.81539029 -152.1054812 102.13721157 -160.61941528 106.40084839 C-162.65756948 107.42249698 -164.69293552 108.44955792 -166.72827148 109.47680664 C-167.94755824 110.08779298 -169.16702863 110.69841304 -170.38671875 111.30859375 C-171.95232544 112.09447876 -171.95232544 112.09447876 -173.54956055 112.89624023 C-176 114 -176 114 -178 114 C-180.72490851 94.71646406 -183.10957717 75.39032648 -185.4987793 56.06298828 C-186.07701725 51.38695077 -186.65995956 46.71151177 -187.24392223 42.03618622 C-187.69676394 38.40421634 -188.14633388 34.77184692 -188.5949955 31.13935852 C-188.8086921 29.41369264 -189.02358731 27.68817472 -189.23973656 25.96281433 C-189.53982708 23.5648151 -189.835293 21.16628834 -190.12963867 18.76757812 C-190.21843292 18.06630295 -190.30722717 17.36502777 -190.39871216 16.64250183 C-190.87234153 12.7374278 -191.08507872 8.9327608 -191 5 C-185.62893205 7.93477961 -180.73616839 11.24703381 -175.8125 14.875 C-169.25876332 19.65819269 -162.65917967 24.36473946 -156 29 C-149.59909408 33.4586769 -143.24512903 37.97286445 -136.9375 42.5625 C-129.9561273 47.64126703 -122.87190986 52.54902048 -115.71411133 57.37573242 C-112.16898835 59.77824609 -108.67779265 62.20130168 -105.3125 64.8515625 C-104.76577637 65.28114258 -104.21905273 65.71072266 -103.65576172 66.15332031 C-102.24044953 67.28286133 -100.8420599 68.43351909 -99.4453125 69.5859375 C-97.13110295 71.18144504 -97.13110295 71.18144504 -94.6484375 71.07421875 C-90.75159823 69.49364235 -87.76887164 67.05068346 -84.5 64.4375 C-82.97437902 63.2442536 -81.44831742 62.0515704 -79.921875 60.859375 C-79.11943359 60.22837891 -78.31699219 59.59738281 -77.49023438 58.94726562 C-73.27575108 55.65170496 -69.01061541 52.42304373 -64.75 49.1875 C-62.96334938 47.82707542 -61.17689272 46.46639605 -59.390625 45.10546875 C-58.49923828 44.42661621 -57.60785156 43.74776367 -56.68945312 43.04833984 C-53.16395623 40.36325279 -49.63895035 37.67752165 -46.11401367 34.99169922 C-44.37465284 33.6664255 -42.63523249 32.34122989 -40.89575195 31.01611328 C-36.40729652 27.59677746 -31.91973255 24.17628104 -27.43359375 20.75390625 C-18.31588998 13.79973903 -9.19422858 6.85284117 0 0 Z " fill="#008983" transform="translate(279,236)"/>
<path d="M0 0 C1.20196266 0.39541237 1.20196266 0.39541237 2.4282074 0.79881287 C5.06014176 1.666578 7.6884748 2.54474835 10.31689453 3.4230957 C12.16784868 4.03569938 14.01901845 4.64765193 15.87039185 5.25898743 C20.74164931 6.8694659 25.60991208 8.4888165 30.4776001 10.11004639 C35.37276181 11.73868413 40.27073186 13.35882755 45.16845703 14.97973633 C61.64439102 20.43537293 78.11041765 25.92071531 94.57470703 31.41137695 C90.84962473 34.33320226 86.91243766 36.17964646 82.58642578 38.04418945 C81.78714157 38.39367142 80.98785736 38.74315338 80.16435242 39.10322571 C77.53244072 40.25258198 74.89736985 41.39449678 72.26220703 42.53637695 C70.43143461 43.33416281 68.60087079 44.13242755 66.77050781 44.93115234 C62.96511809 46.59070024 59.15841025 48.24716909 55.35058594 49.90112305 C49.70761691 52.35249396 44.06845941 54.81253331 38.43017578 57.2746582 C31.73727742 60.19648465 25.04376106 63.11687777 18.34814453 66.0324707 C17.66129074 66.33171951 16.97443695 66.63096832 16.26676941 66.93928528 C12.04233685 68.77811276 7.81098358 70.59999643 3.57470703 72.41137695 C4.79167015 72.52079872 4.79167015 72.52079872 6.03321838 72.63243103 C13.69831631 73.32195629 21.36325271 74.01323987 29.02801609 74.70647335 C32.96805428 75.06276516 36.90815031 75.41838917 40.84838867 75.77246094 C44.65458917 76.1145132 48.46062436 76.45835372 52.26655388 76.80340767 C53.71486666 76.93440326 55.16323678 77.06476652 56.61166573 77.19447136 C58.64841347 77.37697083 60.68494126 77.56176675 62.72143555 77.74707031 C64.45684349 77.90362343 64.45684349 77.90362343 66.22731018 78.06333923 C69.69254184 78.42362855 73.12924712 78.89710392 76.57470703 79.41137695 C76.57470703 79.74137695 76.57470703 80.07137695 76.57470703 80.41137695 C62.00516061 80.69319886 47.43598044 80.90403088 32.86425114 81.03312302 C26.09631149 81.09468985 19.33007662 81.17842862 12.56323242 81.31665039 C6.02101163 81.45021884 -0.52011129 81.51897909 -7.06363106 81.54990387 C-9.54788478 81.57191369 -12.03205245 81.61489335 -14.5155468 81.68013763 C-30.41424662 82.08083718 -40.64362103 80.70375604 -52.69497967 69.89870644 C-55.43313324 67.54506532 -58.40086594 65.65192949 -61.42919922 63.6887207 C-62.51225342 62.97071289 -63.59530762 62.25270508 -64.71118164 61.51293945 C-66.33310425 60.44172852 -66.33310425 60.44172852 -67.98779297 59.34887695 C-70.30918611 57.80753185 -72.62893376 56.26371714 -74.94873047 54.7199707 C-75.50733261 54.34846893 -76.06593475 53.97696716 -76.64146423 53.59420776 C-81.47440089 50.37999673 -86.30627365 47.16499505 -91.11279297 43.91137695 C-91.77158447 43.47301514 -92.43037598 43.03465332 -93.10913086 42.58300781 C-94.5845738 41.5776825 -96.01192352 40.50224709 -97.42529297 39.41137695 C-97.42529297 38.75137695 -97.42529297 38.09137695 -97.42529297 37.41137695 C-96.32346931 36.86213058 -96.32346931 36.86213058 -95.1993866 36.30178833 C-88.1846561 32.80455504 -81.17095843 29.30526197 -74.15833569 25.8038044 C-70.55539854 24.00491529 -66.95210396 22.20675095 -63.34790039 20.41040039 C-59.8637568 18.67387259 -56.38076601 16.93504967 -52.89834976 15.19506073 C-51.52855068 14.51127614 -50.15829827 13.82839891 -48.78759384 13.14643097 C-42.28614017 9.91169149 -35.80442578 6.66487843 -29.45507812 3.13696289 C-28.15199455 2.41813431 -28.15199455 2.41813431 -26.82258606 1.68478394 C-25.28625434 0.82783553 -23.75919042 -0.04609808 -22.24516296 -0.94186401 C-21.58055557 -1.31272125 -20.91594818 -1.68357849 -20.23120117 -2.06567383 C-19.68196487 -2.38722443 -19.13272858 -2.70877502 -18.56684875 -3.04006958 C-12.46308485 -4.60353147 -5.7716757 -1.94638504 0 0 Z " fill="#3C748B" transform="translate(198.42529296875,312.588623046875)"/>
<path d="M0 0 C27.68195603 -0.15834966 55.32765526 0.27994452 83 1 C82.67 1.99 82.34 2.98 82 4 C82.55042969 4.22429688 83.10085938 4.44859375 83.66796875 4.6796875 C86.72583148 6.41093976 88.84821826 8.62237725 91.3125 11.125 C91.79887939 11.6185498 92.28525879 12.11209961 92.78637695 12.62060547 C96.04954406 15.95686492 99.19962326 19.36649203 102.21362305 22.92871094 C103.39509136 24.29861352 104.601162 25.6477134 105.83178711 26.97363281 C110.9178994 32.47523752 114.96277015 38.24988825 118.875 44.625 C120.09900195 46.58412015 121.32426597 48.54245235 122.55078125 50.5 C123.14068848 51.44488281 123.7305957 52.38976562 124.33837891 53.36328125 C126.52000124 56.82515625 128.77486516 60.23258184 131.0625 63.625 C136.52736334 71.75223267 141.84579221 79.97275355 147.17480469 88.18945312 C150.54641683 93.38126679 153.92986894 98.56536154 157.3125 103.75 C157.97725342 104.76900391 158.64200684 105.78800781 159.3269043 106.83789062 C160.88446913 109.22534772 162.44216119 111.61272167 164 114 C162 115 162 115 159.71958923 114.38598633 C158.28625999 113.86427856 158.28625999 113.86427856 156.82397461 113.33203125 C155.73379532 112.93935059 154.64361603 112.54666992 153.520401 112.14208984 C152.32644211 111.7033252 151.13248322 111.26456055 149.90234375 110.8125 C148.64876009 110.35820652 147.3949248 109.90460683 146.14085388 109.45166016 C142.06926123 107.97813744 138.00316867 106.48977489 133.9375 105 C132.54676091 104.49097078 131.15599348 103.98201899 129.76519775 103.47314453 C128.72970732 103.09425079 128.72970732 103.09425079 127.67329788 102.70770264 C124.87849272 101.68528184 122.08350448 100.66336258 119.28839111 99.64178467 C117.88720228 99.12942517 116.48618157 98.61660564 115.08532715 98.10333252 C106.1682534 94.83740305 97.22500824 91.68957228 88.21484375 88.6875 C85.45459789 87.74890737 82.69573799 86.8063806 79.93753052 85.86181641 C78.25463252 85.29583325 76.56638096 84.74548022 74.87277222 84.21240234 C63.10711211 80.50175693 56.92378235 75.93505046 50.10040283 65.62646484 C48.61789203 63.43522029 46.95792497 61.4247495 45.25 59.40625 C44.71044678 58.75648193 44.17089355 58.10671387 43.61499023 57.43725586 C43.08204346 56.79796143 42.54909668 56.15866699 42 55.5 C37.28516107 49.81007743 32.65542969 44.06670181 28.11328125 38.23828125 C24.63144627 33.77908908 21.07677466 29.38328169 17.5 25 C15.87220317 22.99902467 14.24549846 20.9971705 12.61962891 18.99462891 C11.53179409 17.65492278 10.44291104 16.31606719 9.35302734 14.97802734 C7.79013382 13.0539234 6.23752352 11.12197817 4.6875 9.1875 C4.213125 8.60677734 3.73875 8.02605469 3.25 7.42773438 C0 3.34327492 0 3.34327492 0 0 Z " fill="#74B728" transform="translate(187,46)"/>
<path d="M0 0 C0.99 0.495 0.99 0.495 2 1 C0.96004144 4.43892499 -0.08048776 7.87767712 -1.12109375 11.31640625 C-1.45221664 12.41113251 -1.78333954 13.50585876 -2.12449646 14.63375854 C-3.99075462 20.79953335 -5.8639716 26.96308496 -7.74853516 33.12329102 C-8.5424047 35.72008893 -9.33578754 38.31703517 -10.12890625 40.9140625 C-10.32966263 41.57112371 -10.53041901 42.22818493 -10.73725891 42.90515709 C-13.36611801 51.51785745 -15.92772384 60.14685624 -18.41719055 68.80085754 C-19.86154047 73.81855867 -21.34121258 78.82579562 -22.82156372 83.83297729 C-23.51924791 86.22022991 -24.20343287 88.61147261 -24.87350464 91.00662231 C-31.21142256 113.62052436 -31.21142256 113.62052436 -40.42089844 119.56030273 C-41.27200195 120.03540283 -42.12310547 120.51050293 -43 121 C-44.20251101 121.86630061 -45.39583358 122.74568873 -46.57421875 123.64453125 C-47.60160156 124.35996094 -48.62898438 125.07539063 -49.6875 125.8125 C-55.87418984 130.15363605 -61.92250882 134.6615169 -67.93432617 139.24145508 C-72.89525946 143 -72.89525946 143 -74 143 C-74.03063797 133.02084471 -74.05098987 123.04169392 -74.0625 113.0625 C-74.06335602 112.32557545 -74.06421204 111.58865089 -74.06509399 110.82939529 C-74.0903637 86.20638366 -73.8268971 61.61118455 -73 37 C-71.32127808 36.21858643 -71.32127808 36.21858643 -69.60864258 35.42138672 C-61.88017817 31.81223532 -54.19242002 28.18407097 -46.6875 24.125 C-39.31266755 20.18966452 -31.87366388 16.40821644 -24.38012695 12.7043457 C-20.22799704 10.64364686 -16.10888093 8.54089062 -12.03125 6.3359375 C-11.24637207 5.9119165 -10.46149414 5.48789551 -9.65283203 5.05102539 C-8.16549231 4.24231431 -6.6818878 3.42668468 -5.20263672 2.60327148 C-3.49927342 1.67642303 -1.75283176 0.82950311 0 0 Z " fill="#74B728" transform="translate(120,128)"/>
<path d="M0 0 C5.67256681 3.10514338 10.91545662 6.63596214 16.1875 10.375 C17.97259907 11.63289365 19.75775697 12.89070382 21.54296875 14.1484375 C22.44966309 14.7887793 23.35635742 15.42912109 24.29052734 16.08886719 C28.51866426 19.07119335 32.75961722 22.03512503 37 25 C38.66673557 26.16656822 40.33340206 27.33323515 42 28.5 C42.825 29.0775 43.65 29.655 44.5 30.25 C47 32 49.5 33.75 52 35.5 C52.8262085 36.07830566 53.65241699 36.65661133 54.50366211 37.25244141 C56.15827492 38.41075128 57.81273637 39.56927739 59.46704102 40.72802734 C63.81686926 43.77440927 68.16982286 46.81619212 72.52734375 49.8515625 C73.43291016 50.48320313 74.33847656 51.11484375 75.27148438 51.765625 C77.00228452 52.97274715 78.73400292 54.17855415 80.46679688 55.3828125 C81.24990234 55.929375 82.03300781 56.4759375 82.83984375 57.0390625 C83.52425537 57.51553223 84.20866699 57.99200195 84.91381836 58.48291016 C85.6022583 58.9835498 86.29069824 59.48418945 87 60 C88.21839066 60.82696632 88.21839066 60.82696632 89.46139526 61.67063904 C92.57914587 64.53140994 93.37967684 66.78251203 94.70385742 70.78686523 C94.93236389 71.46263107 95.16087036 72.13839691 95.39630127 72.8346405 C96.14828472 75.07108531 96.87674584 77.31447293 97.60546875 79.55859375 C98.13339602 81.14299454 98.66282898 82.72689434 99.19367981 84.31031799 C100.59340507 88.4981503 101.97359761 92.69216423 103.3494873 96.88787842 C104.71511487 101.04274807 106.0969978 105.19218921 107.47851562 109.34179688 C109.10011517 114.2145313 110.72038295 119.0876701 112.33126831 123.96395874 C116.14681663 135.50531685 120.06948729 147.006139 124.09648132 158.47544861 C124.48141251 159.5780452 124.86634369 160.68064178 125.26293945 161.81665039 C125.60033646 162.77567764 125.93773346 163.7347049 126.28535461 164.72279358 C127 167 127 167 127 169 C125.34063997 170.67394141 123.67253722 172.33922464 122 174 C120.47772478 176.00973007 119.00159728 178.05489473 117.5625 180.125 C116.69417754 181.36301095 115.82429403 182.59992799 114.953125 183.8359375 C114.25026367 184.83318848 114.25026367 184.83318848 113.53320312 185.85058594 C110.67725233 189.85437428 107.7397395 193.79820726 104.8125 197.75 C100.11313333 204.10351346 95.46117686 210.47594813 91 217 C89.46245212 214.23156205 88.7212812 212.0758861 88.50720215 208.92155457 C88.44844406 208.11841324 88.38968597 207.31527191 88.32914734 206.48779297 C88.27402481 205.61550049 88.21890228 204.74320801 88.16210938 203.84448242 C88.09675491 202.91879959 88.03140045 201.99311676 87.96406555 201.03938293 C87.82335652 199.03059296 87.68659007 197.02152382 87.55329895 195.01222801 C87.34202771 191.82952326 87.12031683 188.64769786 86.89587402 185.46589661 C86.42107785 178.70707194 85.95992143 171.94735067 85.5 165.1875 C84.96678533 157.36373103 84.42797695 149.54040935 83.87715149 141.71785927 C83.65938511 138.58802785 83.45075918 135.45767408 83.24255371 132.32719421 C83.10809359 130.39933333 82.97322731 128.47150072 82.83789062 126.54370117 C82.75520683 125.24437149 82.75520683 125.24437149 82.67085266 123.91879272 C82.18216529 117.16875914 81.19381916 111.22064511 77.26953125 105.53125 C76.72176025 104.72510254 76.17398926 103.91895508 75.60961914 103.08837891 C75.01656982 102.23421387 74.42352051 101.38004883 73.8125 100.5 C72.53527512 98.62320051 71.25927511 96.74556697 69.984375 94.8671875 C69.32501953 93.90006836 68.66566406 92.93294922 67.98632812 91.93652344 C64.78559916 87.20466896 61.67370219 82.41600543 58.5625 77.625 C57.94455566 76.67560547 57.32661133 75.72621094 56.68994141 74.74804688 C54.79236698 71.83263338 52.89615239 68.91633851 51 66 C47.15129989 60.08408578 43.29968925 54.17018865 39.43359375 48.265625 C37.33746753 45.06242635 35.26418382 41.84760837 33.22265625 38.609375 C28.61485617 31.3717269 23.76375522 25.33440628 17.53125 19.42578125 C15.30162506 17.28905735 13.29816315 15.11023142 11.3125 12.75 C8.34479177 9.24925679 5.05599145 6.34359834 1.50390625 3.4453125 C1.00761719 2.96835937 0.51132812 2.49140625 0 2 C0 1.34 0 0.68 0 0 Z " fill="#007935" transform="translate(269,48)"/>
<path d="M0 0 C2 1 2 1 2.97045898 3.58016968 C3.30891846 4.73368927 3.64737793 5.88720886 3.99609375 7.07568359 C4.18514786 7.71211288 4.37420197 8.34854218 4.56898499 9.0042572 C5.19937457 11.13350329 5.8184399 13.26587232 6.4375 15.3984375 C6.88086723 16.90518819 7.32488991 18.41174615 7.76953125 19.91812134 C8.94979832 23.9238664 10.12038966 27.93238012 11.28924561 31.94146729 C12.43788848 35.87427449 13.59650993 39.80413703 14.75390625 43.734375 C17.28715537 52.34573666 19.79684528 60.96384207 22.29840088 69.5844574 C23.01705042 72.05870307 23.73760211 74.53238885 24.45849609 77.00598145 C25.64895949 81.09270221 26.83348721 85.18110103 28.01367188 89.27080154 C28.45931412 90.81227109 28.90671422 92.35323363 29.35595703 93.89365768 C29.97545405 96.01963725 30.58819115 98.1474522 31.19921875 100.27587891 C31.54815186 101.48176666 31.89708496 102.68765442 32.2565918 103.93008423 C33 107 33 107 33 111 C23.59853023 108.80118199 14.41453138 106.02767069 5.21875 103.10546875 C3.71450722 102.6305329 2.21015086 102.15595668 0.70568848 101.68171692 C-3.23302146 100.43930881 -7.17045804 99.19291718 -11.10754395 97.94537354 C-18.12231085 95.72326116 -25.13918893 93.50782373 -32.15625 91.29296875 C-33.27376144 90.94001047 -33.27376144 90.94001047 -34.41384888 90.57992172 C-45.91213523 86.94968245 -57.43139643 83.40067086 -69 80 C-68.05742609 78.72832614 -67.11276224 77.4582012 -66.16723633 76.1887207 C-65.37848869 75.12751762 -65.37848869 75.12751762 -64.57380676 74.0448761 C-62.42764096 71.25632336 -60.10406499 68.74726884 -57.6875 66.1875 C-54.18445717 62.43771389 -50.83231098 58.63561539 -47.625 54.625 C-43.57333783 49.58583594 -39.22645384 44.89534229 -34.79736328 40.19189453 C-30.7778069 35.90006455 -27.05199133 31.44070371 -23.37890625 26.84765625 C-19.99606977 22.798251 -16.37236445 18.99113497 -12.75512695 15.15185547 C-8.21789404 10.30702495 -4.02733018 5.28054773 0 0 Z " fill="#3C9D46" transform="translate(246,124)"/>
<path d="M0 0 C-1.86031578 4.01838978 -4.5273293 6.89211984 -7.5625 10.0625 C-11.34402598 14.07836454 -14.99358182 18.12300027 -18.4375 22.4375 C-22.46446744 27.45841948 -26.79214703 32.12421817 -31.20068359 36.80615234 C-35.23944536 41.11880851 -38.98947202 45.59838771 -42.68359375 50.2109375 C-46.34989747 54.62534029 -50.28273451 58.78512984 -54.1953125 62.98046875 C-59.0095789 68.14459978 -63.65235029 73.43500837 -68 79 C-72.18977608 77.60340797 -73.55215495 74.60486994 -75.875 71.0625 C-76.86130805 69.59242421 -77.84966941 68.12372442 -78.83984375 66.65625 C-79.35659668 65.88925781 -79.87334961 65.12226563 -80.40576172 64.33203125 C-83.01001846 60.522558 -85.72212308 56.7931953 -88.4375 53.0625 C-92.66791522 47.23771659 -96.86056678 41.38981039 -101 35.5 C-105.81894265 28.64360422 -110.70685917 21.8395862 -115.63671875 15.0625 C-116.14847656 14.35738281 -116.66023437 13.65226563 -117.1875 12.92578125 C-117.63480469 12.31130127 -118.08210938 11.69682129 -118.54296875 11.0637207 C-120.41575345 8.41113205 -122.20222762 5.70382931 -124 3 C-112.5575691 2.60236189 -101.11494459 2.21086223 -89.67205811 1.82654572 C-84.3548375 1.64778439 -79.03769633 1.46714957 -73.72070312 1.28173828 C-49.1389255 0.42595952 -24.59834244 -0.26911337 0 0 Z " fill="#72AA38" transform="translate(246,124)"/>
<path d="M0 0 C2.53081935 34.65541941 4.91043036 69.31506987 7 104 C3.00640534 102.07737952 -0.55592258 99.64974383 -4.1875 97.125 C-4.8902002 96.6388623 -5.59290039 96.15272461 -6.31689453 95.65185547 C-17.98937177 87.56055945 -29.56050523 79.33415472 -41.05810547 70.99658203 C-47.48816616 66.34490188 -53.98670588 61.79538581 -60.4987793 57.25952148 C-67.20205543 52.58173347 -73.83729215 47.81470682 -80.44140625 42.99804688 C-81.14394531 42.48693359 -81.84648438 41.97582031 -82.5703125 41.44921875 C-83.18664551 40.99893311 -83.80297852 40.54864746 -84.43798828 40.0847168 C-86.02261795 38.92917273 -86.02261795 38.92917273 -88 38 C-87 35 -87 35 -83.87768555 33.42871094 C-82.46861008 32.85260035 -81.05447701 32.28877429 -79.63671875 31.734375 C-78.86960571 31.42395264 -78.10249268 31.11353027 -77.31213379 30.79370117 C-74.77449807 29.76910871 -72.23105842 28.7597887 -69.6875 27.75 C-67.92762709 27.04196682 -66.16827325 26.33264216 -64.40942383 25.62207031 C-61.68708312 24.52229008 -58.96448399 23.4232222 -56.24028015 22.32806396 C-46.85411965 18.55267252 -37.51882609 14.65851947 -28.1875 10.75 C-12.49297864 4.18152483 -12.49297864 4.18152483 -6.11328125 1.578125 C-5.35442627 1.2677832 -4.59557129 0.95744141 -3.8137207 0.63769531 C-2 0 -2 0 0 0 Z " fill="#3C9D47" transform="translate(177,204)"/>
<path d="M0 0 C2.39734614 3.59601921 2.5011585 6.5120686 2.77783203 10.68994141 C2.83664551 11.47261887 2.89545898 12.25529633 2.95605469 13.06169128 C3.14875541 15.65775677 3.32855079 18.25453698 3.5078125 20.8515625 C3.63887666 22.66747293 3.77054912 24.48333954 3.90280151 26.29916382 C4.17892039 30.11703605 4.44889165 33.93527869 4.71435547 37.75390625 C5.0516357 42.60125179 5.40190641 47.44754399 5.75671577 52.29363441 C6.03079214 56.05302353 6.29870035 59.8128334 6.564785 63.57279587 C6.69152872 65.35632274 6.81986761 67.13973711 6.94995499 68.92302322 C7.77503163 80.30391142 8.16469064 91.58915969 8 103 C0.47743582 100.87206779 -6.80985923 98.28912635 -14.11328125 95.5078125 C-15.2446904 95.07999481 -16.37609955 94.65217712 -17.54179382 94.21139526 C-21.13324693 92.85245368 -24.72287844 91.48877117 -28.3125 90.125 C-30.71017083 89.21714248 -33.10795632 88.30958773 -35.50585938 87.40234375 C-46.3484399 83.29704154 -57.18189172 79.16941557 -68 75 C-68 71 -68 71 -66.73413086 69.29589844 C-66.15026611 68.7393457 -65.56640137 68.18279297 -64.96484375 67.609375 C-63.99708008 66.66771484 -63.99708008 66.66771484 -63.00976562 65.70703125 C-62.32591797 65.06121094 -61.64207031 64.41539062 -60.9375 63.75 C-57.00112384 59.972006 -53.12292815 56.22072886 -49.56640625 52.078125 C-44.90594416 46.65422604 -39.76758139 41.72114546 -34.671875 36.7109375 C-30.51619522 32.59766262 -26.56113059 28.40746623 -22.75097656 23.97363281 C-19.62214146 20.44693134 -16.23901106 17.17541917 -12.875 13.875 C-8.33268018 9.41758336 -3.97994906 4.97106478 0 0 Z " fill="#32908B" transform="translate(350,162)"/>
<path d="M0 0 C1.58350693 3.99164523 0.34485869 7.37209971 -0.79492188 11.30932617 C-1.09970459 12.40576447 -1.09970459 12.40576447 -1.41064453 13.52435303 C-2.08740403 15.94993155 -2.77803077 18.37133194 -3.46875 20.79296875 C-3.94751264 22.49832012 -4.42540303 24.20391659 -4.90246582 25.90974426 C-6.16688797 30.42191393 -7.44304118 34.93068425 -8.72167969 39.43884277 C-9.99321444 43.92929887 -11.25406722 48.42274845 -12.515625 52.91601562 C-14.45336373 59.81346806 -16.39785167 66.70897663 -18.34765625 73.60302734 C-19.99202997 79.41787907 -21.62742446 85.23506819 -23.24609375 91.05712891 C-23.73825378 92.82555901 -23.73825378 92.82555901 -24.24035645 94.62971497 C-24.83149752 96.75708027 -25.42105078 98.88488774 -26.00866699 101.01322937 C-26.26168579 101.92321182 -26.51470459 102.83319427 -26.77539062 103.77075195 C-26.99022095 104.5478804 -27.20505127 105.32500885 -27.4263916 106.12568665 C-28 108 -28 108 -29 110 C-30.99343872 110.7071228 -30.99343872 110.7071228 -33.64892578 111.35693359 C-34.64151398 111.60414154 -35.63410217 111.85134949 -36.6567688 112.10604858 C-37.74198822 112.36753693 -38.82720764 112.62902527 -39.9453125 112.8984375 C-41.06251678 113.17466949 -42.17972107 113.45090149 -43.33078003 113.73550415 C-46.92700067 114.62307336 -50.52585704 115.49936394 -54.125 116.375 C-57.66563681 117.24386793 -61.20569602 118.11504765 -64.74554443 118.98712158 C-67.03363085 119.55010557 -69.32224235 120.11096001 -71.61138916 120.6696167 C-76.38587036 121.83867782 -81.15094932 123.01915189 -85.88574219 124.34082031 C-86.93433914 124.6331102 -86.93433914 124.6331102 -88.00411987 124.93130493 C-89.76324718 125.42943206 -91.51833603 125.94176482 -93.27294922 126.45556641 C-95.9833599 126.99667794 -97.43601757 126.94169767 -100 126 C-98.85724609 124.67548828 -98.85724609 124.67548828 -97.69140625 123.32421875 C-92.13821319 116.8745623 -86.64567103 110.38959475 -81.28125 103.78125 C-78.70157112 100.63616205 -76.07368017 97.53520324 -73.4375 94.4375 C-70.23256144 90.6691525 -67.07312111 86.87753727 -64 83 C-60.92685916 79.12243783 -57.76695374 75.33128082 -54.5625 71.5625 C-42.04849104 56.82254407 -30.24655124 41.62131807 -18.97485352 25.91235352 C-12.73311411 17.21372899 -6.36684224 8.60726761 0 0 Z " fill="#276881" transform="translate(394,217)"/>
<path d="M0 0 C1.82984961 9.18728237 3.65560053 18.37536692 5.47612 27.56450272 C6.32158252 31.83132873 7.1684557 36.09786463 8.01855469 40.36376953 C8.83884885 44.48038076 9.65543483 48.59771166 10.4694519 52.71556854 C10.78071053 54.28670212 11.0933058 55.85757151 11.40725708 57.42816925 C11.84665776 59.62753574 12.28130252 61.82779243 12.71484375 64.02832031 C12.96355225 65.28074524 13.21226074 66.53317017 13.46850586 67.82354736 C14 71 14 71 14 75 C8.49386481 74.32433872 3.57839348 72.57991554 -1.609375 70.7109375 C-2.55354279 70.37535324 -3.49771057 70.03976898 -4.4704895 69.6940155 C-7.56544468 68.59261273 -10.65776985 67.48402807 -13.75 66.375 C-15.89195586 65.61022033 -18.03404722 64.8458201 -20.17626953 64.08178711 C-24.58675927 62.5081478 -28.99624078 60.93172046 -33.40527344 59.35400391 C-38.73977715 57.44711363 -44.07942566 55.55525771 -49.42211914 53.67144775 C-53.31754518 52.29791921 -57.21141968 50.92002613 -61.10510254 49.54156494 C-62.94846623 48.88999831 -64.7924599 48.24021114 -66.63708496 47.59222412 C-69.19486281 46.6930789 -71.75003446 45.78688457 -74.3046875 44.87890625 C-75.06073273 44.61506638 -75.81677795 44.3512265 -76.59573364 44.07939148 C-81.77188909 42.22811091 -81.77188909 42.22811091 -84 40 C-82.89817635 39.45075363 -82.89817635 39.45075363 -81.77409363 38.89041138 C-74.75936313 35.39317808 -67.74566546 31.89388502 -60.73304272 28.39242744 C-57.13010557 26.59353834 -53.52681099 24.795374 -49.92260742 22.99902344 C-46.43812281 21.26226295 -42.95451715 19.52375268 -39.4716835 17.78368378 C-38.10377733 17.10038749 -36.73566183 16.41751008 -35.36733627 15.73505402 C-26.28320592 11.20208848 -17.24460689 6.60114528 -8.38041687 1.64675903 C-3.32397888 -1.10799296 -3.32397888 -1.10799296 0 0 Z " fill="#2D6E85" transform="translate(185,310)"/>
<path d="M0 0 C-10.27267211 7.87453292 -20.56081747 15.72194704 -31 23.375 C-37.2020041 27.92343098 -43.34538112 32.52811213 -49.42578125 37.23828125 C-54.11816575 40.87229532 -58.84175309 44.46546258 -63.5625 48.0625 C-64.83843018 49.03582275 -64.83843018 49.03582275 -66.14013672 50.02880859 C-67.85921547 51.33859855 -69.58988246 52.63330052 -71.33105469 53.91357422 C-74.07395342 55.97831185 -74.07395342 55.97831185 -76.59863281 58.54345703 C-81.88326883 63.3810177 -85.90143054 65.52827449 -93.01087952 65.30805969 C-97.57471686 64.95804982 -102.09131178 64.37055064 -106.625 63.75 C-108.56873178 63.52181176 -110.51308787 63.29888378 -112.45800781 63.08105469 C-116.39649027 62.6354885 -120.33106079 62.16650309 -124.26464844 61.6796875 C-131.99751567 60.73988526 -139.75117299 60.07971163 -147.5133667 59.43664551 C-151.04645758 59.14181151 -154.57777429 58.82778668 -158.109375 58.515625 C-160.07290851 58.34365684 -162.03644667 58.17174167 -164 58 C-160.14987544 54.65624697 -155.62577923 52.94294067 -150.98828125 50.96484375 C-149.6312912 50.37806602 -149.6312912 50.37806602 -148.24688721 49.7794342 C-145.27091441 48.49372338 -142.29182364 47.21542473 -139.3125 45.9375 C-135.12928764 44.13624697 -130.94737853 42.33198056 -126.765625 40.52734375 C-125.17138451 39.84023819 -125.17138451 39.84023819 -123.54493713 39.13925171 C-116.46076279 36.0805756 -109.40277813 32.96771608 -102.359375 29.81640625 C-100.5204839 28.99669725 -98.68153642 28.1771147 -96.8425293 27.35766602 C-94.23578627 26.19584917 -91.63075922 25.03090693 -89.03091431 23.85372925 C-79.59839397 19.5848602 -70.4764102 15.98278846 -60.36880493 13.58062744 C-56.36797399 12.59996745 -52.39329192 11.52119922 -48.41362 10.45846558 C-43.61815587 9.17968888 -38.81750983 7.92095621 -34.0168457 6.66186523 C-31.52665752 6.00686352 -29.03741012 5.34827563 -26.54907227 4.6862793 C-22.92694227 3.72326677 -19.30179167 2.77250023 -15.67578125 1.82421875 C-14.00555656 1.37594978 -14.00555656 1.37594978 -12.30158997 0.91862488 C-11.26918686 0.65116959 -10.23678375 0.38371429 -9.1730957 0.1081543 C-8.26791702 -0.13070999 -7.36273834 -0.36957428 -6.43013 -0.61567688 C-3.91792682 -1.01297981 -2.38679543 -0.81035444 0 0 Z " fill="#055770" transform="translate(364,328)"/>
<path d="M0 0 C2.84723579 2.69213495 5.03084442 5.3536581 7.1015625 8.67578125 C7.66883057 9.57828613 8.23609863 10.48079102 8.82055664 11.41064453 C9.41602295 12.36825684 10.01148926 13.32586914 10.625 14.3125 C11.88546944 16.31719231 13.14719168 18.32109745 14.41015625 20.32421875 C15.0252002 21.30052246 15.64024414 22.27682617 16.27392578 23.28271484 C18.48604782 26.7651644 20.75785047 30.20332301 23.0625 33.625 C28.52687438 41.75256978 33.84578513 49.97274262 39.17480469 58.18945312 C42.54641683 63.38126679 45.92986894 68.56536154 49.3125 73.75 C49.97725342 74.76900391 50.64200684 75.78800781 51.3269043 76.83789062 C52.88446913 79.22534772 54.44216119 81.61272167 56 84 C54 85 54 85 51.71958923 84.38598633 C50.76403641 84.03818115 49.80848358 83.69037598 48.82397461 83.33203125 C47.73385071 82.93942108 46.64372681 82.54681091 45.52056885 82.14230347 C44.32655457 81.70346832 43.13254028 81.26463318 41.90234375 80.8125 C40.64824591 80.35759566 39.39390732 79.90335455 38.13934326 79.44973755 C34.76677668 78.22815089 31.39769561 76.99720689 28.02920151 75.76444244 C24.55567542 74.4949923 21.07906189 73.23405616 17.6027832 71.97216797 C10.03151512 69.22191932 2.46488529 66.45906172 -5.10092163 63.6938324 C-8.03495688 62.62187626 -10.96962614 61.55166026 -13.90429688 60.48144531 C-25.27452418 56.33453104 -36.64054802 52.17634205 -48 48 C-43.31429594 42.37116701 -38.31520448 37.16421013 -33.125 32 C-32.36058594 31.23171875 -31.59617187 30.4634375 -30.80859375 29.671875 C-26.66536563 25.53568122 -22.43138954 21.59158073 -17.99560547 17.77294922 C-14.34261667 14.52753636 -10.93325084 11.03707701 -7.5 7.5625 C-6.77296875 6.83095703 -6.0459375 6.09941406 -5.296875 5.34570312 C-3.52890501 3.56610176 -1.76333622 1.78419082 0 0 Z " fill="#60A02E" transform="translate(295,76)"/>
<path d="M0 0 C2.9886041 20.9360125 5.63705455 41.90354024 8.14697266 62.90161133 C8.65602857 67.15939608 9.17077308 71.41647319 9.68688583 75.67340755 C10.0891415 78.99740623 10.48811103 82.32179311 10.88611603 85.64630318 C11.07479524 87.21844231 11.26456745 88.7904507 11.45549774 90.36231804 C11.71950671 92.53924902 11.97897733 94.71667561 12.23730469 96.89428711 C12.3851239 98.12586044 12.53294312 99.35743378 12.6852417 100.62632751 C12.97909021 103.77588268 13.05894847 106.83929421 13 110 C9.16534532 106.40247061 6.21764521 102.61684642 3.375 98.1875 C2.49717063 96.84564906 1.61822603 95.50452717 0.73828125 94.1640625 C0.28791504 93.47602539 -0.16245117 92.78798828 -0.62646484 92.07910156 C-2.85245414 88.70965171 -5.14305497 85.38555987 -7.4375 82.0625 C-7.89463379 81.39951904 -8.35176758 80.73653809 -8.82275391 80.0534668 C-9.75113781 78.70745667 -10.67984903 77.36167224 -11.60888672 76.01611328 C-13.9104419 72.68051435 -16.20484485 69.34000421 -18.5 66 C-19.41143769 64.67446497 -20.32289606 63.34894416 -21.234375 62.0234375 C-23.12095501 59.2794431 -25.00620146 56.53453825 -26.890625 53.7890625 C-31.89353062 46.50224015 -36.91014464 39.22655232 -42 32 C-40.61839226 28.7425081 -39.18026874 27.09226686 -36.31640625 25.0390625 C-35.18513306 24.21752686 -35.18513306 24.21752686 -34.03100586 23.37939453 C-33.21639893 22.80044434 -32.40179199 22.22149414 -31.5625 21.625 C-29.84604559 20.38584399 -28.12990949 19.14624696 -26.4140625 17.90625 C-25.5262207 17.26816406 -24.63837891 16.63007813 -23.72363281 15.97265625 C-20.99285031 13.99482167 -18.28629191 11.98788977 -15.5859375 9.96875 C-14.72282959 9.32470215 -13.85972168 8.6806543 -12.97045898 8.01708984 C-11.30122577 6.77019274 -9.63401715 5.52058 -7.96899414 4.26806641 C-6.83772095 3.42767822 -6.83772095 3.42767822 -5.68359375 2.5703125 C-5.01900146 2.07289551 -4.35440918 1.57547852 -3.66967773 1.06298828 C-2 0 -2 0 0 0 Z " fill="#007C2E" transform="translate(88,241)"/>
<path d="M0 0 C5.67256681 3.10514338 10.91545662 6.63596214 16.1875 10.375 C17.97259907 11.63289365 19.75775697 12.89070382 21.54296875 14.1484375 C22.44966309 14.7887793 23.35635742 15.42912109 24.29052734 16.08886719 C28.51866426 19.07119335 32.75961722 22.03512503 37 25 C38.66673557 26.16656822 40.33340206 27.33323515 42 28.5 C42.825 29.0775 43.65 29.655 44.5 30.25 C47 32 49.5 33.75 52 35.5 C53.23943359 36.36757935 53.23943359 36.36757935 54.50390625 37.25268555 C56.15761335 38.41031287 57.81125996 39.56802661 59.46484375 40.72583008 C63.82927971 43.78153855 68.19499596 46.83539673 72.5625 49.88671875 C73.47257812 50.52287109 74.38265625 51.15902344 75.3203125 51.81445312 C77.06471744 53.03375658 78.80949019 54.25253406 80.5546875 55.47070312 C81.34101563 56.02048828 82.12734375 56.57027344 82.9375 57.13671875 C83.97197266 57.85927856 83.97197266 57.85927856 85.02734375 58.59643555 C87.04419535 60.03144543 89.02610048 61.50660371 91 63 C88.89457185 79.77495601 86.07854814 96.37766708 83 113 C80.39419431 110.50539018 78.23351918 108.08176484 76.29296875 105.04296875 C75.79684082 104.27235107 75.30071289 103.5017334 74.78955078 102.70776367 C74.26087402 101.87607666 73.73219727 101.04438965 73.1875 100.1875 C72.02246024 98.3747912 70.85708246 96.5622996 69.69140625 94.75 C69.08570801 93.80511719 68.48000977 92.86023438 67.85595703 91.88671875 C64.80289076 87.13804003 61.71292195 82.41355646 58.625 77.6875 C57.36313465 75.75400192 56.10141713 73.82040735 54.83984375 71.88671875 C54.20933105 70.92040527 53.57881836 69.9540918 52.92919922 68.95849609 C50.32210916 64.96043012 47.71892825 60.95982445 45.11572266 56.95922852 C43.22573944 54.05868577 41.33007223 51.16192373 39.43359375 48.265625 C37.33746753 45.06242635 35.26418382 41.84760837 33.22265625 38.609375 C28.61485617 31.3717269 23.76375522 25.33440628 17.53125 19.42578125 C15.30162506 17.28905735 13.29816315 15.11023142 11.3125 12.75 C8.34479177 9.24925679 5.05599145 6.34359834 1.50390625 3.4453125 C1.00761719 2.96835937 0.51132812 2.49140625 0 2 C0 1.34 0 0.68 0 0 Z " fill="#008C34" transform="translate(269,48)"/>
<path d="M0 0 C2.79653053 2.46569677 4.2554663 5.11519153 5.93359375 8.42578125 C6.49393311 9.52132324 7.05427246 10.61686523 7.6315918 11.74560547 C8.52551636 13.51121826 8.52551636 13.51121826 9.4375 15.3125 C10.69939081 17.78187024 11.96633025 20.24862885 13.234375 22.71484375 C13.55258713 23.33454041 13.87079926 23.95423706 14.19865417 24.5927124 C17.10468852 30.23671747 20.12690598 35.81337357 23.1875 41.375 C24.15262446 43.14047157 25.11746968 44.90609583 26.08203125 46.671875 C27.58717327 49.42524598 29.0972769 52.1754799 30.61865234 54.91992188 C32.21915246 57.81366413 33.79875611 60.71799077 35.375 63.625 C36.11786255 64.95023682 36.11786255 64.95023682 36.87573242 66.30224609 C37.3163501 67.12289551 37.75696777 67.94354492 38.2109375 68.7890625 C38.80334229 69.86728271 38.80334229 69.86728271 39.40771484 70.96728516 C40 73 40 73 39.32836914 75.09179688 C37.89439486 77.15170185 36.58876638 78.30899135 34.53515625 79.7421875 C33.82617188 80.24459961 33.1171875 80.74701172 32.38671875 81.26464844 C31.61972656 81.79606445 30.85273437 82.32748047 30.0625 82.875 C28.43803149 84.02234724 26.81436149 85.1708257 25.19140625 86.3203125 C24.34465332 86.9174707 23.49790039 87.51462891 22.62548828 88.12988281 C17.3679461 91.87479383 12.20043124 95.74308437 7.01977539 99.59326172 C5.88076782 100.43655029 5.88076782 100.43655029 4.71875 101.296875 C4.04779297 101.79541992 3.37683594 102.29396484 2.68554688 102.80761719 C1 104 1 104 -1 105 C-1.03060796 95.00001132 -1.05097913 85.00002714 -1.0625 75 C-1.06335602 74.26221943 -1.06421204 73.52443886 -1.06509399 72.7643013 C-1.08997414 48.4960008 -0.84329408 24.25591873 0 0 Z " fill="#60A12D" transform="translate(47,166)"/>
<path d="M0 0 C3.18663659 2.6491102 4.39387975 5.7715905 5.99609375 9.5390625 C6.2709108 10.17935394 6.54572784 10.81964539 6.82887268 11.4793396 C7.70521174 13.5250682 8.57157363 15.57484517 9.4375 17.625 C10.30005367 19.64785633 11.1646103 21.66984899 12.02920532 23.6918335 C12.5870299 24.99860739 13.14318382 26.30609581 13.69760132 27.61431885 C15.5044779 31.87416602 17.38233121 36.09358858 19.35571289 40.27880859 C20 42 20 42 20 45 C19.46669571 45.27180588 18.93339142 45.54361176 18.38392639 45.82365417 C12.70050077 48.72054679 7.01786648 51.61898763 1.33557129 54.51809692 C-1.9219715 56.17957982 -5.18021882 57.83967556 -8.43847656 59.49975586 C-22.04919969 66.43651591 -22.04919969 66.43651591 -35.58203125 73.5234375 C-36.7429126 74.13807861 -37.90379395 74.75271973 -39.09985352 75.38598633 C-41.14800093 76.47601409 -43.1917425 77.57437528 -45.23022461 78.68237305 C-46.10815674 79.1494165 -46.98608887 79.61645996 -47.890625 80.09765625 C-48.62313477 80.49476807 -49.35564453 80.89187988 -50.11035156 81.30102539 C-52 82 -52 82 -55 81 C-54.32626343 80.09713257 -54.32626343 80.09713257 -53.63891602 79.17602539 C-47.99167979 71.51823998 -42.70107186 63.6540043 -37.44995117 55.72180176 C-34.8354756 51.77307849 -32.21279293 47.82981666 -29.58984375 43.88671875 C-29.0516098 43.07739899 -28.51337585 42.26807922 -27.95883179 41.43423462 C-22.01737743 32.50919566 -16.0136216 23.62651372 -10 14.75 C-9.49169647 13.99959442 -8.98339294 13.24918884 -8.45968628 12.4760437 C-5.64149698 8.31620375 -2.82158441 4.15753775 0 0 Z " fill="#98C553" transform="translate(102,83)"/>
<path d="M0 0 C0.66 0 1.32 0 2 0 C3.453125 1.88671875 3.453125 1.88671875 5.25 4.6875 C5.94609375 5.75871094 6.6421875 6.82992188 7.359375 7.93359375 C7.96555664 8.87114502 7.96555664 8.87114502 8.58398438 9.82763672 C11.51709155 14.32742769 14.51586496 18.78396549 17.5 23.25 C18.73980084 25.10922998 19.97940047 26.96859415 21.21875 28.828125 C22.0221582 30.0332373 22.0221582 30.0332373 22.84179688 31.26269531 C23.22400391 31.83600586 23.60621094 32.40931641 24 33 C27.01578566 29.35145492 29.65415153 25.58008707 32.22265625 21.60546875 C33.01579975 20.39096486 33.80943365 19.17678111 34.60351562 17.96289062 C35.84161282 16.06536405 37.07636829 14.16596197 38.30297852 12.26098633 C39.49600981 10.41118408 40.70184124 8.57031157 41.91015625 6.73046875 C42.62308838 5.63114014 43.33602051 4.53181152 44.07055664 3.39916992 C44.70727295 2.60744385 45.34398926 1.81571777 46 1 C46.99 1 47.98 1 49 1 C49.29129709 5.81531134 49.57574037 10.6309676 49.85449219 15.44702148 C49.94972525 17.0770088 50.04666337 18.70689762 50.14550781 20.33666992 C50.82542637 31.57267105 51.12980864 42.74360791 51 54 C47.7 54 44.4 54 41 54 C40.67 44.76 40.34 35.52 40 26 C36.14045043 32.11753376 36.14045043 32.11753376 32.28173828 38.2355957 C31.79946777 38.99960693 31.31719727 39.76361816 30.8203125 40.55078125 C30.32805176 41.33106689 29.83579102 42.11135254 29.32861328 42.9152832 C28.23987051 44.62362105 27.1236998 46.3144503 26 48 C23.21894473 47.65641799 22.21099887 47.25250998 20.38427734 45.06640625 C19.8733252 44.24011719 19.36237305 43.41382813 18.8359375 42.5625 C17.98902344 41.22058594 17.98902344 41.22058594 17.125 39.8515625 C16.5475 38.91054688 15.97 37.96953125 15.375 37 C14.22026397 35.14326585 13.06160499 33.28896385 11.8984375 31.4375 C11.38974121 30.61121094 10.88104492 29.78492188 10.35693359 28.93359375 C9.13805947 26.87101285 9.13805947 26.87101285 7 26 C7 35.24 7 44.48 7 54 C3.7 54 0.4 54 -3 54 C-2.73956287 46.47006895 -2.47292843 38.94039325 -2.20043945 31.41088867 C-2.10854618 28.8471478 -2.01837438 26.28334465 -1.92993164 23.71948242 C-1.80282327 20.04328115 -1.66961128 16.36734522 -1.53515625 12.69140625 C-1.49656998 11.53725723 -1.4579837 10.38310822 -1.41822815 9.19398499 C-1.37826218 8.13296066 -1.3382962 7.07193634 -1.29711914 5.97875977 C-1.26380997 5.03944107 -1.23050079 4.10012238 -1.19618225 3.13233948 C-1 1 -1 1 0 0 Z " fill="#393939" transform="translate(543,339)"/>
<path d="M0 0 C31.84323956 0 31.84323956 0 41.1171875 8.90234375 C46.27664195 14.65053263 46.97897211 21.54561173 47 29 C46.42437077 36.77099456 43.05938811 42.40584513 37.26171875 47.5390625 C26.18876331 55.93584911 13.29093143 53.8860621 0 53 C0 35.51 0 18.02 0 0 Z M10 9 C10 20.55 10 32.1 10 44 C14.53504217 46.26752108 19.98341975 45.21228034 24.6875 43.875 C30.16191922 41.87400539 32.40198368 38.73945656 35.3125 33.75 C36.67920971 28.28316118 36.68943198 23.02999415 34.875 17.6875 C31.1108923 12.29227896 27.39336889 9.56863647 21.02734375 8.2734375 C15.35935426 7.50551827 15.35935426 7.50551827 10 9 Z " fill="#393939" transform="translate(575,419)"/>
<path d="M0 0 C2.09750111 3.14625166 3.08583114 5.86560266 4.28735352 9.44555664 C4.50727463 10.09673462 4.72719574 10.7479126 4.95378113 11.41882324 C5.68296765 13.58123023 6.4058862 15.74568045 7.12890625 17.91015625 C7.64215462 19.43556057 8.15582909 20.96082157 8.66990662 22.48594666 C10.02984853 26.52381383 11.38466368 30.56338209 12.73822021 34.60339355 C14.87218866 40.96974591 17.0142909 47.33336706 19.15552902 53.69727707 C19.93875646 56.02727349 20.72008253 58.3579009 21.50112915 60.68862915 C23.89132212 67.81158666 26.30766254 74.92245486 28.81982422 82.00341797 C29.2478685 83.2150914 29.67591278 84.42676483 30.1169281 85.67515564 C30.91014193 87.91027772 31.71101005 90.14270381 32.52088928 92.37184143 C32.86582932 93.34411179 33.21076935 94.31638214 33.56616211 95.31811523 C34.02085121 96.57578957 34.02085121 96.57578957 34.48472595 97.85887146 C35 100 35 100 34 103 C27.77466312 95.37915835 21.55587505 87.75662118 15.5 80 C9.88947246 72.81482458 4.13453239 65.75010503 -1.62841797 58.68701172 C-3.43212585 56.46849597 -5.21857918 54.23643433 -7 52 C-7.99 52.495 -7.99 52.495 -9 53 C-7.75844798 42.25703689 -6.19135137 31.60389527 -4.34057617 20.94921875 C-3.92952081 18.57899039 -3.52598961 16.20755716 -3.12304688 13.8359375 C-2.86241578 12.32023736 -2.60136479 10.80460934 -2.33984375 9.2890625 C-2.22003647 8.58399567 -2.10022919 7.87892883 -1.97679138 7.15249634 C-1.11518993 2.23037986 -1.11518993 2.23037986 0 0 Z " fill="#005E53" transform="translate(360,112)"/>
<path d="M0 0 C4.63100168 1.15775042 6.63041151 3.2481168 9.8125 6.5625 C10.3472998 7.10825684 10.88209961 7.65401367 11.43310547 8.21630859 C14.25150664 11.11335487 16.98834201 14.0604357 19.625 17.125 C23.8441383 21.96919582 28.45756887 26.45756887 33 31 C33.33 21.1 33.66 11.2 34 1 C37.3 1 40.6 1 44 1 C44 18.82 44 36.64 44 55 C39.39332487 53.84833122 37.77142479 51.93151631 34.8125 48.5 C33.83638 47.3994918 32.85849373 46.30054786 31.87890625 45.203125 C31.39437988 44.65849609 30.90985352 44.11386719 30.41064453 43.55273438 C28.43167049 41.37442442 26.35039592 39.31076581 24.25 37.25 C20.79566788 33.84528127 17.5606236 30.31562336 14.41015625 26.62890625 C13.32370902 25.37392427 12.17374345 24.17374345 11 23 C10.67 33.23 10.34 43.46 10 54 C6.7 54 3.4 54 0 54 C0 36.18 0 18.36 0 0 Z " fill="#393939" transform="translate(521,418)"/>
<path d="M0 0 C1 3 1 3 -0.4375 6.1875 C-1.2109375 7.5796875 -1.2109375 7.5796875 -2 9 C-4.72641988 8.51886708 -7.16031856 7.93805874 -9.75 6.9375 C-15.51607232 5.27420991 -20.74262452 5.14577563 -26.3125 7.5625 C-30.27198812 9.8465161 -32.74343588 12.56646245 -34 17 C-34.75373015 23.4543559 -34.94702895 29.55582213 -31 35 C-26.06599679 39.67431883 -21.62909577 41.35520672 -14.9375 41.203125 C-12.386794 40.93571227 -10.28445173 40.14222587 -8 39 C-7.67 36.03 -7.34 33.06 -7 30 C-11.29 30 -15.58 30 -20 30 C-20 27.03 -20 24.06 -20 21 C-12.74 21 -5.48 21 2 21 C2.10765079 24.93822455 2.18715597 28.87352621 2.25 32.8125 C2.30027344 34.49182617 2.30027344 34.49182617 2.3515625 36.20507812 C2.36445313 37.27822266 2.37734375 38.35136719 2.390625 39.45703125 C2.41157227 40.44678955 2.43251953 41.43654785 2.45410156 42.45629883 C2 45 2 45 0.13061523 46.78710938 C-8.24463458 51.55486933 -17.96578136 52.23009165 -27.125 49.8125 C-35.48758643 46.99045071 -39.44234654 43.02651629 -43.8359375 35.40234375 C-47.11740787 28.63018175 -46.96466107 20.47596487 -44.9375 13.3125 C-42.11690132 5.95785485 -36.99807613 0.91765983 -29.89453125 -2.30859375 C-20.30096914 -5.80974941 -8.90804022 -5.08302295 0 0 Z " fill="#393939" transform="translate(474,265)"/>
<path d="M0 0 C3.96272952 0.99068238 4.6846985 1.30926644 7.3125 4.0625 C7.92351563 4.69929688 8.53453125 5.33609375 9.1640625 5.9921875 C10.8746009 7.86286141 12.53729822 9.76360622 14.1875 11.6875 C17.84641966 15.94651583 21.81029895 19.86778377 25.82495117 23.7878418 C28.5041132 26.42174918 30.73068259 28.97424345 33 32 C33.33 21.77 33.66 11.54 34 1 C36.97 1 39.94 1 43 1 C43 18.82 43 36.64 43 55 C39.520309 53.2601545 38.13191373 52.34523104 35.64453125 49.62109375 C35.02618408 48.95118408 34.40783691 48.28127441 33.77075195 47.59106445 C33.12452881 46.88038818 32.47830566 46.16971191 31.8125 45.4375 C30.46995752 43.98065713 29.12621258 42.52492143 27.78125 41.0703125 C27.13285156 40.3680957 26.48445312 39.66587891 25.81640625 38.94238281 C22.90974241 35.83412777 19.88898726 32.85501528 16.83203125 29.89453125 C14.7395502 27.73066492 12.88040415 25.35050519 11 23 C10.67 33.23 10.34 43.46 10 54 C6.7 54 3.4 54 0 54 C0 36.18 0 18.36 0 0 Z " fill="#393939" transform="translate(615,261)"/>
<path d="M0 0 C3.98314541 3.36543837 6.41055311 5.48121906 6.9296875 10.90234375 C7.08946857 16.98243383 6.86911026 20.63954364 2.69140625 25.4140625 C1.88703125 26.3421875 1.88703125 26.3421875 1.06640625 27.2890625 C-0.30859375 28.4140625 -0.30859375 28.4140625 -2.30859375 28.4140625 C-1.98584473 28.93838867 -1.6630957 29.46271484 -1.33056641 30.00292969 C0.13680484 32.38892494 1.60162829 34.77647442 3.06640625 37.1640625 C3.82824219 38.4015625 3.82824219 38.4015625 4.60546875 39.6640625 C5.34023438 40.86289062 5.34023438 40.86289062 6.08984375 42.0859375 C6.54020996 42.8190918 6.99057617 43.55224609 7.45458984 44.30761719 C8.62801793 46.30610466 9.68176097 48.32883593 10.69140625 50.4140625 C6.2989513 51.6559084 3.03377057 51.94695731 -1.30859375 50.4140625 C-4.31867627 46.9817642 -6.37897914 42.98078327 -8.38989258 38.90478516 C-8.80263428 38.09444824 -9.21537598 37.28411133 -9.640625 36.44921875 C-10.16233276 35.32592163 -10.16233276 35.32592163 -10.69458008 34.17993164 C-12.70896653 31.60055392 -12.70896653 31.60055392 -19.30859375 31.4140625 C-19.30859375 37.6840625 -19.30859375 43.9540625 -19.30859375 50.4140625 C-22.60859375 50.4140625 -25.90859375 50.4140625 -29.30859375 50.4140625 C-29.30859375 32.9240625 -29.30859375 15.4340625 -29.30859375 -2.5859375 C-7.32060788 -5.02904704 -7.32060788 -5.02904704 0 0 Z M-19.30859375 6.4140625 C-19.30859375 12.0240625 -19.30859375 17.6340625 -19.30859375 23.4140625 C-11.50773462 23.63221935 -11.50773462 23.63221935 -5.30859375 20.4140625 C-3.3063193 17.88945559 -3.2986131 16.65359819 -3.43359375 13.4140625 C-4.48710975 9.80200766 -5.1816616 8.5247417 -8.30859375 6.4140625 C-13.91915418 5.11716702 -13.91915418 5.11716702 -19.30859375 6.4140625 Z " fill="#393939" transform="translate(514.30859375,264.5859375)"/>
<path d="M0 0 C27.68195603 -0.15834966 55.32765526 0.27994452 83 1 C82.67 1.99 82.34 2.98 82 4 C82.55042969 4.22429688 83.10085938 4.44859375 83.66796875 4.6796875 C86.72583148 6.41093976 88.84821826 8.62237725 91.3125 11.125 C91.79525391 11.61492432 92.27800781 12.10484863 92.77539062 12.60961914 C97.86012873 17.80891659 102.65023211 23.16893131 107 29 C93.33903702 26.12439858 79.89654741 22.63550739 66.4375 18.9375 C63.28658075 18.07689528 60.13525231 17.21779955 56.98391724 16.35871887 C54.84517207 15.77554224 52.70656125 15.19187271 50.56808472 14.60771179 C39.55452967 11.60016851 28.52827731 8.64051714 17.5 5.6875 C15.71410232 5.20893659 13.92821338 4.73034061 12.14233398 4.25170898 C8.09506151 3.16716209 4.04759794 2.08333156 0 1 C0 0.67 0 0.34 0 0 Z " fill="#4FA34E" transform="translate(187,46)"/>
<path d="M0 0 C3.3 0 6.6 0 10 0 C10.01401855 1.6874231 10.01401855 1.6874231 10.02832031 3.40893555 C10.06827255 7.59325369 10.13404552 11.77684063 10.20751953 15.96069336 C10.23569889 17.76951689 10.25692855 19.57846286 10.27099609 21.38745117 C10.29246814 23.99200994 10.33913811 26.59510134 10.390625 29.19921875 C10.39185364 30.00461594 10.39308228 30.81001312 10.39434814 31.63981628 C10.52431881 36.65188466 11.2052789 39.38188023 15 43 C19.1367203 44.53924476 22.9044212 44.46620375 26.9375 42.75 C30.72100316 39.5397549 31.42762726 36.76517122 32 32 C32.14336947 29.47321972 32.24557037 26.9439154 32.31640625 24.4140625 C32.33718735 23.71227875 32.35796844 23.010495 32.37937927 22.28744507 C32.44426324 20.06672042 32.5034723 17.84588724 32.5625 15.625 C32.60574354 14.11066629 32.6493596 12.59634317 32.69335938 11.08203125 C32.79988086 7.38813345 32.90131677 3.69411646 33 0 C35.97 0 38.94 0 42 0 C42.09938156 5.55007795 42.1717096 11.09963018 42.21972656 16.65039062 C42.23975767 18.53589916 42.26699073 20.42134623 42.30175781 22.30664062 C42.35065272 25.02749862 42.37305382 27.74753056 42.390625 30.46875 C42.41127014 31.30241089 42.43191528 32.13607178 42.45318604 32.99499512 C42.45538118 38.80919092 41.22978727 43.12560714 38 48 C36 49.83984375 36 49.83984375 34 50.9375 C33.34 51.31777344 32.68 51.69804687 32 52.08984375 C26.1863264 54.73551943 19.07214233 55.03130607 12.90234375 53.46875 C7.77816967 51.39655653 3.98537128 48.85315048 1.37768555 43.94897461 C-0.43377532 39.50598167 -0.38046826 35.30660327 -0.29296875 30.56640625 C-0.28872391 29.68846909 -0.28447906 28.81053192 -0.28010559 27.9059906 C-0.2634229 25.1245042 -0.22579085 22.34376436 -0.1875 19.5625 C-0.17243968 17.66732823 -0.15875364 15.77214502 -0.14648438 13.87695312 C-0.1135536 9.25101803 -0.06184428 4.62563523 0 0 Z " fill="#3A3A3A" transform="translate(469,419)"/>
<path d="M0 0 C10.89 0 21.78 0 33 0 C33 2.97 33 5.94 33 9 C25.41 9 17.82 9 10 9 C10 13.29 10 17.58 10 22 C16.93 22 23.86 22 31 22 C31 24.97 31 27.94 31 31 C24.07 31 17.14 31 10 31 C10 35.29 10 39.58 10 44 C17.59 44 25.18 44 33 44 C33 46.97 33 49.94 33 53 C22.11 53 11.22 53 0 53 C0 35.51 0 18.02 0 0 Z " fill="#393939" transform="translate(694,340)"/>
<path d="M0 0 C10.89 0 21.78 0 33 0 C33 2.97 33 5.94 33 9 C25.41 9 17.82 9 10 9 C10 13.29 10 17.58 10 22 C16.93 22 23.86 22 31 22 C31 24.64 31 27.28 31 30 C24.07 30 17.14 30 10 30 C10 34.62 10 39.24 10 44 C17.59 44 25.18 44 33 44 C33 46.97 33 49.94 33 53 C22.11 53 11.22 53 0 53 C0 35.51 0 18.02 0 0 Z " fill="#3A3A3A" transform="translate(572,262)"/>
<path d="M0 0 C10.89 0 21.78 0 33 0 C33 2.97 33 5.94 33 9 C25.41 9 17.82 9 10 9 C10 13.29 10 17.58 10 22 C16.93 22 23.86 22 31 22 C31 24.64 31 27.28 31 30 C24.07 30 17.14 30 10 30 C10 34.62 10 39.24 10 44 C17.59 44 25.18 44 33 44 C33 46.97 33 49.94 33 53 C22.11 53 11.22 53 0 53 C0 35.51 0 18.02 0 0 Z " fill="#393939" transform="translate(530,262)"/>
<path d="M0 0 C1.39195915 4.17587745 -0.17676781 6.13474776 -2 10 C-2.78310547 9.67515625 -2.78310547 9.67515625 -3.58203125 9.34375 C-10.86649706 6.58815523 -17.95925798 5.6041073 -25.4375 8.1875 C-29.26164212 10.89238101 -31.51659586 13.54978759 -33 18 C-33.65539923 25.34906673 -33.84035785 31.19157057 -29 37 C-24.44269395 40.44626981 -19.9043704 41.58474785 -14.2421875 41.33984375 C-10.57428842 40.78390783 -7.42201321 39.41600547 -4 38 C-3.01 38 -2.02 38 -1 38 C0.49821059 41.37097383 1 43.20442119 1 47 C-7.71242197 51.59195887 -17.05339109 52.7113366 -26.6796875 50.33984375 C-33.09478073 47.77602622 -39.01421111 43.59679509 -42.38671875 37.48828125 C-45.74923715 29.21766581 -46.40055677 21.22870356 -43.4375 12.75 C-39.97338578 5.11925889 -34.78270725 0.76250591 -27.0625 -2.2890625 C-17.6491415 -5.53381865 -9.0423122 -3.91833529 0 0 Z " fill="#393939" transform="translate(473,343)"/>
<path d="M0 0 C0.99 0 1.98 0 3 0 C5.31360612 5.01191382 7.6246798 10.02498534 9.93359375 15.0390625 C10.71645764 16.73826216 11.49996675 18.43716472 12.28417969 20.13574219 C26 49.84750639 26 49.84750639 26 53 C22.7 53 19.4 53 16 53 C15.16180842 51.37750059 14.3295884 49.75191503 13.5 48.125 C13.0359375 47.22007812 12.571875 46.31515625 12.09375 45.3828125 C11 43 11 43 11 41 C4.4 41 -2.2 41 -9 41 C-9.99 43.97 -10.98 46.94 -12 50 C-12.33 50.99 -12.66 51.98 -13 53 C-16.63 53 -20.26 53 -24 53 C-22.46120716 48.02135072 -20.44584876 43.38936432 -18.26171875 38.671875 C-17.717752 37.48830414 -17.717752 37.48830414 -17.16279602 36.28082275 C-16.39688183 34.61605548 -15.62945176 32.95198487 -14.8605957 31.28857422 C-13.69834528 28.77346915 -12.54116059 26.25608303 -11.38476562 23.73828125 C-7.71386577 15.76216618 -4.02601559 7.80515875 0 0 Z M0 19 C-0.83764268 20.95649397 -1.66999059 22.91525556 -2.5 24.875 C-2.9640625 25.96554687 -3.428125 27.05609375 -3.90625 28.1796875 C-5.12052456 30.80661929 -5.12052456 30.80661929 -5 33 C-1.04 33 2.92 33 7 33 C4.68635915 25.93199136 4.68635915 25.93199136 2 19 C1.34 19 0.68 19 0 19 Z " fill="#393939" transform="translate(622,340)"/>
<path d="M0 0 C10.89 0 21.78 0 33 0 C33 2.97 33 5.94 33 9 C25.41 9 17.82 9 10 9 C10 13.62 10 18.24 10 23 C16.6 23 23.2 23 30 23 C30 25.97 30 28.94 30 32 C23.4 32 16.8 32 10 32 C10 38.93 10 45.86 10 53 C6.7 53 3.4 53 0 53 C0 35.51 0 18.02 0 0 Z " fill="#3A3A3A" transform="translate(430,419)"/>
<path d="M0 0 C14.19 0 28.38 0 43 0 C43 2.97 43 5.94 43 9 C37.39 9 31.78 9 26 9 C26 23.52 26 38.04 26 53 C22.7 53 19.4 53 16 53 C16 38.48 16 23.96 16 9 C10.72 9 5.44 9 0 9 C0 6.03 0 3.06 0 0 Z " fill="#3A3A3A" transform="translate(645,340)"/>
<path d="M0 0 C3.3 0 6.6 0 10 0 C10 14.52 10 29.04 10 44 C17.59 44 25.18 44 33 44 C33 46.97 33 49.94 33 53 C22.11 53 11.22 53 0 53 C0 35.51 0 18.02 0 0 Z " fill="#3A3A3A" transform="translate(481,340)"/>
<path d="M0 0 C3.3 0 6.6 0 10 0 C10 17.49 10 34.98 10 53 C6.7 53 3.4 53 0 53 C0 35.51 0 18.02 0 0 Z " fill="#3A3A3A" transform="translate(520,340)"/>
</svg>
